<?xml version="1.0" encoding="utf-8"?>
<!-- Generator: Adobe Illustrator 22.1.0, SVG Export Plug-In . SVG Version: 6.00 Build 0)  -->
<svg version="1.1" id="Слой_1" xmlns="http://www.w3.org/2000/svg" xmlns:xlink="http://www.w3.org/1999/xlink" x="0px" y="0px"
	 viewBox="0 0 7609 827.4" style="enable-background:new 0 0 7609 827.4;" xml:space="preserve">
<style type="text/css">
	.st0{opacity:0.33;}
	.st1{fill:#AD402F;}
	.st2{fill:#3F2A2F;}
	.st3{fill:#FFA73E;}
	.st4{fill:#A54A5A;}
	.st5{fill:#FFBE4A;}
	.st6{fill:#EFEBC5;}
	.st7{fill:#FFF4D7;}
	.st8{fill:#F4E5C3;}
	.st9{fill:#42303A;}
	.st10{fill:#56424C;}
	.st11{fill:#4C3F3B;}
	.st12{fill:#EF7A62;}
	.st13{fill:#FFBB83;}
	.st14{fill:#604748;}
	.st15{fill:#C92B41;}
	.st16{fill:#ED7656;}
	.st17{fill:#E2D9C0;}
	.st18{fill:#4C343B;}
	.st19{fill:#60454B;}
	.st20{fill:#8E3A4C;}
	.st21{fill:#3C84A0;}
	.st22{fill:#5395B7;}
	.st23{fill:#F9DEB7;}
	.st24{fill:#A777B7;}
	.st25{fill:#8A5A9E;}
	.st26{fill:#4C343A;}
	.st27{fill:#EFD0AB;}
	.st28{fill:#FF9D66;}
	.st29{fill:#FFEED7;}
	.st30{fill:#F2D1A5;}
	.st31{fill:#FFF0DC;}
	.st32{fill:#91D3E8;}
	.st33{fill:#DEF6FC;}
	.st34{fill:#E24062;}
	.st35{fill:#F7DBBA;}
	.st36{fill:#E5C59A;}
	.st37{fill:#EAC38F;}
	.st38{fill:#F75C76;}
	.st39{fill:#8C412D;}
	.st40{fill:#CC1B56;}
	.st41{fill:#E5255C;}
	.st42{fill:#A5482B;}
	.st43{fill:#492E36;}
	.st44{fill:#F9EBD7;}
	.st45{fill:#DBB589;}
	.st46{fill:#A57E6A;}
	.st47{fill:#874630;}
	.st48{fill:#6B4C47;}
	.st49{fill:#563936;}
	.st50{fill:#E8C79C;}
	.st51{fill:#F4D6B3;}
	.st52{fill:#5B3737;}
	.st53{fill:#EAC89B;}
	.st54{opacity:0.7;fill:#F75C76;enable-background:new    ;}
	.st55{fill:#492A2A;}
	.st56{fill:#442727;}
	.st57{fill:#E0BF94;}
	.st58{fill:#D1A979;}
	.st59{fill:#422931;}
	.st60{fill:#FFEFDC;}
	.st61{fill:#663429;}
	.st62{fill:#FFA33E;}
	.st63{fill:#FF8A33;}
	.st64{fill:#D8B182;}
	.st65{fill:#FFF1DC;}
	.st66{fill:#443036;}
	.st67{fill:#D8BE98;}
	.st68{fill:#E2376C;}
	.st69{fill:#EF507A;}
	.st70{fill:#513A40;}
	.st71{fill:#66343C;}
	.st72{fill:#894754;}
	.st73{fill:#FFA131;}
	.st74{fill:#EFDCBB;}
	.st75{fill:#F9AC3D;}
	.st76{fill:#E0C6A0;}
	.st77{fill:#EFCFA5;}
	.st78{fill:#6B4752;}
	.st79{fill:#5B3945;}
	.st80{fill:#724789;}
	.st81{fill:#54306B;}
	.st82{fill:#D1B38B;}
	.st83{fill:#C6A379;}
	.st84{fill:#E03B5F;}
	.st85{fill:#DDBB92;}
	.st86{fill:#F4D7B5;}
	.st87{fill:#EACEA7;}
	.st88{fill:#593C39;}
	.st89{fill:#377999;}
	.st90{fill:#563C43;}
	.st91{fill:#72505B;}
	.st92{fill:#F98B38;}
	.st93{fill:#3A222B;}
	.st94{fill:#59373E;}
	.st95{fill:#724A50;}
	.st96{fill:#FFF7E6;}
	.st97{fill:#873725;}
	.st98{fill:#51383F;}
	.st99{fill:#FFF1B8;}
	.st100{fill:#F9DBA5;}
</style>
<g class="st0">
	<path class="st1" d="M2006.9,252.1L2006.9,252.1c-3.9,1.1-7.5-2.1-6.7-6c3.6-18.2,11.6-60,10.1-67.8l7.6,2.6
		C2017.9,180.9,2020.7,212.1,2006.9,252.1z"/>
	<path class="st1" d="M1948.7,165.9c0,0-14.7,28.8-8,74.3l59.7,4.4c16.7-24.5,18.3-71.2,18.3-71.2
		C1996.4,154.1,1948.7,165.9,1948.7,165.9z"/>
	<g>
		<polygon class="st2" points="3505.9,560.5 3489.5,560.5 3482.7,603.9 3499.1,603.9 		"/>
		<path class="st2" d="M3468.1,602.7c-1.5,10.9,6.8,19.7,18.5,19.7s22.3-8.8,23.8-19.7s-6.8-19.7-18.5-19.7
			S3469.6,591.8,3468.1,602.7z"/>
		<path class="st2" d="M3480.5,551.4c-0.6,10.9,8.4,19.7,20.1,19.7c11.7,0,21.6-8.8,22.2-19.7c0.6-10.9-8.4-19.7-20.1-19.7
			S3481.1,540.5,3480.5,551.4z"/>
		<path class="st3" d="M3595.2,440.4c7.2-119.7-19.9-135.7-84.4-135.7s-99.2,16-106.5,135.7c-7.2,119.7,19.9,135.7,84.4,135.7
			C3553.2,576.1,3588,560.1,3595.2,440.4z"/>
		<g>
			<path class="st4" d="M3375.1,765.2h-7.7c0-71.3,21.6-143.2,69.7-143.2v7.2C3394.5,629.1,3375.1,699.7,3375.1,765.2z"/>
		</g>
		<g>
			<path class="st4" d="M3583.3,765.2h7.7c0-71.3-21.6-143.2-69.7-143.2v7.2C3563.9,629.1,3583.3,699.7,3583.3,765.2z"/>
		</g>
		<path class="st4" d="M3467.1,617.8v12.7c19.9,28.6,29.2,83.1,29.2,134.8h7.7C3504,705.5,3492.3,645.5,3467.1,617.8z"/>
		<path class="st4" d="M3544.5,607.4h-135.7c-7.2,0-13.1,5.5-13.1,12.2l0,0c0,6.7,5.9,12.2,13.1,12.2h135.7
			c7.2,0,13.1-5.5,13.1-12.2l0,0C3557.6,612.9,3551.7,607.4,3544.5,607.4z"/>
		<path class="st3" d="M3558.6,599.6h-163.9c-7.2,0-13.1,5.5-13.1,12.2l0,0c0,6.7,5.9,12.2,13.1,12.2h163.9
			c7.2,0,13.1-5.5,13.1-12.2l0,0C3571.7,605.1,3565.8,599.6,3558.6,599.6z"/>
		<path class="st4" d="M3384.5,776.6c0-7.6-6.6-13.7-14.8-13.7c-8.1,0-14.8,6.1-14.8,13.7s6.6,13.7,14.8,13.7
			C3377.9,790.4,3384.5,784.2,3384.5,776.6z"/>
		<path class="st4" d="M3513.8,776.6c0-7.6-6.6-13.7-14.8-13.7c-8.1,0-14.8,6.1-14.8,13.7s6.6,13.7,14.8,13.7
			C3507.2,790.4,3513.8,784.2,3513.8,776.6z"/>
		<path class="st4" d="M3601.8,776.6c0-7.6-6.6-13.7-14.8-13.7c-8.1,0-14.8,6.1-14.8,13.7s6.6,13.7,14.8,13.7
			C3595.2,790.4,3601.8,784.2,3601.8,776.6z"/>
		<path class="st5" d="M3572.9,440.4c7.2-119.7-19.9-135.7-84.4-135.7s-99.2,16-106.5,135.7c-7.2,119.7,19.9,135.7,84.4,135.7
			S3565.7,560.1,3572.9,440.4z"/>
		<path class="st3" d="M3572.3,449.5c-19.7-77.5-77.8-133.1-138.5-136.1c-29.8,13.7-46.8,47.4-51.7,127
			c-7.2,119.7,19.9,135.7,84.4,135.7C3529.3,576.1,3563.8,560.9,3572.3,449.5z"/>
		<path class="st6" d="M3510,776.6c0-5.6-4.9-10.2-11-10.2s-11,4.6-11,10.2c0,5.6,4.9,10.2,11,10.2
			C3505.1,786.9,3510,782.3,3510,776.6z"/>
		<path class="st6" d="M3380.7,776.6c0-5.6-4.9-10.2-11-10.2s-11,4.6-11,10.2c0,5.6,4.9,10.2,11,10.2S3380.7,782.3,3380.7,776.6z"/>
		<path class="st6" d="M3598.1,776.6c0-5.6-4.9-10.2-11-10.2s-11,4.6-11,10.2c0,5.6,4.9,10.2,11,10.2
			C3593.1,786.9,3598.1,782.3,3598.1,776.6z"/>
	</g>
	<g>
		<path class="st7" d="M3313.2,317.6c-35.7,29.9-68.7,119.6-68.7,119.6L3142.9,453l4.6,29.4H3290c0,0,30.7-11.7,51.8-45.6
			C3351.9,420.3,3313.2,317.6,3313.2,317.6z"/>
		<path class="st8" d="M3310.9,357.5c-8.5,30.9,5.4,74.7-46.4,96.8c-29.6,12.6-93.7,13.9-119.2,14.3l2.2,13.8H3290
			c0,0,30.7-11.7,51.8-45.6C3347.5,427.4,3320.8,387.1,3310.9,357.5z"/>
		<path class="st7" d="M3528.2,609.6c48.1-66.2-18.1-256.2-66.2-290.4c-48.1-34.2-104.3-37.2-104.3-37.2s-50.3,27.3-56.8,60
			s32.4,206.2,32.4,206.2L3528.2,609.6z"/>
		<path class="st8" d="M3358.5,279.2c0,0,30,4.4,65.5,19.1c-8.4,8.6-32.4,24-56.5,26.8c-20.9,2.4-40.5-2.9-51.4-10.4
			C3334.9,293.2,3358.5,279.2,3358.5,279.2z"/>
		<path class="st8" d="M3395.1,376.9c11.8-28.8,44.8-52.9,70.3-51.4c48.1,34.2,119.8,212.1,62.8,284.1l-195-61.4
			c0,0-11.3-56.8-24.2-105.3C3324.8,465.6,3364.7,451.2,3395.1,376.9z"/>
		<path class="st9" d="M3283.6,623.3h96.7c17,0,103.8-70.4,103.2-85.9c-0.9-25.1-69.3-21-124.4-21c-33,0-73.8,14.6-112.6,32.7
			c-19.5,9.1-31,28.1-32.6,46.6l-16,189.6h4.1L3283.6,623.3z"/>
		<path class="st10" d="M3264.6,541c33.1-14.2,66.6-24.6,94.4-24.6c24.7,0,53.3-2.4,77.3-2.9C3454.1,531.4,3347.3,554.8,3264.6,541z
			"/>
		<path class="st9" d="M3409,620.4h102c16.8,0,31.8-22.2,27.6-38c-6.8-25.5-23.7-52.6-52.2-65.7c-32.1-14.8-88.4,10.5-122.3,28.9
			c-17.1,9.3-26.4,27.9-23.5,46.7l29.3,192.8l3,2.9L3409,620.4z"/>
		<path class="st10" d="M3439.7,574c-38.3,0-71.3-8.1-86.8-19.8c3.2-3.3,60.2-60.8,133.5-37.5c18.8,6,31.1,21.9,40.2,37.3
			C3511.3,565.8,3478.1,574,3439.7,574z"/>
		<path class="st11" d="M3348.7,312.1c-0.4,52.8,30.6,181.1,40.6,195.1l-3.5,16.8l-12.7-12.6c-20.1-66.2-28.5-132.7-27.7-199.3
			L3348.7,312.1L3348.7,312.1z"/>
		<path class="st7" d="M3442.7,308.1c-34.2,14-61.6,122.8-61.6,122.8L3278.3,458l0.5,24.4h150.9c0,0,46.8-30,60.6-66.9
			C3519.6,336.9,3442.7,308.1,3442.7,308.1z"/>
		<path class="st12" d="M3388.1,287.7l-16.9-31l-41.4,20.7l7.2,27.7C3337,305.2,3365.3,317.5,3388.1,287.7z"/>
		<polygon class="st11" points="3346.2,315.4 3354.8,308.4 3345.7,301.3 3339.7,308 		"/>
		<path class="st7" d="M3339.7,312.8l6.4-11.4c-5.3-0.7-9.4-4.9-13-10.4l-0.6,9.3C3333,305.8,3335.6,309.8,3339.7,312.8z"/>
		<path class="st13" d="M3363.8,210.6c10.6,23.1,7.6,70.8,1.2,77.1c-6.4,6.3-32,13.6-43.2,7.4c-11-6.1-24-57-16.3-83.8
			C3312.4,187.1,3360.6,203.7,3363.8,210.6z"/>
		<g>
			<path class="st14" d="M3337.7,244.9c-0.6-2.4,0.3-4.7,1.9-5c1.6-0.3,3.4,1.4,3.9,3.8c0.6,2.4-0.3,4.7-1.9,5
				C3340.1,249,3338.3,247.3,3337.7,244.9z"/>
			<path class="st15" d="M3336.4,231.9l10.7-0.9c0.9-0.1,1.7,0.5,1.7,1.3l0.2,3c0.1,0.8-0.6,1.5-1.5,1.6l-10.7,0.9
				c-0.9,0.1-1.7-0.5-1.7-1.3l-0.2-3C3334.8,232.7,3335.5,232,3336.4,231.9z"/>
			<path class="st14" d="M3312.5,247.8c-0.6-2.4,0.3-4.7,1.9-5c1.6-0.3,3.4,1.4,3.9,3.8c0.6,2.4-0.3,4.7-1.9,5
				C3314.8,251.9,3313.1,250.2,3312.5,247.8z"/>
			<path class="st15" d="M3305.8,236.5l10.4-2.3c0.9-0.2,1.7,0.3,1.9,1.1l0.7,2.9c0.2,0.8-0.3,1.6-1.2,1.8l-10.4,2.3
				c-0.9,0.2-1.7-0.3-1.9-1.1l-0.7-2.9C3304.3,237.5,3304.9,236.7,3305.8,236.5z"/>
			<path class="st12" d="M3327.2,245c-1.6,8.7-1.8,14.1,0.9,15.7c1.7,1,3.9,0.4,5.6-0.4l0.1,0.2c0,0-5,3.7-8,2.2
				C3322.9,261.3,3324.1,255.1,3327.2,245z"/>
			<polygon class="st16" points="3322.3,274.8 3322.1,273.4 3344.3,270.1 3344.5,271.5 			"/>
			<path class="st16" d="M3327.9,277.3c-0.1-0.7,2.2-0.8,5.2-1.2c3.1-0.4,5.8-1.1,5.9-0.4c0.1,0.7-1.9,2.2-5,2.6
				C3331,278.8,3328,278.1,3327.9,277.3z"/>
		</g>
		<path class="st13" d="M3316.4,481.1h-90.8c0,0,25.3-23.3,56.8-24.4C3319.1,455.3,3316.4,481.1,3316.4,481.1z"/>
		<path class="st7" d="M3392.4,286.7l-9.8-8.5c0,0-15.6,18.1-37,23.1l12,12.8C3357.7,314.1,3385.6,303.3,3392.4,286.7z"/>
		<path class="st17" d="M3374.5,792.8h-26.4c0,0,18.7-10.7,22.8-9.4C3375,784.6,3374.5,792.8,3374.5,792.8z"/>
		<path class="st17" d="M3203,792.8h-26.4c0,0,18.7-10.7,22.8-9.4C3203.6,784.6,3203,792.8,3203,792.8z"/>
		<path class="st15" d="M3356.8,254.8l14.4,1.9l4.9,9.4c0,0,3.5-50.2-7.1-63.2c-16.6-20.3-72.3-14.8-64.1,8.9
			c20.1,3.6,26.6-13.7,40.5-2.7C3357.5,218.7,3356.8,254.8,3356.8,254.8z"/>
		<ellipse class="st13" cx="3368.9" cy="248.1" rx="5.5" ry="10.5"/>
		<path class="st12" d="M3365.8,247.5c0-3.7,1.6-6.7,3.5-6.7s3.5,3,3.5,6.7s-1.6,6.7-3.5,6.7
			C3367.3,254.2,3365.8,251.2,3365.8,247.5z"/>
		<path class="st13" d="M3366,250.1c0-2.4,1-4.4,2.3-4.4s2.3,2,2.3,4.4s-1,4.4-2.3,4.4S3366,252.6,3366,250.1z"/>
	</g>
	<g>
		<polygon class="st2" points="2751.6,560.5 2768,560.5 2774.8,603.9 2758.4,603.9 		"/>
		<path class="st2" d="M2789.4,602.7c1.5,10.9-6.8,19.7-18.5,19.7s-22.3-8.8-23.8-19.7s6.8-19.7,18.5-19.7
			S2787.9,591.8,2789.4,602.7z"/>
		<path class="st2" d="M2777,551.4c0.6,10.9-8.4,19.7-20.1,19.7c-11.7,0-21.6-8.8-22.2-19.7c-0.6-10.9,8.4-19.7,20.1-19.7
			C2766.5,531.7,2776.4,540.5,2777,551.4z"/>
		<path class="st3" d="M2662.3,440.4c-7.2-119.7,19.9-135.7,84.4-135.7s99.2,16,106.5,135.7c7.2,119.7-19.9,135.7-84.4,135.7
			S2669.5,560.1,2662.3,440.4z"/>
		<g>
			<path class="st4" d="M2882.4,765.2h7.7c0-71.3-21.6-143.2-69.7-143.2v7.2C2863,629.1,2882.4,699.7,2882.4,765.2z"/>
		</g>
		<g>
			<path class="st4" d="M2674.2,765.2h-7.7c0-71.3,21.6-143.2,69.7-143.2v7.2C2693.6,629.1,2674.2,699.7,2674.2,765.2z"/>
		</g>
		<path class="st4" d="M2790.4,617.8v12.7c-19.9,28.6-29.2,83.1-29.2,134.8h-7.7C2753.5,705.5,2765.1,645.5,2790.4,617.8z"/>
		<path class="st4" d="M2713,607.4h135.7c7.2,0,13.1,5.5,13.1,12.2l0,0c0,6.7-5.9,12.2-13.1,12.2H2713c-7.2,0-13.1-5.5-13.1-12.2
			l0,0C2699.9,612.9,2705.8,607.4,2713,607.4z"/>
		<path class="st3" d="M2698.9,599.6h163.9c7.2,0,13.1,5.5,13.1,12.2l0,0c0,6.7-5.9,12.2-13.1,12.2h-163.9
			c-7.2,0-13.1-5.5-13.1-12.2l0,0C2685.8,605.1,2691.7,599.6,2698.9,599.6z"/>
		<ellipse class="st4" cx="2887.7" cy="776.6" rx="14.8" ry="13.7"/>
		<path class="st4" d="M2743.7,776.6c0-7.6,6.6-13.7,14.8-13.7s14.8,6.1,14.8,13.7s-6.6,13.7-14.8,13.7S2743.7,784.2,2743.7,776.6z"
			/>
		<path class="st4" d="M2655.6,776.6c0-7.6,6.6-13.7,14.8-13.7c8.1,0,14.8,6.1,14.8,13.7s-6.6,13.7-14.8,13.7
			C2662.3,790.4,2655.6,784.2,2655.6,776.6z"/>
		<path class="st5" d="M2696.4,457.1c29.7-180.4,120.2-128.5,137.8-110.3c-17.5-35.5-46.5-42-87.5-42c-64.5,0-91.6,16-84.4,135.7
			c3.7,60.8,14.5,94.8,32.6,113.6C2684.9,533.7,2689.3,500.2,2696.4,457.1z"/>
		<path class="st6" d="M2747.4,776.6c0-5.7,5-10.3,11.1-10.3s11.1,4.6,11.1,10.3s-5,10.3-11.1,10.3
			C2752.3,786.9,2747.4,782.3,2747.4,776.6z"/>
		<path class="st6" d="M2876.7,776.6c0-5.7,5-10.3,11.1-10.3s11.1,4.6,11.1,10.3s-5,10.3-11.1,10.3
			C2881.6,786.9,2876.7,782.3,2876.7,776.6z"/>
		<path class="st6" d="M2659.3,776.6c0-5.7,5-10.3,11.1-10.3s11.1,4.6,11.1,10.3s-5,10.3-11.1,10.3
			C2664.3,786.9,2659.3,782.3,2659.3,776.6z"/>
	</g>
	<path class="st18" d="M2829.5,316c-9.4,5.7-5.8,91.2,24.7,146l24.4-20.8C2859.2,417.7,2838.9,310.3,2829.5,316z"/>
	<path class="st19" d="M2827.2,359.5l-65.7-6.8c0,0,3.1,31.4-1.3,45c-4.4,13.6-67.2,140.3-30.5,187.9l115.7-41.7
		C2800.1,514.9,2804.6,453.3,2827.2,359.5z"/>
	<path class="st18" d="M2763.7,527.8c-13.4-42.6-2.2-83.1,25.1-90.6c7.5-2.1,15.5-1.4,23.4,1.5c2.5-23.2,7.8-49.6,15-79.3l-65.7-6.8
		c0,0,3.1,31.4-1.3,45c-4.4,13.6-67.2,140.3-30.5,187.9l54-19.5C2775.4,555.6,2768.4,542.6,2763.7,527.8z"/>
	<path class="st19" d="M2762,311.4c-2,16.5,2.4,99.5,9.2,105.5c6.9,6,81.9,5.9,84.4,0.8c2.5-5-19.4-96.3-24.8-102.2
		C2825.4,309.6,2762.9,304.1,2762,311.4z"/>
	<path class="st18" d="M2786.4,412.8c-6.9-5.9-19-99.3-23.8-94.3c-17.1,17.9-1.1,95.5,5.8,101.5c6.9,6,84.8,2.8,87.2-2.2
		c0,0,0-0.2,0.1-0.2C2831.9,420.1,2791.4,417.1,2786.4,412.8z"/>
	<polygon class="st20" points="3312.2,489.1 3336.8,489.1 3336.8,784.9 3327.9,784.9 	"/>
	<path class="st21" d="M2891.2,603.3h-119.9c-35.2,0-56.3-22.3-51.5-47.2c3.2-16.5,11.7-31.9,31.6-35.7
		C2798.5,511.3,2949.8,534.3,2891.2,603.3z"/>
	<path class="st22" d="M2751.5,520.3c-5.9,1.1,24.5,21.1,53.1,24.8c32.6,4.2,61.8,2.7,77.2-2.9
		C2846.5,521.1,2779.9,514.9,2751.5,520.3z"/>
	<g>
		<polygon class="st2" points="1914.3,560.5 1930.7,560.5 1937.5,603.9 1921.1,603.9 		"/>
		<path class="st2" d="M1952.1,602.7c1.5,10.9-6.8,19.7-18.5,19.7s-22.3-8.8-23.8-19.7s6.8-19.7,18.5-19.7
			S1950.6,591.8,1952.1,602.7z"/>
		<path class="st2" d="M1939.7,551.4c0.6,10.9-8.4,19.7-20.1,19.7s-21.6-8.8-22.2-19.7s8.4-19.7,20.1-19.7
			S1939.1,540.5,1939.7,551.4z"/>
		<path class="st3" d="M1825,440.4c-7.2-119.7,19.9-135.7,84.4-135.7s99.2,16,106.5,135.7c7.2,119.7-19.9,135.7-84.4,135.7
			S1832.2,560.1,1825,440.4z"/>
		<g>
			<path class="st4" d="M2045.1,765.2h7.7c0-71.3-21.6-143.2-69.7-143.2v7.2C2025.7,629.1,2045.1,699.7,2045.1,765.2z"/>
		</g>
		<g>
			<path class="st4" d="M1836.9,765.2h-7.7c0-71.3,21.6-143.2,69.7-143.2v7.2C1856.3,629.1,1836.9,699.7,1836.9,765.2z"/>
		</g>
		<path class="st4" d="M1953.1,617.8v12.7c-19.9,28.6-29.2,83.1-29.2,134.8h-7.7C1916.2,705.5,1927.8,645.5,1953.1,617.8z"/>
		<path class="st4" d="M1875.7,607.4h135.7c7.2,0,13.1,5.5,13.1,12.2l0,0c0,6.7-5.9,12.2-13.1,12.2h-135.7
			c-7.2,0-13.1-5.5-13.1-12.2l0,0C1862.6,612.9,1868.5,607.4,1875.7,607.4z"/>
		<path class="st3" d="M1861.6,599.6h163.9c7.2,0,13.1,5.5,13.1,12.2l0,0c0,6.7-5.9,12.2-13.1,12.2h-163.9
			c-7.2,0-13.1-5.5-13.1-12.2l0,0C1848.5,605.1,1854.4,599.6,1861.6,599.6z"/>
		<path class="st4" d="M2035.7,776.6c0-7.6,6.6-13.7,14.8-13.7c8.1,0,14.8,6.1,14.8,13.7s-6.6,13.7-14.8,13.7
			C2042.3,790.4,2035.7,784.2,2035.7,776.6z"/>
		<path class="st4" d="M1906.4,776.6c0-7.6,6.6-13.7,14.8-13.7s14.8,6.1,14.8,13.7s-6.6,13.7-14.8,13.7S1906.4,784.2,1906.4,776.6z"
			/>
		<ellipse class="st4" cx="1833.1" cy="776.6" rx="14.8" ry="13.7"/>
		<ellipse class="st23" cx="2050.4" cy="776.6" rx="10.2" ry="9.5"/>
		<ellipse class="st23" cx="1921.1" cy="776.6" rx="10.2" ry="9.5"/>
		<ellipse class="st23" cx="1833.1" cy="776.6" rx="10.2" ry="9.5"/>
	</g>
	<path class="st24" d="M2138.6,456.1c-2.2-79.7-81.5-153.7-123.5-176.5c-39.1-21.3,16.8,175.4,16.8,175.4L2138.6,456.1z"/>
	<path class="st25" d="M2103.3,454.2c-1.5-52.3-53.5-100.8-81-115.8c-25.7-14,11,115,11,115L2103.3,454.2z"/>
	<path class="st24" d="M2044.9,306.6c-13.8-17.7-57.4-51-77.7-49.1c-20.3,1.8-91.1,20.8-99.7,29.9c-8.5,9.2-50.5,116-30.8,283.3
		l211.1-25.6C2047.8,545,2058.7,324.3,2044.9,306.6z"/>
	<path class="st23" d="M1966.1,291.4c17.8,0,32.4-11.6,38.8-19.1c-14-9.1-29.4-18.5-38.8-17.7c-9.9,0.9-31.5,6.9-51.4,14.6
		C1924.4,277.5,1945.6,291.4,1966.1,291.4z"/>
	<path class="st25" d="M2046.8,381.7c0,81.9-18.2,73.7-72.3,73.7s-83.8-54.2-87.3-105.7c-1.1-15.3-31.7-29.1-28.9-43
		c-14.5,39-36.9,132.9-21.5,263.9l211.1-25.6c0,0,6.8-101.9,5.6-172.8C2053,341.1,2046.8,366.8,2046.8,381.7z"/>
	<path class="st26" d="M2047.5,519c22.6,5.2,54.2,27.4,52.4,57.9c0,0-12.5,32.4-37.1,32.4h-187c-17.7,0-50.2-12.6-55.2-32.4
		c-5.4-21.3,16.9-51,32.1-54.2C1950.1,501.9,2003,508.7,2047.5,519z"/>
	<path class="st19" d="M1961.4,579.9c54.7,0,101.6-26.7,123.1-39.8c-10.7-10.9-25-18.3-36.9-21.1c-44.6-10.3-97.4-17.2-194.7,3.7
		c-6.1,1.3-13.3,6.9-19.4,14.4C1852.2,551.7,1902.6,579.9,1961.4,579.9z"/>
	<path class="st26" d="M1968.8,785.8h-3.2c0,0-122-146.1-144-203.8c-16.8-44,69.4-76.6,93.5-20
		C1937.7,615.2,1941,637.6,1968.8,785.8z"/>
	<path class="st19" d="M1914.3,559.9c-8.9-20.1-33.2-32.5-50-33.6c-12-0.8-22.2,2.6-29.8,9.4c-7.8,6.9-7.5,18.5,0.7,25l0.1,0.1
		c35.2,28.1,73.7,41.1,92.8,32.8C1924.1,582.7,1919.7,572.1,1914.3,559.9z"/>
	<path class="st26" d="M1998.6,785.8h3.3c0,0,76.4-130.4,96.1-204.5c10.8-40.6-41.5-67-76.1-27.4
		C1999.7,579.5,1990.4,633.1,1998.6,785.8z"/>
	<path class="st19" d="M2019.1,553.8c-8.2,10.3-14,24.8-17.2,47.6c13.8,1.5,30-1.4,45.5-9.1c23.3-11.6,51-33.5,40.5-48.4
		C2073.3,523,2040.3,527,2019.1,553.8z"/>
	<path class="st24" d="M1787.2,484.2c-11.1-90.4,42-181.3,82-198.4s11.8,139.8,11.8,139.8L1787.2,484.2z"/>
	<path class="st25" d="M1879.3,367.5c-24.5,43-60.9,69.6-81.9,60c-3.2-1.5-5.9-3.7-8-6.6c-3.8,20.7-4.9,42.1-2.2,63.3l95.1-57
		c0,0,10.7-52,12.1-93.7C1890.9,344.5,1885.8,356,1879.3,367.5z"/>
	<path class="st23" d="M1777.6,482.9c3.6-43.6,39.7-78.4,72.6-76.3c33,2.1,56.1,27.4,56.1,27.4l-82,51L1777.6,482.9z"/>
	<path class="st27" d="M1894.1,423.4c-11.6,6.6-30.9,10.9-52.8,10.9c-15,0-28.7-2-39.7-5.4c-13,13.8-22.3,32.9-24.1,54l46.8,2.1
		l82-51C1906.4,434,1901.9,429.1,1894.1,423.4z"/>
	<path class="st23" d="M2145.5,481.8c15.3-43.5-6.2-81-41.1-78.3c-34.5,2.6-66.2,30-66.2,30l61.9,50.3L2145.5,481.8z"/>
	<path class="st27" d="M2053.7,422.2c9.3,6.9,27,11.3,48.8,11.2c15-0.1,29.7-2.3,42.2-6c7,14.4,8.1,33.8,0.8,54.4l-45.5,2
		l-61.9-50.3C2038.2,433.4,2044.1,428.3,2053.7,422.2z"/>
	<path class="st28" d="M1870.5,412.2c-29.5-1.8-62.6,18.3-79.3,70.5l183.9,2.7l4.9-16.5C1980,469,1900,414.1,1870.5,412.2z"/>
	<path class="st13" d="M1980,469c0,0-80-54.9-109.5-56.7c-16.7-1-34.4,4.9-49.8,19.7c7.4,18.4,53.5,37.6,103.8,44.1
		c20.2,2.6,38.4,2.9,53,1.1L1980,469z"/>
	<path class="st28" d="M2090.2,412.2c10.9-0.7,22.2,1.6,33.1,7.4c32.3,17.3,19.2,63.4-18.1,64l-119.6,1.8l-4.9-16.5
		C1980.7,469,2060.7,414.1,2090.2,412.2z"/>
	<path class="st13" d="M2123.3,419.7c-10.9-5.8-22.2-8.1-33.1-7.4c-13.3,0.8-36.8,12.4-58.7,24.9c-0.7,2.2-0.8,4.4-0.2,6.5
		c4,12.9,33.6,16.3,66.3,7.6c16.5-4.4,30.5-11,39.9-18.1C2134.6,427.9,2129.9,423.2,2123.3,419.7z"/>
	<path class="st29" d="M1906.7,376.1H2078c5.3,0,9.4,4.3,8.7,9.2l-12.6,89c-0.6,4.1-4.3,7.1-8.7,7.1h-171.3c-5.3,0-9.4-4.3-8.7-9.2
		l12.6-89C1898.6,379.2,1902.3,376.1,1906.7,376.1z"/>
	<path class="st23" d="M1909.1,382.1h166.1c5.1,0,9.1,4.3,8.4,9.1l-12.2,87.3c-0.6,4-4.2,7-8.4,7h-166.1c-5.1,0-9.1-4.3-8.4-9.1
		l12.2-87.3C1901.3,385.1,1904.9,382.1,1909.1,382.1z"/>
	<path class="st30" d="M1978.3,382.1h80.2c2.5,0,2,4.3-1.1,9.1l-55.4,87.3c-2.5,4-6,7-8,7h-80.2c-2.5,0-2-4.3,1.1-9.1l55.4-87.3
		C1972.8,385.1,1976.2,382.1,1978.3,382.1z"/>
	<path class="st30" d="M2347.9,335.9h-160.5c-9.9,0-17.4,8.3-15.7,17.4l24.3,130.4h192.8l-25.2-135.5
		C2362.3,341.1,2355.7,335.9,2347.9,335.9z"/>
	<path class="st31" d="M2351.9,335.9h-160.5c-9.9,0-17.4,8.3-15.7,17.4l24.3,130.4h192.8l-25.2-135.5
		C2366.3,341.1,2359.7,335.9,2351.9,335.9z"/>
	<polygon class="st30" points="2423.9,467.7 2194.6,467.7 2196.1,478.4 2425.4,478.4 	"/>
	<path class="st19" d="M2192.2,344.8c0,0.1,0,0.2,0,0.3l20.7,111.2h164.4l-20.7-111.5H2192.2z"/>
	<path class="st32" d="M2195.5,346.8c0,0.1,0,0.2,0,0.3l20,107.2H2374l-20-107.5H2195.5z"/>
	<path class="st33" d="M2230.7,365c0,0.1,0,0.1,0,0.2l12.5,67.1h99.1l-12.5-67.2h-99.1V365z"/>
	<path class="st28" d="M2310.3,479.9h-81.8c-25.6-8.2,3-52.8,46-67.5c45.4-15.5,51.9,29.1,52.1,54.1
		C2326.5,474,2319.2,479.9,2310.3,479.9z"/>
	<path class="st13" d="M2266.5,428.7c29.6-7.5,46.9-0.9,56.8,10.8c-5.1-20.1-17.9-37.6-49-27c-18.7,6.4-34.6,18.4-44.6,30.6
		C2240.5,437.2,2253,432.1,2266.5,428.7z"/>
	<path class="st16" d="M1950.3,214.9l-20.9,49.1c19.3,24.6,53.9,27.7,64.9,2.5l2.4-29.6L1950.3,214.9z"/>
	<path class="st13" d="M1999.1,269.2c15.8-34.5,15.6-79.6,6.4-87.4c-9.2-7.9-36.6-11-46.2,1.1s-13.4,71.3-13.7,77.2
		C1945.1,272.8,1989.8,289.6,1999.1,269.2z"/>
	<path class="st1" d="M1945.3,247L1945.3,247c3.5,2,8-0.2,8.4-4c1.7-17.7,5.9-58.3,9.7-65.2l-8.3,0.7
		C1955.2,178.4,1943.3,206.7,1945.3,247z"/>
	<path class="st13" d="M2387.3,283.9c-14.2-32.6-13.1-77.2-3.7-85.2c9.4-8,36.7-12.2,45.7-0.9c8.9,11.3,17.3,70.6,17.3,76.2
		C2446.6,286.2,2395.7,303.2,2387.3,283.9z"/>
	<path class="st28" d="M2387.4,284c8.6,19,59.2,2.2,59.2-10c0-2.6-1.8-16.6-4.6-32.1c-4.4-2-8,14.3-12.9,14.3
		C2408.1,256.2,2389.8,258.6,2387.4,284z"/>
	<path class="st16" d="M2408.6,238.2c-17.7,11-6.4,52.2-6.4,52.2l57-3.7C2442.5,248.7,2426.3,227.2,2408.6,238.2z"/>
	<path class="st30" d="M2455.7,277.8c-21.7-11.6-55,4.1-55,4.1l-3.6,14.7l68-5.3L2455.7,277.8z"/>
	<polygon class="st20" points="3392.8,489.1 3417.4,489.1 3417.4,784.9 3408.6,784.9 	"/>
	<polygon class="st20" points="1694.7,489.1 1670.1,489.1 1670.1,784.9 1678.9,784.9 	"/>
	<polygon class="st20" points="1775.3,489.1 1750.7,489.1 1750.7,784.9 1759.6,784.9 	"/>
	<path class="st19" d="M2762.7,310.8c-10.3,4.6-30.1,88.9-5.8,147.5l26.9-14.3C2764.4,413.7,2773.1,306.2,2762.7,310.8z"/>
	<path class="st18" d="M2751,381c-1.2-18.8,2.1-40.5,3.4-54.6c-9,27.9-16,87.3,2.5,131.9l11.8-6.3
		C2761.9,438.8,2753.1,414.5,2751,381z"/>
	<path class="st34" d="M2789,448.2c0-8.5-9.1-15.5-20.4-15.5c-11.3,0-20.4,6.9-20.4,15.5s9.1,15.5,20.4,15.5
		C2779.9,463.6,2789,456.7,2789,448.2z"/>
	<path class="st13" d="M2865.7,477.8c-37.4-0.6-95.2-8.4-107.7-18.7c-9.3-7.6,4.4-28.7,29-14.6c15.4,8.9,67.1,24.9,79.3,28.1
		C2872.3,474.1,2865.7,477.8,2865.7,477.8z"/>
	<path class="st28" d="M2866.4,472.6c-4.7-1.2-15.3-4.4-27.3-8.2c-9.2,0.8-20.5,0.3-32.5-1.6c-22.5-3.7-40.7-11.4-46.7-19.1
		c-5.4,4.5-6.5,11.6-1.8,15.4c12.5,10.3,70.3,18.1,107.7,18.7C2865.7,477.8,2872.3,474.1,2866.4,472.6z"/>
	<rect x="3227.3" y="471.3" class="st35" width="79.3" height="8.3"/>
	<polygon class="st35" points="3044.5,372.6 3198.9,372.6 3245.1,483.6 3090.7,483.6 	"/>
	<polygon class="st36" points="3036.2,372.6 3190.6,372.6 3236.8,483.6 3082.4,483.6 	"/>
	<polygon class="st30" points="3056.9,372.6 3095.8,372.6 3216.1,483.6 3121.6,483.6 	"/>
	<rect x="2765.9" y="473.1" class="st23" width="116.5" height="9.7"/>
	<path class="st23" d="M2870.7,374.3h137.6c6.6,0,11.2,5.9,9,11.6l-37.3,97.7h-157.8l39.5-103.5
		C2863,376.6,2866.6,374.3,2870.7,374.3z"/>
	<path class="st30" d="M2875.9,378.8H3008c6.3,0,10.8,5.7,8.7,11.1l-35.8,93.7h-151.6l37.9-99.2C2868.5,381,2872,378.8,2875.9,378.8
		z"/>
	<polygon class="st35" points="2840,483.6 2915.5,483.6 3001,378.8 2925.4,378.8 	"/>
	<rect x="1608.9" y="478.9" class="st20" width="1836.7" height="19"/>
	<path class="st21" d="M2780.5,782.7h-1.9l15.2-186.2c1-11.9,12.6-23.6,26.2-26.4l0,0c16.1-3.3,27.1,7.3,22.5,21.8L2780.5,782.7z"/>
	<path class="st21" d="M2807.4,782.7h-1.9l43.7-186.2c2.8-11.9,16.2-23.6,30.2-26.4l0,0c16.6-3.3,26,7.3,19.1,21.8L2807.4,782.7z"/>
	<path class="st37" d="M2539.7,785.8h-1.9l-88.5-199l91.8-20.1C2541,566.6,2551.5,641.1,2539.7,785.8z"/>
	<path class="st37" d="M2306.6,785.8h3l83.9-199l-91.4-13.3C2302.1,573.5,2285.8,630.8,2306.6,785.8z"/>
	<path class="st37" d="M2348.7,527c-19.7,4.6-49.2,28.2-47.7,58.1l0,0c1.7,15.9,14,27.9,28.7,27.9h162c31.8,0,55-28.1,49.3-59.5l0,0
		c-2.1-11.5-11.3-20.4-22.5-21.9C2478.3,526.5,2419.8,510.4,2348.7,527z"/>
	<path class="st23" d="M2518.6,531.7c-40.2-5.2-98.8-21.3-169.9-4.7c-12.7,3-29.4,13.9-39.3,29.3c27,3.8,66.3,4.6,109.7,1.4
		c46.8-3.4,88-10.6,113.9-19C2529.1,534.9,2524.1,532.4,2518.6,531.7z"/>
	<path class="st37" d="M2369.4,592c-29.9-34-20.1-68.5-20.1-68.5l54.8,51.5L2369.4,592z"/>
	<path class="st34" d="M2426.3,595.3h68.8c34.1,0,51.5-27,48.9-58.6c-7-87.3-16.8-207.8-43.5-230.6c-37.4-31.9-97-26-115.3-6.4
		c-35.7,37.9,1.7,176-33,219.9C2334.7,541.8,2396.7,595.3,2426.3,595.3z"/>
	<path class="st38" d="M2368.7,360.4c-2.6,55.8,7.2,129.3-16.5,159.2c-2.8,3.5-3.5,7.7-2.8,12.4c2.6,2.7,5.4,4.1,8.3,4.1
		c15.4,0,27.9-41,27.9-91.6C2385.6,406.8,2378.6,374.4,2368.7,360.4z"/>
	<path class="st38" d="M2413,286.1c-12,2.7-21.9,7.5-27.7,13.6c-7,7.4-11.2,18.8-13.6,32.4c8.4-5.7,17.3-10.4,26.6-14
		C2401.2,306.1,2406.3,295.2,2413,286.1z"/>
	
		<ellipse transform="matrix(0.3605 -0.9328 0.9328 0.3605 1068.0018 2431.1323)" class="st19" cx="2307" cy="436.7" rx="41.1" ry="46.1"/>
	<path class="st38" d="M2337.2,464.8c19-12.5,58.7-35.7,68-57.7c11.4-26.9,4.8-118.2-13.7-112.8c-47.8,13.9-112.1,111.3-115.5,116.5
		C2259.6,435.7,2296.6,491.6,2337.2,464.8z"/>
	<path class="st34" d="M2402.8,305.3c-7.5,19.4-23.6,43.3-45.7,66.4c-29.9,31.2-62.8,52.3-84.9,56.2c1.9,26.3,32.3,58.5,65.1,36.9
		c19-12.5,62.9-32.2,72.2-54.2C2418,390.3,2412.1,329.6,2402.8,305.3z"/>
	<path class="st3" d="M2608.5,440.4c21.1-119.7-4.2-135.7-68.7-135.7s-101.1,16-122.1,135.7c-21.1,119.7,4.2,135.7,68.7,135.7
		C2550.8,576.1,2587.4,560.1,2608.5,440.4z"/>
	<path class="st5" d="M2423,461.2c21.1-119.7,57.7-135.7,122.1-135.7c35.4,0,58.9,4.9,69.5,29c-5.4-42.3-31.1-49.8-74.9-49.8
		c-64.5,0-101,16-122.1,135.7c-9.5,54-9.5,86.8-0.8,106.7C2414.3,527.1,2416.3,499.5,2423,461.2z"/>
	<path class="st6" d="M1989.4,790.4h28.5c0,0-10.2-11.3-15.7-11S1989.4,790.4,1989.4,790.4z"/>
	<path class="st6" d="M1975.9,790.4h-28.5c0,0,13.2-11.3,18.6-11S1975.9,790.4,1975.9,790.4z"/>
	<path class="st6" d="M2312.2,790.4h-28.5c0,0,19-11.3,24.3-11C2313.2,779.7,2312.2,790.4,2312.2,790.4z"/>
	<path class="st6" d="M2549.3,790.4h-18c0,0,2.2-11.3,5.8-11C2540.6,779.7,2549.3,790.4,2549.3,790.4z"/>
	<path class="st6" d="M2829.2,790.4h-27c0,0,2.2-12.1,6.8-11.8S2829.2,790.4,2829.2,790.4z"/>
	<path class="st6" d="M2801.1,790.4h-27c0,0,2.2-12.1,6.8-11.8C2785.6,778.9,2801.1,790.4,2801.1,790.4z"/>
	<g>
		<path class="st4" d="M2343.1,765.2h-7.7c0-71.3,21.6-143.2,69.7-143.2v7.2C2362.5,629.1,2343.1,699.7,2343.1,765.2z"/>
	</g>
	<g>
		<path class="st4" d="M2551.4,765.2h7.7c0-71.3-21.6-143.2-69.7-143.2v7.2C2532,629.1,2551.4,699.7,2551.4,765.2z"/>
	</g>
	<path class="st4" d="M2435.2,617.8v12.7c19.9,28.6,29.2,83.1,29.2,134.8h7.7C2472,705.5,2460.4,645.5,2435.2,617.8z"/>
	<path class="st4" d="M2512.5,607.4h-135.7c-7.2,0-13.1,5.5-13.1,12.2l0,0c0,6.7,5.9,12.2,13.1,12.2h135.7c7.2,0,13.1-5.5,13.1-12.2
		l0,0C2525.6,612.9,2519.8,607.4,2512.5,607.4z"/>
	<path class="st3" d="M2526.6,599.6h-163.9c-7.2,0-13.1,5.5-13.1,12.2l0,0c0,6.7,5.9,12.2,13.1,12.2h163.9c7.2,0,13.1-5.5,13.1-12.2
		l0,0C2539.7,605.1,2533.9,599.6,2526.6,599.6z"/>
	<path class="st5" d="M2526.6,599.6h-95.2c-7.2,0-13.1,5.5-13.1,12.2l0,0c0,6.7,5.9,12.2,13.1,12.2h95.2c7.2,0,13.1-5.5,13.1-12.2
		l0,0C2539.7,605.1,2533.9,599.6,2526.6,599.6z"/>
	<polygon class="st4" points="2505.3,560.5 2488.9,560.5 2477.1,603.9 2493.5,603.9 	"/>
	<path class="st4" d="M2462.7,602.7c-2.7,10.9,4.5,19.7,16.2,19.7s23.3-8.8,26.1-19.7c2.7-10.9-4.5-19.7-16.2-19.7
		S2465.4,591.8,2462.7,602.7z"/>
	<path class="st4" d="M2481,551.4c-1.9,10.9,6.1,19.7,17.8,19.7s22.6-8.8,24.5-19.7s-6.1-19.7-17.8-19.7S2482.8,540.5,2481,551.4z"
		/>
	<path class="st4" d="M2352.5,776.6c0-7.6-6.6-13.7-14.8-13.7s-14.8,6.1-14.8,13.7s6.6,13.7,14.8,13.7S2352.5,784.2,2352.5,776.6z"
		/>
	<ellipse class="st4" cx="2467.1" cy="776.6" rx="14.8" ry="13.7"/>
	<path class="st4" d="M2569.9,776.6c0-7.6-6.6-13.7-14.8-13.7s-14.8,6.1-14.8,13.7s6.6,13.7,14.8,13.7S2569.9,784.2,2569.9,776.6z"
		/>
	<path class="st13" d="M1947.5,220.7c-1.5-7.3-5.2-12.9-8.3-12.5s-4.5,6.6-3,13.9c1.5,7.3,5.2,12.9,8.3,12.5
		S1948.9,228,1947.5,220.7z"/>
	<path class="st39" d="M2448,263.7c0,0-27.2-14.2-49.2,2.4c0,0-18.3-18.8-22.4-35.9c-5.3-22.1,2.4-39.7,10.4-44.3
		c11.3-6.5,30.3-13.6,53.2-1.9C2451.9,208.1,2454.1,236.5,2448,263.7z"/>
	<path class="st13" d="M2390.4,241.4c-0.7-6.3-3.1-11.9-5.6-12.9c-2.8-1.1-4.9,3.5-4.5,10.9c0.4,8.1,3.6,15,6.7,14.9
		C2389.7,254.1,2391.2,248.2,2390.4,241.4z"/>
	<path class="st16" d="M1944.1,220.8c-0.9-4.3-3-7.5-4.9-7.3c-1.8,0.2-2.6,3.8-1.7,8.1s3,7.5,4.9,7.3
		C1944.1,228.7,1944.9,225.1,1944.1,220.8z"/>
	<path class="st13" d="M1945,221.8c-0.6-2.7-1.9-4.8-3.1-4.7s-1.7,2.5-1.1,5.2s1.9,4.8,3.1,4.7C1945,226.9,1945.5,224.5,1945,221.8z
		"/>
	<path class="st16" d="M2385,239.6c-0.6-3.8-1.7-6.1-2.5-5.3c-0.9,0.9-1.2,5.2-0.6,9.8c0.7,5.1,2,7.8,2.9,5.9
		C2385.6,248.4,2385.6,243.6,2385,239.6z"/>
	<path class="st13" d="M2384,243.9c-0.4-2.7-1.2-4.3-1.8-3.7s-0.8,3.6-0.4,6.9c0.5,3.6,1.4,5.5,2.1,4.2
		C2384.4,250.2,2384.4,246.8,2384,243.9z"/>
	<path class="st37" d="M2494.8,551.4c-0.9,5.1,2.9,9.3,8.4,9.3s10.7-4.2,11.6-9.3c0.9-5.1-2.9-9.3-8.4-9.3
		S2495.7,546.2,2494.8,551.4z"/>
	<path class="st37" d="M2479.2,604.1c-0.9,5.1,2.9,9.3,8.4,9.3s10.7-4.2,11.6-9.3c0.9-5.1-2.9-9.3-8.4-9.3
		S2480.1,598.9,2479.2,604.1z"/>
	<ellipse class="st23" cx="2467.1" cy="776.6" rx="11.2" ry="10.4"/>
	<ellipse class="st23" cx="2555.1" cy="776.6" rx="11.2" ry="10.4"/>
	<ellipse class="st23" cx="2337.8" cy="776.6" rx="11.2" ry="10.4"/>
	<path class="st40" d="M2791.7,297.7c-34.8-13.6-21-71.2,14.9-82.3s49.6-2.3,54.4,13.9c6.7,22.4,0.6,69.5,0.6,69.5
		S2843.7,318,2791.7,297.7z"/>
	<path class="st18" d="M2800.3,331.7c13.5,0,25.5-4.5,32.8-11.4c-0.9-2.4-1.7-4.1-2.3-4.7c-5.2-6.6-67.8-11.9-68.8-4.1
		c0,0.3-0.1,0.6-0.1,1C2766.8,323.6,2782.1,331.7,2800.3,331.7z"/>
	<path class="st36" d="M2826.1,313.3c-10.4-4-34.2-6.9-49.7-5.6c1.6,10.7,12.4,19.3,25.6,19.3C2812.9,327,2822.3,321.4,2826.1,313.3
		z"/>
	<path class="st16" d="M2805.4,254.1c0,0-14,25.2-22.3,53.8c5.9,16,24.8,18.2,34,3.2c4.8-22,16.5-40.9,16.5-40.9L2805.4,254.1z"/>
	<path class="st13" d="M2847.1,236.2c-10.6-8.4-32-5.5-39.4,6.8c-7,11.7-16.8,47.2,6.2,64.6C2850.1,303.2,2864,249.6,2847.1,236.2z"
		/>
	<path class="st41" d="M2861,229.3c-3.8-12.6-17.1-25.2-33.4-18.5c-40.1-22.1-65.1,46.2-65.1,46.2s-8.6,39,26.2,52.5
		c1.4,0.6,2.9,1,4.3,1.5c-0.6-26.9,28.7-78.1,45.6-74.4c16.9,3.6,27.1,28.6,18.9,61.6c-0.4,1.5-0.8,2.9-1.2,4.3
		c3.4-2.1,5.3-3.7,5.3-3.7S2867.8,251.8,2861,229.3z"/>
	<path class="st21" d="M2811,534.2c15.2,9.1,22.9,18.8,22.9,18.8l29.7-4.4L2811,534.2z"/>
	<g>
		<path class="st14" d="M1974.4,222.5c0.8-2.6,0-5.1-1.7-5.6s-3.7,1.3-4.5,3.9c-0.8,2.6,0,5.1,1.7,5.6S1973.6,225.1,1974.4,222.5z"
			/>
		<path class="st42" d="M1976.6,208.3l-11.6-1.6c-1-0.1-1.9,0.5-2,1.3l-0.4,3.3c-0.1,0.9,0.6,1.7,1.6,1.8l11.6,1.6
			c1,0.1,1.9-0.5,2-1.3l0.4-3.3C1978.3,209.2,1977.6,208.4,1976.6,208.3z"/>
		<path class="st14" d="M2001.9,227.7c0.5-2.7-0.5-5.1-2.2-5.5c-1.7-0.3-3.6,1.6-4.1,4.2c-0.5,2.7,0.5,5.1,2.2,5.5
			C1999.6,232.2,2001.4,230.3,2001.9,227.7z"/>
		<path class="st42" d="M2008.9,215.1l-11.4-2.3c-1-0.2-1.9,0.3-2.1,1.2l-0.7,3.3c-0.2,0.9,0.4,1.7,1.4,1.9l11.4,2.3
			c1,0.2,1.9-0.3,2.1-1.2l0.7-3.3C2010.5,216.1,2009.8,215.3,2008.9,215.1z"/>
		<path class="st16" d="M1986.1,225.6c0.7,7.9,0.3,12.7-2.9,13.6c-2,0.6-4.3-0.4-6.1-1.5l-0.1,0.1c0,0,5.1,4.3,8.5,3.6
			C1988.8,240.7,1988.2,235.1,1986.1,225.6z"/>
		<path class="st16" d="M1980.9,258.6l-9.2-3.5c0,0-1,1.5,3,3.5C1978.6,260.6,1980.9,258.6,1980.9,258.6z"/>
		<path class="st16" d="M1987.8,255.1c2.5,0,3.7-0.5,3.7-0.5L1967,247c0,0-0.6,0.6,1.2,1.9L1987.8,255.1z"/>
	</g>
	<g>
		<g>
			<path class="st14" d="M2823.4,267.1c0.6-2.6,0-4.9-1.3-5.1s-2.8,1.7-3.3,4.3c-0.6,2.6,0,4.9,1.3,5.1
				C2821.3,271.6,2822.8,269.7,2823.4,267.1z"/>
			<path class="st14" d="M2844.7,274.8c1-2.5,0.9-4.8-0.4-5.2c-1.2-0.4-3,1.2-4,3.7s-0.9,4.8,0.4,5.2
				C2841.9,278.9,2843.7,277.3,2844.7,274.8z"/>
			<path class="st41" d="M2828.5,253.2l-9.6-0.1c-1.2,0-2.2,0.9-2.3,2l-0.2,2.2c-0.1,1.1,0.8,2,1.9,2l9.6,0.1c1.2,0,2.2-0.9,2.3-2
				l0.2-2.2C2830.6,254.1,2829.7,253.2,2828.5,253.2z"/>
			<path class="st41" d="M2850.7,263.1l-6.7-3.9c-0.8-0.5-1.9-0.1-2.4,0.9l-1,2c-0.5,1-0.2,2.2,0.6,2.7l6.7,3.9
				c0.8,0.5,1.9,0.1,2.4-0.9l1-2C2851.8,264.8,2851.6,263.6,2850.7,263.1z"/>
		</g>
		<path class="st16" d="M2831.9,274c0,0-0.5,0.3-1.3,0.8c-0.1,4.1-1.2,10.6-6.5,6.9c0,0.2-0.1,0.3-0.2,0.5
			C2832.1,289.7,2832.2,276.8,2831.9,274z"/>
		<path class="st43" d="M2832.1,290.7c-0.2,0.4-0.4,0.9-0.6,1.3c-2.7,4.5-8.4,6.4-12.8,4.2c-4-2-5.5-6.7-3.7-11L2832.1,290.7z"/>
		<path class="st44" d="M2827.8,294.3c0.9-0.6,1.7-1.4,2.2-2.3c0.2-0.3,0.3-0.7,0.4-1l-14.7-4.9c-0.5,1.4-0.6,2.8-0.2,4.1
			L2827.8,294.3z"/>
	</g>
	<path class="st1" d="M2016.3,184.8c-0.2-4.7-11.3-10.7-24.7-13.3s-24.1-0.9-23.9,3.8s11.3,10.7,24.7,13.3
		C2005.8,191.2,2016.5,189.5,2016.3,184.8z"/>
</g>
<g class="st0">
	<path class="st28" d="M1167.8,352.2c-3.1-4.8-23.8-14.5-29.6-11c-5.8,3.5-4.5,22.6-6,40.9l30.5,2.3
		C1164.2,382.1,1170.9,357,1167.8,352.2z"/>
	<rect x="885" y="624.4" class="st45" width="191.6" height="22.4"/>
	<rect x="1064.2" y="510.6" class="st46" width="304.3" height="13.7"/>
	<path class="st47" d="M1008.3,277.8c-20.1-29.3-12.9-68.3-2.5-78.3s64.9-12.7,62.8,8.6S1008.3,277.8,1008.3,277.8z"/>
	<rect x="1178.2" y="507.4" class="st46" width="8.3" height="276.6"/>
	<rect x="1183.4" y="507.4" class="st46" width="8.3" height="276.6"/>
	<path class="st23" d="M1372.8,200.4h-110.5c-6.7,0-12.5,4.3-14.1,10.4l-57.3,225.3c-2.2,8.5,4.7,16.6,14.1,16.6h111
		c7.1,0,13.3-4.6,14.9-11l56.9-223.7C1390.1,209,1382.8,200.4,1372.8,200.4z"/>
	<path class="st48" d="M1372.8,200.4h-110.5c-6.7,0-12.5,4.3-14.1,10.4L1202.1,392h141.4l44.3-174.1
		C1390.1,209,1382.8,200.4,1372.8,200.4z"/>
	<path class="st49" d="M1383.5,234.7l4.2-16.7c2.3-9-5-17.6-14.9-17.6h-110.5c-6.7,0-12.5,4.3-14.1,10.4l-6.1,23.9L1383.5,234.7
		L1383.5,234.7z"/>
	<path class="st50" d="M1389.5,200.4H1279c-6.7,0-12.5,4.3-14.1,10.4l-57.3,225.3c-2.2,8.5,4.7,16.6,14.1,16.6h111
		c7.1,0,13.3-4.6,14.9-11l56.9-223.7C1406.7,209,1399.4,200.4,1389.5,200.4z"/>
	<path class="st51" d="M1389.5,200.4H1279c-6.7,0-12.5,4.3-14.1,10.4l-1.9,7.4c4.5-0.7,9-1.1,13.6-1.1c46.9,0,87.2,38.1,104.6,92.4
		l23.2-91.4C1406.7,209,1399.4,200.4,1389.5,200.4z"/>
	<polygon class="st50" points="1319.5,412 1274.9,412 1286.1,503.7 1330.6,503.7 	"/>
	<rect x="1226.4" y="489.6" class="st50" width="85.6" height="14.1"/>
	<polygon class="st27" points="1327.1,412 1282.5,412 1293.6,503.7 1338.2,503.7 	"/>
	<path class="st5" d="M1058.5,322.6L1042,444.3c6.1,17,37.8,36.5,37.8,36.5l46.5-34C1126.2,446.8,1099.5,375.5,1058.5,322.6z"/>
	<path class="st3" d="M1053.5,367.7l-11.5,76.6c6.1,17,37.8,36.5,37.8,36.5l31.9-23.3C1094.9,451.9,1062.7,410.3,1053.5,367.7z"/>
	<path class="st52" d="M1136.6,454.6c-4.4-19.1-20.5-29.3-35.8-22.8c-15.4,6.5-24.3,27.3-19.9,46.4s20.5,29.3,35.8,22.8
		C1132.1,494.5,1141,473.7,1136.6,454.6z"/>
	<path class="st13" d="M1098.6,466.7c3.8-51.5,37.5-96.4,45.9-107.9c-1.4,6.6,0.4,12.8,20.7,16.9c0,0-2.3,121.8-8.4,123.8
		C1125.6,510.1,1097.5,481.7,1098.6,466.7z"/>
	<path class="st28" d="M1125.4,431.1c0-21.4,3-41,7.9-56.2c-13.2,20.1-36.3,53.9-39.1,91.6c-0.9,12.1,21.7,33.1,45.1,35.2
		c11.2-9.9,20-17.4,21.2-23.5C1164.2,458.6,1125.4,453.2,1125.4,431.1z"/>
	<polygon class="st53" points="921.1,348.1 814.7,348.1 879.5,620.8 985.9,620.8 	"/>
	<polygon class="st23" points="934.5,348.1 828.1,348.1 892.9,620.8 999.2,620.8 	"/>
	<path class="st53" d="M935.2,348.1h-22c-26.9,35.2-45.7,117.6-45.7,213.6c0,3,0,6,0.1,9l11.9,50.2H1000L935.2,348.1z"/>
	<polygon class="st45" points="1003.7,608.1 973.4,608.1 963.9,784 971,784 	"/>
	<polygon class="st53" points="910.4,608.1 880.1,608.1 870.6,784 877.7,784 	"/>
	<polygon class="st53" points="987.4,607.9 1017.7,608 1049.4,784 1042.2,784 	"/>
	<polygon class="st53" points="1069,608.1 1099.3,608.1 1131.7,784 1124.6,784 	"/>
	<rect x="885.4" y="611.4" class="st53" width="213.3" height="21"/>
	<path class="st5" d="M902.7,601.4c-27.5-18.1-6.5-219.1,52.3-278.3c53.9-54.2,100.8-15.2,115.9,17.7c10,21.9-26.7,123.4-12.9,220.2
		C1058,561.1,920.3,613.1,902.7,601.4z"/>
	<path class="st3" d="M958.1,419c0-44.3,8.7-84.7,22.9-115.5c-8.4,4.3-17.2,10.7-26.1,19.7c-58.8,59.2-79.8,260.1-52.3,278.3
		c10.8,7.1,66.8-9.7,108.5-23.8C979.8,549.5,958.1,489.1,958.1,419z"/>
	<path class="st54" d="M919.8,384.4c-3.1,8.3-5.9,16.9-8.6,25.8l151.5,14c1.4-9.3,2.9-18,4.2-26.2L919.8,384.4z"/>
	<path class="st55" d="M1156.8,559.2c-6.3-7.4-104.6-32.5-104.6-32.5s-104.3-15.2-114.5,22c-4.5,16.5,45.5,67.1,64.4,67l96.1-0.4
		l112.1,166.9h5.3C1215.6,782.2,1163.1,566.7,1156.8,559.2z"/>
	<path class="st52" d="M1154.5,557.6c-16.2-8.9-102.2-30.9-102.2-30.9s-47.4-10.2-79,0.2c-2.2,15.4,80.5,29.3,121,34.5
		C1118.2,564.4,1140.1,562.7,1154.5,557.6z"/>
	<path class="st55" d="M1093.9,559.1c-4.4-5.9-83.5-28.5-115.7-32.2c-22.3-2.6-70.3,25.8-80.1,51.4c-7,18.3,8.2,37.4,29.8,37.3
		l97.7-0.4l49.7,166.9h5.6C1080.9,782.2,1099.5,566.6,1093.9,559.1z"/>
	<path class="st52" d="M1089.1,562.9c-0.1-0.9-0.3-1.5-0.5-1.8c-4.3-6-80.1-29.8-110.9-34c-4.1-0.6-9,0-14.4,1.4
		c6,13.2,26.5,28.2,53.5,37.4C1050.3,577.5,1081.6,576,1089.1,562.9z"/>
	<path class="st5" d="M985.4,302.1c-25.5-0.6-59,56.3-55.4,89.9c2.7,25.7,13.5,76.3,58.5,104.1l52.8-67.1
		C1010.7,402.8,1009.5,315.4,985.4,302.1z"/>
	<path class="st3" d="M951.3,327.4c-15.5,21.1-27.6,50.7-25.5,70.5c2.7,25.7,17.8,70.5,62.8,98.3l32.4-44.8
		C974.2,424.4,948.3,347.5,951.3,327.4z"/>
	<path class="st3" d="M1040.3,470.9c17.2-16.9,14.9-37.3-3.8-45.7c-17.9-8.1-45.2-2.7-62.2,12.2c-17.7,15.5-18.8,36.2-1.2,46.3
		C991.5,494.3,1022.3,488.5,1040.3,470.9z"/>
	<path class="st52" d="M1043.5,474.4c17.3-19.5,16.9-41-0.9-47.9s-46.2,3.3-63.5,22.8s-16.9,41,0.9,47.9
		C997.7,504.2,1026.2,494,1043.5,474.4z"/>
	<path class="st56" d="M1026.5,459.3c-12.8-5.3-23.9-14-31.2-23.6c-5.9,3.8-11.5,8.4-16.2,13.7c-17.3,19.5-16.9,41,0.9,47.9
		s46.2-3.3,63.5-22.8c3-3.4,5.4-6.8,7.3-10.2C1043.5,464.4,1035.2,462.9,1026.5,459.3z"/>
	<path class="st13" d="M1145,499.3c0,0-145.9-6.5-150.6-12.1c-8.4-10.2-1-61.5,43.4-57.8c0,0,88.9,36.1,104.4,43.6
		C1159.2,481.1,1145,499.3,1145,499.3z"/>
	<path class="st28" d="M1099.5,481.1c-48.6-4.3-87.9-20.4-87.9-36c0-6.6,7.1-12.1,19-15.8c-38.7,2.7-50.6,54.1-42.9,63.9
		c9.4,12,157.3,6.1,157.3,6.1S1116.6,482.6,1099.5,481.1z"/>
	<path class="st13" d="M1104.3,476.7c22.6-9.4,49.3-4.7,58.5,0.8s16,23.2,16,23.2l-50.5-1.4C1107.8,496.6,1102.1,485,1104.3,476.7z"
		/>
	<path class="st27" d="M1159.3,501.8c0-6.4-12-14.1-20.9-14.1s-16.2,5.2-16.2,11.5c0,6.4,7.2,11.5,16.2,11.5
		C1147.3,510.8,1159.3,508.2,1159.3,501.8z"/>
	<rect x="1253.9" y="507.4" class="st46" width="16" height="276.6"/>
	<rect x="1242.6" y="507.4" class="st23" width="16" height="276.6"/>
	<rect x="1357.9" y="507.4" class="st46" width="16" height="276.6"/>
	<path class="st3" d="M1005.3,326.1c18.5,0,34.9-4.9,45.4-12.6c-16.6-15.1-40.3-23.8-67.2-11.3c-7.1,0.6-14.7,5.3-21.8,12.5
		C972.3,321.7,987.9,326.1,1005.3,326.1z"/>
	<path class="st52" d="M1046.8,310.4c-15.9-12.7-37.3-19.4-61.4-9c4.8,8.9,15.7,16,29.1,17.8
		C1027.4,320.9,1039.5,317.2,1046.8,310.4z"/>
	<path class="st16" d="M1050.9,258.9l-36.6-2.9l-13.3,41.1c1.3,15.4,32,19.9,40.6,9.5L1050.9,258.9z"/>
	<path class="st13" d="M1018.5,214.2c-11.2,38.6-6.6,71.1-4.4,77.8c4.4,13.4,42.4,13.4,46.8,8c11.2-13.8,14.3-84.6,7.4-92.7
		S1024.2,194.6,1018.5,214.2z"/>
	<path class="st47" d="M1025.2,224.8l-14.7,30.7c-2.2,25.9,3.6,45,3.6,45c17.2,12,63.9,3.9,63.9,3.9l-8-37.8
		c-9,1.6-28.7,2.7-38.3-5.3C1023.9,255.1,1025.2,242.1,1025.2,224.8z"/>
	<path class="st47" d="M1020.1,259.3c2.5-26.6,10.7-55.8,22.9-59.7c0,0-28.1-6-37.4,15.6c-9.4,21.6,4.5,45.6,4.5,45.6L1020.1,259.3z
		"/>
	<path class="st13" d="M1016.3,252.4c-1.9-7.4-6.7-12.9-10.8-12.5c-4.1,0.5-5.8,6.8-3.9,14.1c1.9,7.4,6.7,12.9,10.8,12.5
		S1018.2,259.8,1016.3,252.4z"/>
	<path class="st16" d="M1013.3,252.8c-1.1-4.3-3.9-7.5-6.3-7.3c-2.4,0.3-3.4,4-2.3,8.2c1.1,4.3,3.9,7.5,6.3,7.3
		C1013.3,260.7,1014.4,257.1,1013.3,252.8z"/>
	<path class="st13" d="M1014.6,255c-0.8-3.1-2.8-5.4-4.5-5.2s-2.4,2.8-1.6,5.9s2.8,5.4,4.5,5.2
		C1014.6,260.7,1015.4,258.1,1014.6,255z"/>
	<path class="st57" d="M1236.9,784h-29.4c0,0-2-8.7,3.6-11.2C1216.6,770.3,1236.9,784,1236.9,784z"/>
	<path class="st57" d="M1103.8,784h-29.4c0,0-2-8.7,3.6-11.2C1083.5,770.3,1103.8,784,1103.8,784z"/>
	<rect x="1057" y="507.4" class="st23" width="8.3" height="276.6"/>
	<rect x="1062.4" y="507.4" class="st46" width="8.3" height="276.6"/>
	<rect x="1015.6" y="499.1" class="st23" width="358.3" height="14.9"/>
	<path class="st58" d="M1330.7,315.3c2.2-11.9-1-21.6-7.1-21.6c-6.2,0-12.9,9.7-15.2,21.6c-2.2,11.9,1,21.6,7.1,21.6
		C1321.7,336.9,1328.4,327.2,1330.7,315.3z"/>
	
		<ellipse transform="matrix(0.242 -0.9703 0.9703 0.242 689.9788 1520.3702)" class="st50" cx="1318.1" cy="318.6" rx="18.5" ry="9.1"/>
	<g>
		<path class="st14" d="M1045.8,249.3c0.4-2.7-0.7-5.1-2.4-5.5c-1.7-0.3-3.4,1.5-3.8,4.2s0.7,5.1,2.4,5.5S1045.4,252,1045.8,249.3z"
			/>
		<path class="st47" d="M1047.4,234.8l-11.3-0.2c-0.9,0-1.7,0.7-1.7,1.6v3.3c0,0.9,0.8,1.6,1.7,1.6l11.3,0.2c0.9,0,1.7-0.7,1.7-1.6
			v-3.3C1049.1,235.6,1048.3,234.9,1047.4,234.8z"/>
		<path class="st14" d="M1068.8,250.5c0.3-2.7-0.9-5.1-2.6-5.4c-1.7-0.3-3.3,1.7-3.6,4.3c-0.3,2.7,0.9,5.1,2.6,5.4
			C1066.9,255.2,1068.5,253.2,1068.8,250.5z"/>
		<path class="st47" d="M1073.5,235.5l-10.2-0.5c-0.9,0-1.6,0.6-1.8,1.5l-0.4,3.3c-0.1,0.9,0.5,1.6,1.3,1.7l10.2,0.5
			c0.9,0,1.6-0.6,1.8-1.5l0.4-3.3C1074.9,236.3,1074.3,235.6,1073.5,235.5z"/>
		<path class="st16" d="M1055.5,249.1c2.2,8.4,2.6,13.7-0.5,15.6c-1.9,1.2-4.5,0.7-6.4,0.1l-0.1,0.2c0,0,5.9,3.3,9.2,1.6
			C1061,264.8,1059.4,258.8,1055.5,249.1z"/>
		<path class="st59" d="M1061.6,273l-22.5-2.9c0,0-0.9,8.7,9.1,12.4C1058.3,286.2,1061.6,273,1061.6,273z"/>
		<path class="st60" d="M1057.1,278.7c1.7-2.3,2.4-5,2.4-5l-18.2-2.3c0,0-0.3,2.5,1.2,5.1L1057.1,278.7z"/>
	</g>
	<path class="st13" d="M1145.1,313c-2-2.5-6.7-2.3-8.7-0.4s-2,23-2.2,45c4.5-1.7,7.9-5,14-9.8C1148.1,347.8,1147.1,315.5,1145.1,313
		z"/>
	<path class="st13" d="M1152,334.2c-3.1-0.8-6.2,2.1-6.2,12.2c0.1,7,13.7,6.8,13.6-0.2C1160.9,335.9,1155.1,334.9,1152,334.2z"/>
	<path class="st13" d="M1163.5,342c-2.5-1.8-5.4,0.3-6.6,11c-1.7,4.2,9.5,8.2,11.2,4C1170.7,346.6,1166,343.8,1163.5,342z"/>
	<path class="st13" d="M1132.5,378.5c-6.5-15.2-3.7-29.7-1.5-32.1s20.2,3.3,23.8,2.6c3.6-0.7,5.5,11.6-13.7,8l-0.3,1.1
		c0,0,10.7,1.1,12.6,13.8C1154.6,379.6,1132.5,378.5,1132.5,378.5z"/>
</g>
<g class="st0">
	<path class="st53" d="M273.6,485.3c-8.9-1.9-25.5,1.7-31.5,13.8l45.8,0.6C287.8,499.7,282.5,487.2,273.6,485.3z"/>
	<path class="st23" d="M67,199.7h110.6c6.7,0,12.5,4.3,14.1,10.4L249,435.4c2.2,8.5-4.7,16.6-14.1,16.6h-111
		c-7.1,0-13.3-4.6-14.9-11L52.1,217.3C49.8,208.3,57.1,199.7,67,199.7z"/>
	<path class="st48" d="M191.7,210c-1.5-6.1-7.4-10.4-14.1-10.4H67c-9.9,0-17.2,8.6-14.9,17.6l46,181h141.4L191.7,210z"/>
	<path class="st49" d="M60.5,250.3l136.1-21l-4.9-19.2c-1.5-6.1-7.4-10.4-14.1-10.4H67c-9.9,0-17.2,8.6-14.9,17.6L60.5,250.3z"/>
	<rect x="145.1" y="491.7" class="st50" width="85.6" height="14.1"/>
	<path class="st38" d="M380.6,434.7c18.9-60.8,22.2-111.3,29.5-112.9c3.5-0.8,12.5,12.2,11.3,38.6c-1.3,28.7-13,71.7-16.7,87.2
		C397.8,477.3,371.7,463.3,380.6,434.7z"/>
	<path class="st34" d="M410.1,321.7c-0.8,0.2-1.5,0.9-2.2,2.1c-1.8,5.3-5.2,14.1-6.5,22.8c-5.6,37.3-4.9,70.8-8.6,86.3
		c-2.8,11.8-8.5,16.7-13.9,16.5c2.1,17.6,20.2,22.1,25.8-1.9c3.6-15.5,15.4-58.5,16.7-87.2C422.6,334,413.6,321,410.1,321.7z"/>
	<ellipse class="st23" cx="388.7" cy="450" rx="18.6" ry="16.7"/>
	<path class="st13" d="M375.2,441.1c-24.7,10.9-98.9,36.1-100.7,37.5l-0.8,4c49.9-1.4,102.1-13.8,119.2-20.8
		C406,456.4,394.3,432.6,375.2,441.1z"/>
	<path class="st28" d="M382.7,439.3c5.8,5.5,6.7,14.7-0.7,17.9c-15.7,6.9-61.5,19.2-107.8,23.1l-0.4,2.2
		c49.9-1.4,102.1-13.8,119.2-20.8C404.2,457.2,397.1,438.9,382.7,439.3z"/>
	<path class="st50" d="M50.4,199.7h110.5c6.7,0,12.5,4.3,14.1,10.4l57.3,225.3c2.2,8.5-4.7,16.6-14.1,16.6h-111
		c-7.1,0-13.3-4.6-14.9-11L35.4,217.3C33.2,208.3,40.5,199.7,50.4,199.7z"/>
	<polygon class="st50" points="129.9,385.6 174.5,385.6 170.9,503 126.4,503 	"/>
	<polygon class="st27" points="124.3,385.6 168.9,385.6 165.3,503 120.7,503 	"/>
	<rect x="62.4" y="505.1" class="st46" width="291.5" height="14.9"/>
	<rect x="241.2" y="506.7" class="st46" width="8.3" height="276.6"/>
	<rect x="249.6" y="506.7" class="st46" width="8.3" height="276.6"/>
	<g>
		<polygon class="st53" points="487.2,343.2 593.5,343.2 528.8,615.7 422.5,615.7 		"/>
		<polygon class="st23" points="475.9,343.2 582.2,343.2 517.5,615.7 411.2,615.7 		"/>
		<path class="st53" d="M405.9,615.7h115.6c7.1-26.5,11.1-57.1,11.1-89.6c0-77.7-27-146.4-59.4-173.4L405.9,615.7z"/>
		<rect x="323.7" y="608" class="st53" width="191.7" height="21"/>
		<polygon class="st23" points="497.9,607.4 528.2,607.4 537.7,783.2 530.6,783.2 		"/>
		<polygon class="st53" points="421,607.3 390.7,607.4 359.1,783.3 366.2,783.3 		"/>
		<polygon class="st53" points="339.4,607.4 309.2,607.4 276.8,783.2 283.9,783.2 		"/>
		<polygon class="st23" points="533.4,596.9 308.7,596.9 308.7,617.9 528.5,617.9 		"/>
		<polygon class="st23" points="404.7,607.4 435,607.4 444.5,783.2 437.4,783.2 		"/>
		<rect x="308.7" y="596.9" class="st53" width="97.6" height="22.7"/>
		<polygon class="st53" points="534.7,590.8 312,596.9 312,605.5 530.8,605.5 		"/>
	</g>
	<path class="st61" d="M533.5,355.3c-1.7-51-32.9-96.2-68.7-100c-34.6-3.7-59.7,33.1-57.2,81.3c2.5,47.5,31.1,90.5,64.9,96.9
		C507.4,440.1,535.2,405.5,533.5,355.3z"/>
	<path class="st38" d="M451.9,352.5l-37.3,44.8c17.4,15,29.3,104-6.3,141.7l91.8,36.4C533.9,523.5,451.9,352.5,451.9,352.5z"/>
	<path class="st34" d="M451.9,352.5l-37.3,44.8c7.5,6.4,13.9,26.4,16,50.1c0.7-0.1,1.3-0.2,2-0.2c20.2,0,36.5,25.5,36.5,57.1
		c0,22.3-8.2,41.5-20.1,50.9l51,20.3C533.9,523.5,451.9,352.5,451.9,352.5z"/>
	<path class="st62" d="M300.5,560.5c19.9-12.5,73.8-25.8,121.7-26.1c36.9-0.2,80.3,16.3,81.9,38.6c1.2,15.5-13.1,28.5-30.9,28.5
		H318.6L300.5,560.5z"/>
	<path class="st5" d="M422.2,534.4c-21.7,0.1-44.6,2.9-65,7.1c8.3,11,35.2,21.6,68.1,25.9c32.7,4.3,61.5,0.9,72.9-7.4
		C484.8,544.7,451.5,534.2,422.2,534.4z"/>
	<path class="st63" d="M306.4,558.4c17.3-4.2,34.9,5.7,40.5,21.5l68.9,196.7l-2.1,1.3c0,0-120.1-181.1-120.6-205.5
		C292.8,564.3,298.7,560.2,306.4,558.4z"/>
	<path class="st62" d="M395.7,601.3c1.8,43.4-12.8,176.6-12.8,176.6h-2.6c0,0-38.3-179.8-26.5-216.8
		C363.2,531.3,395.1,586.2,395.7,601.3z"/>
	<path class="st61" d="M493.4,266.3c-16.3-48.8-60.8-82.9-98.1-75.6c-36.1,7.1-51.1,50.3-34.7,96.2c16.1,45.2,57.4,78,93.4,73.8
		C491.1,356.4,509.4,314.4,493.4,266.3z"/>
	<path class="st34" d="M445.7,310.5c-5.9-4.8-31.6,0.6-37.8,13.8c-6.1,13-6.9,102.1-4.9,104c3.1,2.9,74.3,0.2,72.6-10.5
		C470.4,384.6,456.4,319.1,445.7,310.5z"/>
	<path class="st38" d="M438.1,314.9c-5.9-4.8-24-3.7-30.2,9.4c-6.1,13-7.1,96.9-5.1,98.7c3.1,2.9,26.5,2.9,30.6-7.2
		C438.6,402.8,448.9,323.5,438.1,314.9z"/>
	<path class="st38" d="M445.3,418.6c2.9-56.1-13.4-100.7-6.8-102.1c3.2-0.7,19.9,12.1,25.4,36.5c5.9,26.6,7.3,63.5,7.7,77.8
		C472.3,458.4,443.9,445,445.3,418.6z"/>
	<path class="st34" d="M439.6,316.7c-0.4-0.8-0.9-1.4-1.4-1.8c-5.9-4.8-24-3.7-30.2,9.4c-0.4,0.8-0.7,1.8-1,3
		c7.5,4.7,19.2,4.7,30.5,0c2.1-0.9,4.2-1.9,6.2-3.1c1.2-0.7,2.3-1.4,3.4-2.2C443.9,319,441.2,317.2,439.6,316.7z"/>
	<path class="st34" d="M465.8,350.4c-5.5-24.4-17.3-36.6-20.4-35.9c-1.9,0.4,6.1,26.9,8.9,39.3c5.9,26.6,5.4,66.2,5.8,80.5
		c0.1,4.7-0.6,8.2-1.9,10.7c6.9,3.3,13.9-0.2,13.5-14C471.2,416.6,471.7,377,465.8,350.4z"/>
	<rect x="344.6" y="506.7" class="st46" width="8.3" height="276.6"/>
	<rect x="279.8" y="491.6" class="st53" width="100.4" height="9.4"/>
	<rect x="270.6" y="491.6" class="st64" width="56.4" height="9.4"/>
	<rect x="62.3" y="498.4" class="st23" width="358.3" height="14.9"/>
	<rect x="166.3" y="506.7" class="st46" width="16" height="276.6"/>
	<rect x="177.6" y="506.7" class="st23" width="16" height="276.6"/>
	<rect x="351.9" y="506.7" class="st23" width="8.3" height="276.6"/>
	<rect x="62.3" y="506.7" class="st46" width="16" height="276.6"/>
	<rect x="62.2" y="498.4" class="st46" width="115.1" height="16.5"/>
	<path class="st27" d="M152.8,263.6c23.8,25,43.4,54.6,57.5,85L175,210c-1.5-6.1-7.4-10.4-14.1-10.4H50.4c-5.6,0-10.3,2.7-13,6.7
		C70.3,202.2,112.9,221.7,152.8,263.6z"/>
	<path class="st27" d="M140.1,323.6c-3.8-11-11-19.9-16-19.9s-6,8.9-2.2,19.9s11,19.9,16,19.9S143.9,334.6,140.1,323.6z"/>
	<ellipse class="st23" cx="456.1" cy="438.7" rx="18.6" ry="16.7"/>
	<path class="st13" d="M441.4,431.3c-22.6,14.3-86.7,45.9-96.2,50.2l-0.1,4c49-8.5,101.1-26.8,116.8-36.2
		C473.9,442.3,459,420.2,441.4,431.3z"/>
	<path class="st28" d="M451.6,428.3c4,4.7,4.8,11.4-0.7,15c-14.3,9.5-60.1,28.6-105.8,40l-0.1,2.2c49-8.5,101.1-26.8,116.8-36.2
		C471.5,443.7,463.9,428.6,451.6,428.3z"/>
	<path class="st23" d="M445.7,310.5c-5.9-4.8-31.6,0.6-37.8,13.8c0,0.1-0.1,0.2-0.1,0.3c7.5,5.4,21.5,2.2,32.3-7.5
		c2.2-2,4.2-4.2,5.8-6.4C445.8,310.7,445.7,310.6,445.7,310.5z"/>
	<path class="st16" d="M405.2,261.5l9.2,55.9c6.8,3.6,17.2,0.6,22.1-8.5l-11-49.6L405.2,261.5z"/>
	<path class="st13" d="M372.9,230.2c4.7-17,28.9-7.9,42.6,6.6c17,18,12.2,39.5,10.5,43.5c-7.3,17.5-24,30.2-24,30.2
		S359.7,278.1,372.9,230.2z"/>
	<path class="st61" d="M390.2,203c-18.3,14.3-1.8,43.1,35.5,69.1l5.3-21.8C431.6,226.4,407.2,189.8,390.2,203z"/>
	<path class="st23" d="M397,784.8h15.2l6.7-10.8c0,0-3.7-8.2-8.5-6.2c-2,0.8-1.3,12.9-1.3,12.9L397,784.8z"/>
	<path class="st23" d="M362.8,783.3H385c0,0,1.8-6.3-3.9-7.8C379.1,774.9,362.8,783.3,362.8,783.3z"/>
	<g>
		<g>
			<path class="st14" d="M399.7,261.9c-0.7-2.5-0.2-4.8,1.1-5.1c1.3-0.3,2.8,1.6,3.5,4.1s0.2,4.8-1.1,5.1
				C401.9,266.3,400.4,264.5,399.7,261.9z"/>
			<path class="st14" d="M376.1,267.2c-0.7-2.5-0.2-4.8,1.1-5.1c1.3-0.3,2.8,1.6,3.5,4.1s0.2,4.8-1.1,5.1
				C378.3,271.5,376.8,269.7,376.1,267.2z"/>
			<path class="st61" d="M393,249.3l10.5-0.5c1.3-0.1,2.5,0.8,2.6,1.9l0.3,2.2c0.2,1.1-0.8,2-2.1,2.1l-10.5,0.5
				c-1.3,0.1-2.5-0.8-2.6-1.9l-0.3-2.2C390.8,250.3,391.7,249.4,393,249.3z"/>
			<path class="st61" d="M370.1,257.9l6.5-4.1c0.8-0.5,1.9-0.1,2.4,0.8l1.1,1.9c0.5,1,0.3,2.2-0.5,2.7l-6.5,4.1
				c-0.8,0.5-1.9,0.1-2.4-0.8l-1.1-1.9C369.1,259.6,369.3,258.4,370.1,257.9z"/>
		</g>
		<path class="st65" d="M371.7,265.5l13.5-3.1l2.8,10.7c0.7,2.7-1.3,5.5-4.5,6.2l-2,0.5c-3.2,0.7-6.3-0.9-7-3.6L371.7,265.5z"/>
		<path class="st65" d="M389.3,262.2l16.1-3.6l2.8,10.8c0.7,2.6-1.1,5.3-4,6l-5.6,1.3c-2.9,0.7-5.8-1-6.5-3.6L389.3,262.2z"/>
		<polygon class="st65" points="434.7,251.2 436.3,253.7 372.6,268.1 371.9,265.4 		"/>
		<path class="st13" d="M373.5,267.4l9.8-2.2l2,7.7c0.5,1.9-0.9,4-3.2,4.5l-1.4,0.3c-2.3,0.5-4.6-0.6-5.1-2.6L373.5,267.4z"/>
		<path class="st13" d="M392.2,263.2l11.1-2.5l2,7.7c0.5,1.9-1.2,4-3.8,4.6l-1.6,0.4c-2.6,0.6-5.1-0.5-5.6-2.4L392.2,263.2z"/>
		<g>
			<path class="st14" d="M401.9,266.2c-1.3,0.3-2.8-1.6-3.5-4.1c0-0.1,0-0.3-0.1-0.4l4.5-1c0,0.1,0.1,0.3,0.1,0.4
				C403.6,263.7,403.1,265.9,401.9,266.2z"/>
			<path class="st14" d="M378.3,271.5c-1.3,0.3-2.8-1.6-3.5-4.1c0-0.1,0-0.2,0-0.3l4.5-1c0,0.1,0.1,0.2,0.1,0.3
				C380,268.9,379.6,271.2,378.3,271.5z"/>
		</g>
		<path class="st16" d="M388.8,267.6c0,0,0.4,0.4,0.9,1.1c-1.4,3.9-2.6,10.3,3.7,8.5c0,0.2,0,0.3,0,0.5
			C383.1,282.3,387.5,270.1,388.8,267.6z"/>
		<path class="st43" d="M388,286.5c0.2,0.4,0.3,0.9,0.5,1.3c2.4,4.6,7.9,6.7,12.4,4.8c4.1-1.8,5.8-6.4,4.2-10.7L388,286.5z"/>
		<path class="st44" d="M389.6,286.8c0.1,0.3,0.2,0.7,0.4,1c1.8,3.5,6.5,4.9,10.4,3.2c3.6-1.6,5.1-5.1,4-8.4L389.6,286.8z"/>
	</g>
	<path class="st13" d="M433.6,265.2c1.1-7.2-1.3-13-5.5-13.1c-4.1,0-8.4,5.8-9.5,13s1.3,13,5.5,13.1
		C428.2,278.2,432.5,272.4,433.6,265.2z"/>
	<path class="st16" d="M430.3,264.6c0.7-4.2-0.6-7.7-3-7.7c-2.3,0-4.8,3.5-5.5,7.7s0.6,7.7,3,7.7
		C427.2,272.3,429.6,268.8,430.3,264.6z"/>
	<path class="st13" d="M426.4,267.4c0.4-2.5-0.5-4.6-1.9-4.6s-2.9,2-3.3,4.6c-0.4,2.5,0.5,4.6,1.9,4.6
		C424.5,271.9,426,269.9,426.4,267.4z"/>
	<path class="st13" d="M354.8,477.9c-0.7,4.2-4.5,7.5-9,7.7c-5.7,0.3-11.5-1.2-14-3c-3.8-2.7,2.2-6.8,9.4-5.6
		c7.1,1.2,13.8,0.2,13.8,0.2L354.8,477.9z"/>
	<path class="st13" d="M337.2,476.9c-8,0.6-19.6,11.5-17.6,12.7c2.8,1.7,8.7-7.9,14.3-7C338.8,483.4,337.2,476.9,337.2,476.9z"/>
	<path class="st13" d="M342,478.4c-6.9,0.1-18.1,10.2-15.9,11.5c3.1,1.8,8.5-7.8,13.7-6.7C344.2,484.2,342,478.4,342,478.4z"/>
	<path class="st13" d="M348.8,479.2c-6.9,0.1-18.1,10.2-15.9,11.5c3.1,1.8,8.5-7.8,13.7-6.7C351,484.9,348.8,479.2,348.8,479.2z"/>
	<path class="st13" d="M285.5,475c-0.7,4.2-4.5,7.5-9,7.7c-5.7,0.3-11.5-1.2-14-3c-3.8-2.7,2.2-6.8,9.4-5.6
		c7.1,1.2,13.8,0.2,13.8,0.2L285.5,475z"/>
	<path class="st13" d="M267.9,474c-8,0.6-19.6,11.5-17.6,12.7c2.8,1.7,8.7-7.9,14.3-7C269.5,480.5,267.9,474,267.9,474z"/>
	<path class="st13" d="M272.7,475.5c-6.9,0.1-18.1,10.2-15.9,11.5c3.1,1.8,8.5-7.8,13.7-6.7C274.9,481.3,272.7,475.5,272.7,475.5z"
		/>
	<path class="st13" d="M279.5,476.3c-6.9,0.1-18.1,10.2-15.9,11.5c3.1,1.8,8.5-7.8,13.7-6.7C281.7,482,279.5,476.3,279.5,476.3z"/>
</g>
<g class="st0">
	<path class="st66" d="M5445.5,585.8c34.2,34.7,136.3,162.7,136.3,162.7l5.6-1.2c0,0-86.5-200.1-107-207.1
		C5459.7,533.1,5445.5,585.8,5445.5,585.8z"/>
	<path class="st67" d="M5617.5,771.3c-23.3-2.4-40.1-17.6-40.1-17.6s-1.6-16.4,7.2-14.9C5591.9,740,5601,758,5617.5,771.3z"/>
	<path class="st68" d="M5570.8,778.2h-620.3c0,0-59.4-253.4,74.9-368.5c134.2-115,342.2,167.1,342.2,167.1
		S5563.6,543.6,5570.8,778.2z"/>
	<path class="st69" d="M5103.9,496.8c-1.8-21.2-30.7-57.3-30.7-57.3l-69.5,19.2L5103.9,496.8z"/>
	<path class="st19" d="M5321.8,674.5c40.1,2.5,170.5-104.8,170.5-104.8s-8.3-36.2-17.2-37.9S5312,584.6,5304,588
		C5296,591.2,5321.8,674.5,5321.8,674.5z"/>
	<polygon class="st70" points="5462.9,533.6 5376.8,589.2 5329.8,587.5 5326,578.6 	"/>
	<path class="st19" d="M5448.4,586.2c38.8,31.9,157.8,153,157.8,153l5.3-2.1c0,0-113.5-199.3-134.9-203.8
		C5455.2,528.7,5448.4,586.2,5448.4,586.2z"/>
	<path class="st70" d="M5472.6,562.1c-1-1.1-2-1.9-3-2.1c-7.6-1.4-139.1,18.5-145.9,21.3c-6.9,2.8,14.9,100.7,14.9,100.7
		c23.3,1.4,92.3-47.9,127.7-74.9c39.6,35.3,137,127.8,137,127.8l0.9-2.5C5604,732.4,5494.6,575,5472.6,562.1z"/>
	<path class="st71" d="M5043.7,443.8c0,0,41.3,35.8,123.7,0.8c-25.9-20-21.9-55.9-15.1-72.1c7.9-6.1-1.3-30.3-15-34.1
		C5012.3,303.6,5043.7,443.8,5043.7,443.8z"/>
	<path class="st72" d="M5121.2,339.4c-35,0.2-63,42.2-59.9,91.1c0.6,8.7,2.1,16.8,4.4,24.3c5.7,1.8,12.4,3.4,20.3,4.3
		c-20.5-61.8-10.9-100,26.1-116.6c3.7-1.7,9.2-2.2,13-2.9C5123.8,339.5,5122.5,339.4,5121.2,339.4z"/>
	<path class="st73" d="M5116.2,480.7c12,16.5,105.4,71.3,147.5,68.8c12.8-0.7,23.6-35.2-3.1-33.1c-26.2,2-98.6-37.2-112.6-44.6
		C5130.8,462.7,5109.7,471.7,5116.2,480.7z"/>
	
		<ellipse transform="matrix(0.9997 -2.431612e-02 2.431612e-02 0.9997 -11.4006 128.2373)" class="st74" cx="5267.3" cy="532.9" rx="24" ry="18.5"/>
	<path class="st75" d="M5321.8,677c-172.2-33.6-221.9-179.2-220.1-234.8c69.5,14.1,107.4,129.5,223.7,137.5
		C5338.5,593.4,5347.4,681.9,5321.8,677z"/>
	<path class="st13" d="M5267.4,517c28-3,97.5-20.1,99.7-19.7l1.6,2.1c-40,24-84.6,44.3-105,47.4C5247.8,549.3,5245,519.4,5267.4,517
		z"/>
	<path class="st28" d="M5257.8,520.5c-11.3,8.3-7.1,28.3,5.8,26.3c11.9-1.8,32.4-9.7,55.6-20.8
		C5293.4,528.9,5270.1,526.5,5257.8,520.5z"/>
	<path class="st5" d="M5102.6,442.7c10.7,30.4,56.4,68.7,119.8,111.1c9.8-5,27.9-46.1,27.9-46.1S5187.4,468.2,5102.6,442.7z"/>
	<path class="st75" d="M5198.6,537.5c7.6,5.4,15.6,10.8,23.8,16.4c14.3-6.3,27.7-45.6,27.7-45.6S5216.4,533.3,5198.6,537.5z"/>
	<path class="st75" d="M5140.5,485.3c5.5,11.1,30.1,35,62.2,49.3c20.4,9.1,34.1-9.1,34.1-9.1s-0.1-0.1-0.2-0.4
		C5204.8,516.6,5170.7,502.4,5140.5,485.3z"/>
	<path class="st5" d="M5110.4,486.8c7.5,18.4,69.6,77.2,131.4,80.1c13.9,0.6,30-27,2-31.7c-39.6-6.7-104.2-59.9-113-64
		C5112.5,462.5,5106.3,476.8,5110.4,486.8z"/>
	<path class="st75" d="M5110.4,475.6c0,0.1,0,0.1,0,0.2c3.9,0.7,7.9,1.3,12,1.7c22.7,2.2,36.8-11.1,37.6-14.6
		c-17-7.1-36.3-14.1-57.3-20.1C5105.6,450.7,5110.4,475.6,5110.4,475.6z"/>
	<path class="st75" d="M5254.1,539c-2.7,1.9-5.8,3.1-8.7,2.9c-55.4-2.5-111.1-50.1-127.4-73.2c-8.2,1.6-10.5,10.9-7.6,18
		c7.5,18.4,69.6,77.2,131.4,80.1C5253.4,567.4,5266.6,548.1,5254.1,539z"/>
	<path class="st74" d="M5274.5,544.3c-4-9.5-18.6-13.2-32.7-8.1c-14.1,5.1-22.3,16.9-18.3,26.5c4,9.5,18.6,13.2,32.7,8.1
		C5270.3,565.7,5278.5,553.8,5274.5,544.3z"/>
	<path class="st13" d="M5255.4,535.5c30.6-2,119.2-15.6,121.7-15.1l2.7,3.5c-52.1,24.1-113.2,41.6-134.3,43.6
		C5229.6,569,5231.6,537.1,5255.4,535.5z"/>
	<path class="st28" d="M5321.9,540.6c-30.7,2.5-57.9,1-73.6-3.5c-16.9,6.7-16.9,31.8-2.7,30.4c16.8-1.6,59.5-13.2,102.6-30.1
		C5339.9,538.7,5331.1,539.8,5321.9,540.6z"/>
	<path class="st69" d="M5566,751.6c0,0,0-127-91.8-161.8c-34.6-13.2-90.1-21.9-174.9,4c-57.6-44.4-163.8-98.3-295.7-135.1
		C4933.1,685.2,5122.4,781.9,5566,751.6z"/>
	<path class="st74" d="M5120.3,448.1c-6-2.7-12.2-4.7-18.7-6c-0.2,5.8,0.2,12.6,1.3,20.1c3.2,0.7,6.6,1.3,10.1,1.8
		c17.4,2.3,32.7,0.5,40.2-3.9C5143,455.9,5132,451.9,5120.3,448.1z"/>
	<path class="st16" d="M5095.1,387.2c0,0-2.9,33.8,6.8,65.8c9.8,4.9,17.5,0.6,19.8-4.2c-8.6-23.9-6.2-54.6-6.2-54.6L5095.1,387.2z"
		/>
	<path class="st13" d="M5145.3,365.1c-5.5-17-35.3-16.8-46.8-0.1c-14.3,20.9-3.4,47.3-1.6,51.2c8,17.2,33.4,27.6,33.4,27.6
		S5161.1,413.8,5145.3,365.1z"/>
	<g>
		<g>
			<path class="st14" d="M5121.9,395c0-2.7-1.1-4.9-2.4-4.9s-2.4,2.2-2.5,4.9c0,2.7,1.1,4.9,2.4,4.9S5121.9,397.7,5121.9,395z"/>
			<path class="st14" d="M5147.1,395.1c0-2.7-1.1-4.9-2.4-4.9s-2.4,2.2-2.5,4.9c0,2.7,1.1,4.9,2.4,4.9
				C5146,400,5147.1,397.8,5147.1,395.1z"/>
			<path class="st71" d="M5125.5,380.8l-10.8,1.8c-1.3,0.2-2.3,1.3-2.2,2.5l0.3,2.3c0.1,1.1,1.3,1.9,2.6,1.7l10.8-1.8
				c1.3-0.2,2.3-1.3,2.2-2.5l-0.3-2.3C5128,381.3,5126.8,380.6,5125.5,380.8z"/>
			<path class="st71" d="M5150.8,384.3l-7.6-2.7c-0.9-0.3-1.9,0.3-2.2,1.4l-0.6,2.2c-0.3,1.1,0.2,2.3,1.2,2.6l7.6,2.7
				c0.9,0.3,1.9-0.3,2.2-1.4l0.6-2.2C5152.2,385.8,5151.7,384.7,5150.8,384.3z"/>
		</g>
		<path class="st16" d="M5134.4,398.3c0,0-0.3,0.5-0.7,1.3c2.4,3.6,5.2,9.8-1.5,9.4c0.1,0.2,0.1,0.3,0.1,0.5
			C5144,411.9,5136.4,400.5,5134.4,398.3z"/>
		<path class="st43" d="M5140.1,417.3c0,0.5-0.1,1-0.2,1.4c-1.2,5.2-6.3,8.6-11.3,7.6c-4.6-0.9-7.5-5.2-7.1-9.8L5140.1,417.3z"/>
		<path class="st44" d="M5138.6,417.9c0,0.4,0,0.7-0.1,1.1c-0.9,4-5.3,6.4-9.7,5.6c-4-0.8-6.4-4-6.2-7.6L5138.6,417.9z"/>
	</g>
	<path class="st71" d="M5124.8,348.2l-17.2,3.1c-18.6,8.5-22.6,23.6-21.8,33.2c0.8,9.2,16.9,15.8,16.9,15.8
		S5101.2,357.5,5124.8,348.2z"/>
	<path class="st13" d="M5088.7,407.8c-6.3-6.4-8.8-13.9-5.6-16.8c3.2-2.9,10.8,0,17.1,6.4s8.8,13.9,5.6,16.8
		C5102.6,417.1,5095,414.2,5088.7,407.8z"/>
	<path class="st16" d="M5091.2,405.6c-3.6-3.7-5-8-3.2-9.6s6.2,0,9.8,3.7c3.6,3.7,5,8,3.2,9.6
		C5099.1,410.9,5094.8,409.3,5091.2,405.6z"/>
	<path class="st13" d="M5096.1,404.2c-2.2-2.3-3.1-4.9-2-5.9s3.8,0,6,2.3s3.1,4.9,2,5.9S5098.4,406.5,5096.1,404.2z"/>
	<path class="st23" d="M5639.1,760.4c-23.2-3-39.5-18.8-39.5-18.8s-1-16.4,7.7-14.7C5614.6,728.4,5623.1,746.5,5639.1,760.4z"/>
	<path class="st68" d="M5299.5,592.2l-17.4-11.2l-23.6,64.3c0,0,24.1-39,90.5-63.5L5299.5,592.2z"/>
	<polygon class="st76" points="5513.7,385.3 5488.5,379.8 5460.4,537.4 5482.4,536.2 	"/>
	<polygon class="st74" points="5344.1,564.8 5453.1,529.5 5477,379.5 5489.1,379.5 5462.8,537.1 5346.3,574.4 	"/>
	<path class="st13" d="M5374.4,477.7c-5.6-0.8-10.1,8.9-15.7,22.7l7.4,0.6C5376.5,496.5,5380,478.5,5374.4,477.7z"/>
	<path class="st13" d="M5381.2,466.6c-4.6,0.3-13.2,10.2-15.4,19.6l7.6-5C5375,473.2,5385.8,466.3,5381.2,466.6z"/>
	<path class="st13" d="M5387.8,471.1c-4.6-0.7-15.3,7.3-19.7,16l8.6-3.3C5380.2,476.3,5392.4,471.7,5387.8,471.1z"/>
	<path class="st13" d="M5387.7,478.6c-4.5-1.1-16,5.9-21.3,14.2l8.9-2.5C5379.6,483.1,5392.2,479.7,5387.7,478.6z"/>
	<path class="st13" d="M5366.3,471.6c-4.4,2.8-7.5,16.2-4.6,25.5l4.8-8.5C5363.7,480.8,5370.7,468.8,5366.3,471.6z"/>
	<path class="st13" d="M5393.5,512.1c-4.3-3.5-13.6,2.6-26.2,11.6l6,4.1C5384.6,529.1,5397.8,515.6,5393.5,512.1z"/>
	<path class="st13" d="M5405.5,506c-4.1-2-17,2.2-24.2,9.2l9.3-0.5C5396.5,508.6,5409.6,508,5405.5,506z"/>
	<path class="st13" d="M5408.6,513c-3.5-2.8-17.1-1.3-25.8,4l9.2,1.4C5399.2,513.7,5412.1,515.8,5408.6,513z"/>
	<path class="st13" d="M5404.3,519.4c-3.2-3.1-16.9-2.8-26.1,1.7l9,2.2C5394.8,519.2,5407.5,522.5,5404.3,519.4z"/>
	<path class="st13" d="M5390,503c-5.4,0.2-15.5,10.1-18.2,19.4l8.9-4.9C5382.6,509.5,5395.3,502.8,5390,503z"/>
</g>
<g class="st0">
	<path class="st28" d="M5949.2,476.2c-11.9-3.1-25.4,0.6-26.7,10l11.9,11c3.6-10,4.3-6.2,18.4-2.5
		C5967,498.4,5961.1,479.3,5949.2,476.2z"/>
	<path class="st28" d="M5931.2,479.7c-8-3.1-17.2,0.6-18,10l8,11c2.5-10,2.9-6.2,12.5-2.5C5943.2,501.9,5939.2,482.9,5931.2,479.7z"
		/>
	<path class="st28" d="M5921.6,488.9c-8-3.1-17.2,0.6-18,10l8,11c2.5-10,2.9-6.2,12.5-2.5S5929.7,492,5921.6,488.9z"/>
	<path class="st28" d="M5977.3,489.3c-3.6-3.5-10.7-23.2-14.5-30.7s-10.9-2.9-12.5,1.2s6.7,13.5,5.3,22.8L5977.3,489.3z"/>
	<path class="st28" d="M5946.4,520.2c-19.2-6.2-27.2-13.5-28.5-21s16.5-24.7,27.2-24.1s38.3,18.3,38.3,18.3L5946.4,520.2z"/>
	<polygon class="st77" points="5892.4,383.3 5867.7,383.3 5878,518.8 5905.3,521.9 	"/>
	<path class="st66" d="M6099.3,643.4c-42.4-41.4-173.4-111.7-200.9-114.5c-34.5-3.5-123.6,237.1-123.6,237.1h8.3l123.1-132.6
		c0,0,65.1,43.6,87.7,54.1S6123.7,667.3,6099.3,643.4z"/>
	<polygon class="st23" points="5900.7,383.2 5909.6,506.6 6029.7,573.2 6023.4,588.2 5900.5,518.1 5888.3,383.2 	"/>
	<path class="st68" d="M5803.9,778.2h620.3c0,0,88.6-209.8-38.4-298C6214,360.8,6027,615.3,6027,615.3S5814.4,547.7,5803.9,778.2z"
		/>
	<path class="st78" d="M6081.4,637.1c-37.4-43.6-160-117.4-187.2-120.3c-34.1-3.6-152.1,249.2-152.1,249.2h8.3l139-139.4
		c0,0,59.8,45.8,81.2,56.9C5992,694.5,6102.9,662.2,6081.4,637.1z"/>
	<path class="st79" d="M5913,528.8c-26,1.4-124,170-166.9,237.2h4.3l139-139.4c0,0,59.8,45.8,81.2,56.9
		c21.4,11.1,144.6-26.8,123-51.9c-16.6-19.3-62.5-44.4-96.9-66.8C5959.6,545.6,5927,528.1,5913,528.8z"/>
	<path class="st13" d="M6077.2,604.4c33.9-9.5,35.9-76.5,20.9-89c-4.2-3.6-144.7-33.8-144.7-33.8l-8.6,30.3
		C5944.8,511.9,6050,612,6077.2,604.4z"/>
	<path class="st28" d="M6098.1,515.4c-0.2-0.2-0.9-0.5-1.8-0.8c-4.3,19.3-131.2-33.4-144.4-34.4l-7.2,31.7
		c0,0,105.2,100.2,132.5,92.6C6111.1,594.9,6113.1,528,6098.1,515.4z"/>
	<path class="st23" d="M6098.1,515.4c71,10.6,104.5-35,139.9-41.4c28.6-5.2,50.9-1.7,52.8,10s-8,53.3-47.7,81
		c-39.7,27.7-165.9,39.4-165.9,39.4L6098.1,515.4z"/>
	<path class="st77" d="M6290.8,484c-1-6-22-13.1-46.1-8.8c-32.1,5.8-110.1,78.8-128.6,41.2c-2.1-0.2-15.9-0.7-18-1l-20.9,89
		c0,0,126.2-11.7,165.9-39.4C6282.9,537.3,6292.8,495.7,6290.8,484z"/>
	<path class="st80" d="M6075.5,587.2l17.9-71.6c0.8-3.1,4.1-5,7.4-4.2l5.6,1.3c2.7,0.6,4.6,2.9,4.6,5.6l-1.2,68.7L6075.5,587.2z"/>
	<path class="st81" d="M6103.4,532.2c-5.3,0-9.6-6.4-10.5-14.9l-17.5,69.9l34.4-0.2l1-59.8C6108.9,530.2,6106.3,532.2,6103.4,532.2z
		"/>
	<path class="st23" d="M6304.2,472.8c27.3,43.7,30.9,99-25,158.2s-159.7,29.2-159.7,29.2l-67.7-66.4
		C6158.1,556.8,6210.8,454.8,6304.2,472.8z"/>
	<path class="st77" d="M6154.5,550.4c0,0,72.8-46.7,87.9-48.4c15.2-1.7-35.4,41.2-35.4,41.2L6154.5,550.4z"/>
	<path class="st13" d="M6110.3,633.8c33.2-11.3,30.9-78.3,15.2-90c-4.5-3.3-146.6-25.7-146.6-25.7l-6.7,30.7
		C5972.2,548.7,6083.6,642.9,6110.3,633.8z"/>
	<path class="st28" d="M6125.5,543.8c-0.2-0.2-0.9-0.4-1.9-0.7c-3,19.5-44.3,30.1-92.2,23.6c-23.6-3.2-44.4-10-59.1-18.3l-0.1,0.4
		c0,0,111.4,94.2,138.1,85.1C6143.5,622.5,6141.2,555.5,6125.5,543.8z"/>
	<path class="st23" d="M6125.5,543.8c71.5,6.7,117.7-48.9,133.9-53.1c28-7.3,53.8-0.6,56.4,11.1c2.7,11.6-4.6,53.6-42.4,83.5
		c-37.9,29.9-163.1,48.5-163.1,48.5L6125.5,543.8z"/>
	<path class="st77" d="M6315.9,501.7c-1.4-5.9-8.7-10.9-19.3-12.7c-14.8-2.6-39.2,33.8-65.6,52.6c-48.1,34-84.7,18.5-87.3,2.2
		c-2.1-0.1-15.9,0.2-18.1,0l-15.2,90c0,0,125.2-18.7,163.1-48.5C6311.3,555.4,6318.5,513.4,6315.9,501.7z"/>
	<path class="st80" d="M6107.5,616.7l13.9-72c0.5-2.4,3-4,5.6-3.6l8.1,1.4c2.2,0.4,3.8,2.1,3.9,4.2l3,67.9L6107.5,616.7z"/>
	<path class="st81" d="M6139.6,563.8c-1.7,14.2-6.3,24.4-11.8,24.4c-4.8,0-9-7.9-11.1-19.4l-9.2,47.8l34.3-2.1L6139.6,563.8z"/>
	<path class="st69" d="M6355,465.3c-45.5-6.6-156,121.2-156,121.2s-92.6,2.9-164.8,58.5c-23.3-16.5-77.1-41-124.7-31.6
		c-44.1,8.8-88.7,62.8-94.5,94.6c-9.5,52,68.4,53.9,120.9,48.7c109-10.7,269.6-35.1,359.2-89.1C6480.3,555.9,6355,465.3,6355,465.3z
		"/>
	<path class="st67" d="M5785.3,778.2h-31.5c0,0,19.3-14.1,25.8-15.2C5786,761.9,5785.3,778.2,5785.3,778.2z"/>
	<path class="st74" d="M5749.9,778.2H5700c0,0,36.5-14.1,45.8-15.2C5755,761.9,5749.9,778.2,5749.9,778.2z"/>
	<path class="st80" d="M6307.1,477.7c-0.9-1.6-1.9-3.3-2.9-4.9c-12.9-2.5-25-2.6-36.6-1c-8.4-0.6-18.5,0.1-29.5,2.1
		c-2.5,0.4-4.9,1.1-7.4,1.9c3.6,8.7,23.6,13.4,46.7,10.5C6289.1,484.9,6299.5,481.7,6307.1,477.7z"/>
	<path class="st16" d="M6308.4,420.1l-4.2,52.7c-28.4,6.9-46.9,8.2-54,2.9l14.3-46.9L6308.4,420.1z"/>
	<path class="st13" d="M6234.2,456.4c23.6,4.1,60,1.8,68.6-20.3c9.4-24.1,27.4-82.8-6.2-87.6
		C6241.3,340.6,6237.8,424.4,6234.2,456.4z"/>
	<path class="st78" d="M6305.8,455.7c0,0,41-61.6,36.5-80.9s-45.9-44.6-75.1-35.3l3.3,13.3c0,0,28.7-1.9,34.1,17.8
		c5.3,19.7-15.2,46.1-15.2,46.1l15.6,12L6305.8,455.7z"/>
	<path class="st13" d="M6311.4,423.5c5.8-6.8,7.5-14.4,3.9-17.1s-11.2,0.7-17,7.4c-5.8,6.8-7.5,14.4-3.9,17.1
		S6305.6,430.3,6311.4,423.5z"/>
	<path class="st16" d="M6308.3,421.3c3.1-3.6,4-7.7,2.1-9.1s-6,0.4-9.1,4s-4,7.7-2.1,9.1C6301.2,426.6,6305.2,424.9,6308.3,421.3z"
		/>
	<path class="st13" d="M6305.6,420c2.2-2.6,2.9-5.6,1.5-6.7c-1.4-1-4.4,0.3-6.6,2.9s-2.9,5.6-1.5,6.7
		C6300.4,423.9,6303.3,422.6,6305.6,420z"/>
	<path class="st68" d="M6229.1,604.6c0,0,63.6,79.1-27.9,104.6l165.2-21l15.4-92.9C6307,655,6229.1,604.6,6229.1,604.6z"/>
	<path class="st13" d="M5945.7,505.8c3.2-7.7,21.1-9.6,26.6-5.2s-5.3,15.8-5.3,15.8L5945.7,505.8z"/>
	<path class="st13" d="M5935.5,510.1c2.8-8.1,19.1-11.8,24.2-7.8c5.1,3.9-4.7,16.5-4.7,16.5L5935.5,510.1z"/>
	<path class="st13" d="M5981.3,552.4c-23.6-6.8-35.4-22-38.8-27c-0.4-0.6,6.5-25.9,22.7-26.1c16.3-0.2,33.4,22,33.4,22L5981.3,552.4
		z"/>
	<path class="st13" d="M5925.9,515.6c4-7.7,20.7-9.1,25.2-4.6c4.5,4.6-7.1,15.8-7.1,15.8L5925.9,515.6z"/>
	<g>
		<path class="st14" d="M6271.6,397.1c-0.3-2.9,1.1-5.4,3-5.5c1.9-0.2,3.6,2,3.9,4.9s-1.1,5.4-3,5.5S6271.9,400,6271.6,397.1z"/>
		<path class="st78" d="M6274.1,380.1l11.5,4.6c1,0.4,1.4,1.4,1,2.2l-1.6,3.2c-0.4,0.8-1.6,1.2-2.5,0.8l-11.5-4.6
			c-1-0.4-1.4-1.4-1-2.2l1.6-3.2C6272,380.1,6273.1,379.7,6274.1,380.1z"/>
		<path class="st14" d="M6247.4,393.3c0.3-2.9,2.1-5.1,4-4.9c1.9,0.1,3.2,2.6,2.9,5.5c-0.3,2.9-2.1,5.1-4,4.9
			C6248.4,398.6,6247.1,396.1,6247.4,393.3z"/>
		<path class="st78" d="M6244,378.3l12.3-1.9c1-0.2,2,0.5,2.1,1.4l0.6,3.5c0.1,0.9-0.6,1.8-1.6,2l-12.3,1.9c-1,0.2-2-0.5-2.1-1.4
			l-0.6-3.5C6242.2,379.4,6242.9,378.5,6244,378.3z"/>
		<path class="st16" d="M6260.2,394.9c-6.7,8.3-10,13.8-8,16.9c1.2,1.9,3.8,2.3,6.1,2.3v0.2c0,0-7.4,1.5-9.6-1.5
			C6246.3,409.8,6251.1,404,6260.2,394.9z"/>
		<path class="st59" d="M6242.2,423.4l24.1,0.1c0,0-1.2,9.1-12.6,11.6C6242.4,437.6,6242.2,423.4,6242.2,423.4z"/>
		<path class="st60" d="M6245.5,429.9c-1.2-2.6-1.2-5.5-1.2-5.5l19.5,0.1c0,0-0.4,2.6-2.6,5.1L6245.5,429.9z"/>
	</g>
</g>
<g class="st0">
	<path class="st28" d="M4508.9,446.8l5,0.6c1.9,6.1,0.8,12.6-1.9,13.8C4509.3,462.4,4511.4,452.4,4508.9,446.8z"/>
	<path class="st28" d="M4506.8,449.5l-4.7-0.4c-6.6,5.9-10.9,12.7-9.6,14.5C4493.7,465.3,4500.1,454.8,4506.8,449.5z"/>
	<path class="st28" d="M4508.9,449.4l-4.6,0.5c-3.8,6-5.1,12.4-3.1,13.6C4503.1,464.7,4504.7,454.9,4508.9,449.4z"/>
	<path class="st28" d="M4511.2,449.4h-4.4c-2.5,5.9-2.5,12.4-0.3,13.9C4508.7,464.8,4508.3,454.7,4511.2,449.4z"/>
	<path class="st28" d="M4527.8,443.1c0,0-19.5-2.9-27.7,7.9l13,3.4c1.8-6.2,19.7-8.4,19.7-8.4L4527.8,443.1z"/>
	<path class="st28" d="M4531,452.8l1.5,4.4c-5.2,4.1-12,5.9-14.3,4.1C4515.9,459.6,4526.5,457.3,4531,452.8z"/>
	<path class="st13" d="M4531,456.6l-4.7-0.4c-6.6,5.9-10.9,12.7-9.6,14.5S4524.3,461.8,4531,456.6z"/>
	<path class="st13" d="M4536.2,457.4l-4.6,0.5c-3.8,6-5.1,12.4-3.1,13.6S4532,462.9,4536.2,457.4z"/>
	<path class="st13" d="M4540.8,457.6h-4.4c-2.5,5.9-2.5,12.4-0.3,13.9C4538.3,473,4537.9,462.9,4540.8,457.6z"/>
	<polygon class="st46" points="4511.9,483.3 4544.7,483.3 4544.7,778.2 4538.1,778.2 	"/>
	<g>
		<rect x="4618.9" y="601.1" class="st45" width="164" height="18.8"/>
		<polygon class="st53" points="4761.8,300.7 4853.3,300.7 4797.6,596.4 4706.1,596.4 		"/>
		<polygon class="st23" points="4750.5,300.7 4842,300.7 4786.3,596.4 4694.8,596.4 		"/>
		<polygon class="st45" points="4690.7,587.4 4716.8,587.4 4725,778.1 4718.9,778.1 		"/>
		<polygon class="st53" points="4771,587.4 4797.1,587.4 4805.3,778.1 4799.1,778.1 		"/>
		<polygon class="st53" points="4704.7,587.3 4678.7,587.4 4651.4,778.2 4657.6,778.2 		"/>
		<polygon class="st53" points="4634.5,587.4 4608.4,587.4 4580.5,778.1 4586.7,778.1 		"/>
		<rect x="4609" y="586.2" class="st53" width="183.6" height="22.8"/>
		<path class="st53" d="M4694.8,596.4l93.5,3.6l14.2-89.2c-1.1-82.4-27.6-149.6-61.6-158.7L4694.8,596.4z"/>
	</g>
	<g>
		<rect x="3860.1" y="597.2" class="st45" width="167" height="24.3"/>
		<polygon class="st45" points="3943.9,587.3 3970,587.4 3997.3,778.2 3991.1,778.2 		"/>
		<polygon class="st53" points="3886.9,300.7 3795.4,300.7 3851.1,596.4 3942.6,596.4 		"/>
		<polygon class="st23" points="3895.2,300.7 3803.7,300.7 3859.4,596.4 3950.9,596.4 		"/>
		<polygon class="st53" points="3957.9,587.4 3931.9,587.4 3923.7,778.1 3929.8,778.1 		"/>
		<polygon class="st53" points="3877.7,587.4 3851.6,587.4 3843.4,778.1 3849.5,778.1 		"/>
		<polygon class="st53" points="4014.2,587.4 4040.3,587.4 4068.1,778.1 4062,778.1 		"/>
		<rect x="3856.2" y="586.2" class="st53" width="183.6" height="22.8"/>
		<path class="st53" d="M3835.9,471.5l21.3,129.1l93.7-4.2l-55.5-294.6C3862.2,318.5,3837.1,387.7,3835.9,471.5z"/>
	</g>
	<polygon class="st82" points="4336.1,147 4297.2,147 4269.1,428.4 4308,428.4 	"/>
	<polygon class="st83" points="4296.6,316.7 4269.1,428.4 4308,428.4 4311.1,312 	"/>
	<path class="st83" d="M4334.6,162.1l1.5-15.1h-38.9l-8,80.4C4302.9,194,4319.2,170,4334.6,162.1z"/>
	<path class="st19" d="M4724.7,237.1c-33.2-73.3-108.9-95.6-135.4-54.4c-16.1,25-14.2,46.7,8.9,74.8c20,24.4,60.9,61.5,86.8,63
		C4721.6,322.6,4749.1,290.9,4724.7,237.1z"/>
	<path class="st19" d="M4736.5,284.3c-3.3-57.6-39.2-94.6-75.6-77.4c-32.3,15.3-48,66.9-39.1,112c8,40.7,34.6,67.5,62.2,62.9
		C4714.4,376.7,4739.3,335.2,4736.5,284.3z"/>
	<path class="st84" d="M4633.8,418.5c9.6-7.3,26.6-127.8,33.9-129c3.5-0.6,12.5,14.7,11.1,44.5c-1.5,32.5-13.7,80.3-17.5,97.6
		C4654,464.9,4606.4,439.4,4633.8,418.5z"/>
	<path class="st23" d="M4664.2,441.4c3-9-4.7-19.2-17.3-22.9c-12.6-3.7-25.3,0.6-28.3,9.5c-3,9,4.7,19.2,17.3,22.9
		C4648.5,454.6,4661.1,450.3,4664.2,441.4z"/>
	<path class="st13" d="M4630.3,421.1c-27.3,7.3-109.2,21.1-111.2,22.3l-1.1,4c53.9,6.9,113.4,4.9,132.4,0.5
		C4664.8,444.7,4651.6,415.5,4630.3,421.1z"/>
	<path class="st28" d="M4643.3,422c0.8,4.2-0.5,8-4.9,9.5c-17,6-68.9,13.6-119.8,13.8l-0.6,2.3c53.9,6.9,113.4,4.9,132.4,0.5
		C4661.5,445.4,4656.2,427.4,4643.3,422z"/>
	<path class="st38" d="M4700,359.4l-21,34.4c17.8,15.3,45.6,90.8-4.2,132l93.8,37.2C4803.2,509.9,4700,359.4,4700,359.4z"/>
	<path class="st84" d="M4700,359.4l-21,34.4c6.3,5.4,13.9,18.5,18.8,34.8c14.1,9.7,23.8,30.7,23.8,55.1c0,22.4-8.3,42-20.5,52.5
		l67.5,26.8C4803.2,509.9,4700,359.4,4700,359.4z"/>
	<path class="st5" d="M4583.2,536.6l99.3-17.4c37.3,4.6,88.6,18.6,90.3,41.3c1.2,15.8-13.4,29.2-31.6,29.2l-151.4-7.4L4583.2,536.6z
		"/>
	<path class="st62" d="M4772.8,560.5c-1.3-17.1-30.6-29.2-60.9-36.2c-8.9,9.3-41.7,16.1-80.9,16.1c-17.8,0-34.2-1.4-47.7-3.8v53h158
		C4759.4,589.7,4774,576.4,4772.8,560.5z"/>
	<g>
		<polygon class="st85" points="4590.1,470.8 4447.2,470.8 4450,480.4 4592.9,480.4 		"/>
		<polygon class="st85" points="4416.9,330.6 4402.5,330.6 4459.8,480.4 4474.2,480.4 		"/>
		<polygon class="st86" points="4373.8,330.6 4406.2,330.6 4463.6,480.4 4431.1,480.4 		"/>
		<path class="st87" d="M4385.8,356c9.7-3.5,22,1.3,34.8,12.2l-14.4-37.6h-32.4l10.1,26.3C4384.5,356.5,4385.1,356.2,4385.8,356z"/>
	</g>
	<polygon class="st87" points="4369.5,484.2 4310.5,310.1 4297.3,309.4 4348.3,484.2 	"/>
	<polygon class="st82" points="4350.5,484.2 4296.3,296.5 4294.8,322.6 4329.3,484.2 	"/>
	<polygon class="st86" points="4329.3,484.2 4350.5,484.2 4339.8,447.3 4320.4,442.4 	"/>
	<rect x="4242.8" y="468.9" class="st86" width="94.2" height="12.3"/>
	<polygon class="st23" points="4303.6,147 4264.7,147 4236.7,428.4 4275.6,428.4 	"/>
	<polygon class="st48" points="4243.7,357.7 4282.6,357.7 4303.6,147 4264.7,147 	"/>
	<polygon class="st88" points="4298.8,195 4303.6,147 4264.7,147 4259.2,202.3 	"/>
	<polygon class="st46" points="4221.8,483.3 4189.1,483.3 4189.1,778.2 4195.6,778.2 	"/>
	<path class="st22" d="M4026.6,300.5c47.6,47.5,28.6,95,67.1,118.4l-33.9,62.4c0,0-73.2-29.4-93.7-112.5
		C3956.8,330.9,3996.4,270.5,4026.6,300.5z"/>
	<path class="st89" d="M4030.1,380.9c-22.3-40.8-32.1-73.1-8.8-84.6c-29.3-18.9-64,36.8-55.2,72.6c20.4,83,93.7,112.5,93.7,112.5
		l25.6-51.7C4064.7,423.8,4045.9,409.8,4030.1,380.9z"/>
	<path class="st89" d="M4102.1,443.5c4.8-18.7-9.3-33.9-29.9-31.5c-18.5,2.2-32.2,17.9-32.2,33.3c0,13.7,10.9,24.2,25.4,24.8
		C4081.2,470.8,4098,459.7,4102.1,443.5z"/>
	<path class="st23" d="M4117.8,454.1c6-23.5-11.7-42.7-37.7-39.6c-23.3,2.8-40.5,22.5-40.5,41.9c0,17.2,13.7,30.4,32,31.2
		C4091.4,488.5,4112.6,474.5,4117.8,454.1z"/>
	<path class="st13" d="M4177.1,483.3h-117.9c0,0-9.1-24.2,0.4-43.7c8-16.5,29.7-23,47.2-15.1l78.5,35.4L4177.1,483.3z"/>
	<path class="st28" d="M4082.1,424.3c-5.8-3.5-18.9,8.5-22,14.3c-0.2,0.3-0.3,0.7-0.5,1c-6,12.3-4.6,26.4-2.7,35.2
		c1,5,5.8,8.5,11.2,8.5h100.7c5,0,9.4-3,10.9-7.4l0,0c2.3-6.4,2.6-20.4-4.6-21.2C4165.7,453.7,4096,432.8,4082.1,424.3z"/>
	<path class="st28" d="M4162.3,460.3c22.6-9.4,48.4-13.3,57.6-7.7c9.2,5.5,19,26.6,19,26.6h-75.2L4162.3,460.3z"/>
	<path class="st87" d="M4227.3,477.2c0-7.3-12.4-13.3-27.8-13.3c-15.3,0-27.8,5.9-27.8,13.3s12.4,13.3,27.8,13.3
		C4214.9,490.4,4227.3,484.5,4227.3,477.2z"/>
	<path class="st28" d="M4186.9,459.7c17.8,11.6,25.8,13.3,22.9,18.3c-3,5-35.1-2.5-39.2-6.6C4166.4,467.2,4186.9,459.7,4186.9,459.7
		z"/>
	<path class="st22" d="M3933.2,301.8c-85,66.9-89.9,281.5-28.6,280.5l116.3-75.4c-18.6-23.8,1-105.9,12.1-149.5
		C4043.4,316.3,4018.2,235,3933.2,301.8z"/>
	<path class="st89" d="M3930.9,413.3c0-68.2-7-118,62.2-136.8c-15.2-1.1-35,5.8-59.8,25.3c-85,66.9-89.9,281.5-28.6,280.5l68.5-44.5
		C3948.1,515.1,3930.9,467.9,3930.9,413.3z"/>
	<path class="st90" d="M4139.8,518.2l-141.9-20.4c-34.7-2.4-73.6-4.7-75.5,25.9c-1.3,21.3,21.3,66.1,41.5,66.1h175.9V518.2z"/>
	<path class="st91" d="M4023,523.1c29,0,54.6-4.6,70.2-11.6l-95.3-13.7c-21.4-1.5-44.3-2.9-59.3,3.3
		C3946.7,513.6,3981.4,523.1,4023,523.1z"/>
	<path class="st90" d="M4098.4,586.2l127.8,186.3h2.6c0,0-88-254.9-89.1-253.8C4138.7,519.7,4098.4,586.2,4098.4,586.2z"/>
	<path class="st92" d="M4619,587.4l-65.4,185.5h-2.6c0,0,22.9-229.4,30.8-233.3C4594.4,533.3,4619,587.4,4619,587.4z"/>
	<path class="st62" d="M4630.5,587.2c11,45.6,24.1,185.6,24.1,185.6h-2.6c0,0-77-188.9-72.8-227.8
		C4582.6,513.7,4626.7,571.3,4630.5,587.2z"/>
	<path class="st90" d="M4094.7,518.2l-141.9-20.4c-41.6,6.2-67.3,22.2-69.2,52.7c-1.3,21.3,14.9,39.2,35.1,39.2h175.9L4094.7,518.2
		L4094.7,518.2z"/>
	<path class="st91" d="M3983.4,530.3c43.9,0,75.9-2.6,92.7-10.8c-43.1-8.4-82.3-19-123.3-21.8c-0.3,0-0.5,0.1-0.8,0.1
		c-19.9,3-18.4,30.3,1.7,31.5C3963.2,530,3973.1,530.3,3983.4,530.3z"/>
	<path class="st90" d="M4032.1,581.9l92.8,190.6h2.6c0,0-31.5-244.4-32.8-243.3C4093.4,530.2,4032.1,581.9,4032.1,581.9z"/>
	<rect x="4165.6" y="491.3" class="st46" width="370.8" height="15.6"/>
	<polygon class="st23" points="4179.3,483.3 4146.5,483.3 4146.5,778.2 4153.1,778.2 	"/>
	<polygon class="st53" points="4171.7,568.7 4179.3,483.3 4146.5,483.3 4146.5,568.7 	"/>
	<path class="st38" d="M4666.4,289.9c-18.9,53.7-26.1,120.3-21.9,123.7c4.2,3.4,81.5-0.8,77.9-12.8
		C4711.4,363.5,4671.1,276.6,4666.4,289.9z"/>
	<path class="st84" d="M4726.2,404.4c-10.8-36.5-57.8-131.8-64-123.1c31.3,31.3,1.8,115.1-0.8,120.1c-2.6,5.2-6.5,10.4-15.3,12.8
		C4658,416.5,4729.5,415.7,4726.2,404.4z"/>
	<path class="st84" d="M4657.2,312.1l-2.7,19.3c0,0,20.3-23.4,25.6-23.2l-8.9-17.2L4657.2,312.1z"/>
	<path class="st38" d="M4655.2,440.4c7.3-11.2,14-41.2,16.3-68.6c2.7-31.5,0.7-60.1,4.6-61.3c3.5-1.1,22.4,16.1,24.2,47
		c1.9,33.6-5.3,75.8-15.1,96.9C4670.2,486.6,4636.1,469.7,4655.2,440.4z"/>
	<path class="st23" d="M4684.9,464.7c3.4-10.2-4-21.4-16.6-25.1s-25.6,1.6-29,11.8c-3.4,10.2,4,21.4,16.6,25.1
		C4668.4,480.2,4681.4,474.9,4684.9,464.7z"/>
	<path class="st13" d="M4655.3,444.8c-28.2,3.1-111.4,4.7-113.6,5.6l-1.8,3.8c52.1,14.8,111.1,21.6,130.6,20.1
		C4685.3,473.1,4677.2,442.4,4655.3,444.8z"/>
	<path class="st28" d="M4661.2,445c2.7,6.9,1.3,13.9-5.5,14.9c-17.3,2.6-66.6,0.7-114.9-7.7l-0.9,2c52.1,14.8,111.1,21.6,130.6,20.1
		C4683.9,473.2,4678.6,448,4661.2,445z"/>
	<polygon class="st16" points="4633.8,262.9 4658.4,310.4 4671.1,288.5 4649,246 	"/>
	<path class="st13" d="M4590.4,240.3c-0.3-17.7,26.8-26.8,41.2-16.4c17.9,13,16.6,49.2,16.5,53.5c-0.5,18.8-13.5,31.3-13.5,31.3
		S4591.1,276.5,4590.4,240.3z"/>
	<path class="st19" d="M4588.5,210.3c7.2,44.9,85.1,66.2,85.1,66.2s-28.9-73.5-51.2-79.3C4600.1,191.5,4588.5,210.3,4588.5,210.3z"
		/>
	<path class="st13" d="M4648.9,254.7c-2-8.5-7.5-14.6-12.2-13.6c-4.8,1-7,8.6-5,17.1c2,8.5,7.5,14.6,12.2,13.6
		C4648.6,270.9,4650.9,263.2,4648.9,254.7z"/>
	<path class="st23" d="M4663.6,778.2h-27.2c0,0,11.1-14.7,16.8-11.3C4658.9,770.3,4663.6,778.2,4663.6,778.2z"/>
	<path class="st23" d="M4122.6,778.2h27.3c0,0-20.3-14.7-26-11.3C4118.3,770.3,4122.6,778.2,4122.6,778.2z"/>
	<path class="st23" d="M4221.9,778.2h27.3c0,0-20.3-14.7-26-11.3C4217.6,770.3,4221.9,778.2,4221.9,778.2z"/>
	<path class="st23" d="M4555.9,778.2h-27.3c0,0,20.3-14.7,26-11.3C4560.2,770.3,4555.9,778.2,4555.9,778.2z"/>
	<polygon class="st23" points="4476.2,483.3 4509,483.3 4509,778.2 4502.4,778.2 	"/>
	<polygon class="st53" points="4509,569.6 4509,483.3 4476.2,483.3 4483.9,569.6 	"/>
	<path class="st23" d="M4668.5,283.3l-13.1,21.6l0.1,18.7c6.2-11.8,13.7-24.7,18.6-30.8C4672.4,284.4,4668.5,283.3,4668.5,283.3z"/>
	<path class="st16" d="M4645.4,255.4c-1.2-5-4.4-8.7-7.3-8.1c-2.8,0.6-4.2,5.1-3,10.2c1.2,5,4.4,8.7,7.3,8.1
		C4645.2,265,4646.6,260.5,4645.4,255.4z"/>
	<path class="st13" d="M4641.5,258.6c-0.7-3.2-2.8-5.5-4.6-5.1c-1.8,0.4-2.6,3.3-1.9,6.5s2.8,5.5,4.6,5.1
		C4641.4,264.7,4642.2,261.8,4641.5,258.6z"/>
	<path class="st89" d="M4009.4,370.4c-9.4-41.7-19.2-57.5-19.2-57.5l-21.8,4.1L4009.4,370.4z"/>
	<path class="st22" d="M3972.9,304.4c47.6,47.5,32.5,90.5,71,113.9l-34,63c0,0-67.8-32-88.2-115.1
		C3912.3,328.3,3942.7,274.3,3972.9,304.4z"/>
	<path class="st89" d="M4051.4,446.4c5.5-21.6-10.8-39.2-34.6-36.4c-21.4,2.5-37.2,20.7-37.2,38.5c0,15.8,12.6,28,29.4,28.7
		C4027.1,478,4046.6,465.2,4051.4,446.4z"/>
	<path class="st89" d="M3963,394.9c-26.6-44-20.4-90.2-1.4-105.1c-26.6-3.3-53.2,47.2-45.4,79.1c20.4,83,93.7,112.5,93.7,112.5
		l14.7-27.2C4004.6,446.6,3981,424.7,3963,394.9z"/>
	<path class="st23" d="M4063.4,453.6c6-23.5-11.7-42.7-37.7-39.6c-23.3,2.8-40.5,22.5-40.5,41.9c0,17.2,13.7,30.4,32,31.2
		C4037,487.9,4058.2,474,4063.4,453.6z"/>
	<path class="st13" d="M4130.8,483.3c-48.6-0.1-111.5,4.8-121.8-3.1c-10-7.8-17.2-36.1,8.1-52.8c12-7.9,27.8-8.8,41.1-2.9l81.1,35.5
		L4130.8,483.3z"/>
	<path class="st28" d="M4086.2,475.8c-45.9-5.5-64.8-32.7-73.6-45.1c-19.9,17-13,42.2-3.6,49.5c10.3,8,73.2,3.1,121.8,3.1l7-19.4
		C4127.4,463.7,4097.8,477.2,4086.2,475.8z"/>
	<path class="st13" d="M4085,460.6c15.1-16.7,58.2-14.1,66.2-8.9c8,5.3,17.5,21.3,17.5,21.3h-13.1l-7.1-9.1l-3.6,0.6l5.9,10l-16-0.6
		l-8.3-6.9C4126.6,466.9,4057.7,490.7,4085,460.6z"/>
	<polygon class="st23" points="4197.9,471.1 4116.5,471.1 4111.8,479.9 4193.2,479.9 	"/>
	<rect x="4045.5" y="478" class="st23" width="586.2" height="15.6"/>
	<path class="st89" d="M4026.8,300.8c-10.7-21-32.2-33.6-67.2-16.1c-0.1,1.1-0.2,2.3-0.2,3.5c0,18.9,19.7,34.2,44,34.2
		c13,0,24.6-4.4,32.6-11.3C4033.2,307.6,4030.2,304.2,4026.8,300.8z"/>
	<path class="st23" d="M4027.3,300.1c-7.7-19.1-25-29.7-51.5-21.8c-1.7,12.9,8.5,26.1,24.7,30.9c11.3,3.3,22.8,1.7,30.9-3.5
		C4030,304.1,4028.9,301.8,4027.3,300.1z"/>
	<path class="st16" d="M3986.8,276l27.8-36.6l32,15.6l-20.1,45.8C4026.4,300.9,3988.4,308.7,3986.8,276z"/>
	<path class="st13" d="M4017.4,197.7c-10.8,16.7-10.6,78.2-8.1,82.2c2.5,4.1,23.2,10,47.8,10.9c12-24.4,11.7-80.2,2.3-92.2
		C4050.4,187.1,4026.2,184.1,4017.4,197.7z"/>
	<path class="st61" d="M4026.8,237.9c-1.4-2.5-2.1-25-0.4-47.4c-3.6,1.6-6.8,4.2-9,7.9c-10.8,18.2-13.9,85.7-11.4,90.1
		c2.5,4.4,37.1,13.8,61.8,14.9c-4.5-19.5,0.3-33-2-49.4C4045,252.1,4029.1,241.8,4026.8,237.9z"/>
	<path class="st61" d="M3996.9,262.9l11.5-10.6l3-8.6l10.7-2.2c0,0-0.7-41.7,9.2-47.3c14.9-8.3,27.6,3.6,27.6,3.6
		c14-11-28.1-29.9-48.4-14.1C3971.8,188.4,3996.9,262.9,3996.9,262.9z"/>
	<path class="st13" d="M4015.2,237.8c-2.2-7.9-7.6-13.5-12.1-12.4s-6.3,8.4-4.1,16.3c2.2,7.9,7.6,13.5,12.1,12.4
		C4015.6,253.1,4017.4,245.8,4015.2,237.8z"/>
	<path class="st16" d="M4011.7,238.7c-1.3-4.5-4.3-7.6-6.9-7c-2.5,0.6-3.6,4.8-2.3,9.2c1.3,4.5,4.3,7.6,6.9,7
		C4011.9,247.3,4012.9,243.2,4011.7,238.7z"/>
	<path class="st13" d="M4012.1,240.1c-0.7-2.7-2.6-4.5-4.1-4.2c-1.5,0.4-2.1,2.8-1.4,5.5s2.6,4.5,4.1,4.2S4012.9,242.8,4012.1,240.1
		z"/>
	<g>
		<path class="st14" d="M4049.2,236.3c-0.1-2.7-1.6-4.9-3.4-4.9s-3.1,2.3-3,5s1.6,4.9,3.4,4.9C4048,241.2,4049.4,239,4049.2,236.3z"
			/>
		<path class="st61" d="M4052.7,223.2l-11.6,1.6c-1,0.1-1.6,1-1.5,1.8l0.6,3.3c0.2,0.9,1.1,1.5,2.1,1.3l11.6-1.6
			c1-0.1,1.6-1,1.5-1.8l-0.6-3.3C4054.6,223.6,4053.6,223,4052.7,223.2z"/>
		<path class="st14" d="M4065.7,237.1c-0.1-2.7-1.1-4.9-2.3-4.9s-2.1,2.3-2,5s1.1,4.9,2.3,4.9S4065.8,239.9,4065.7,237.1z"/>
		<path class="st61" d="M4068.9,225.5l-6.9-1.4c-0.6-0.1-1,0.5-1,1.4v3.3c0,0.9,0.5,1.7,1.1,1.8l6.9,1.4c0.6,0.1,1-0.5,1-1.4v-3.3
			C4070,226.5,4069.5,225.6,4068.9,225.5z"/>
		<path class="st16" d="M4058.2,234.3c4.3,8.9,6,14.6,3.6,17.1c-1.5,1.5-4,1.4-6,1v0.2c0,0,6.4,2.8,9.1,0.5
			C4067.6,250.7,4064.5,244.3,4058.2,234.3z"/>
		<path class="st93" d="M4055.2,261.1c1.5-1.7,2.1-1.8,2.1-1.8l-14.6-2.7c0,0-0.2,0,0.9,2.1L4055.2,261.1z"/>
	</g>
	<g>
		<g>
			<path class="st14" d="M4605,268.3c-1.5-2.3-1.9-4.7-0.7-5.4s3.3,0.7,4.9,3c1.5,2.3,1.9,4.7,0.7,5.4S4606.5,270.6,4605,268.3z"/>
			<path class="st71" d="M4593.9,258l10.2-3.7c1.3-0.5,2.7,0,3.2,1l1.1,2.1c0.5,1,0,2.3-1.3,2.7l-10.2,3.7c-1.3,0.5-2.7,0-3.2-1
				l-1.1-2.1C4592.1,259.6,4592.7,258.4,4593.9,258z"/>
		</g>
		<path class="st16" d="M4606.3,276c0,0,0.5,0.3,1.3,0.8c0,4.2,1.1,10.9,6.6,7.2c0,0.2,0.1,0.3,0.2,0.5
			C4605.9,292.2,4605.9,278.9,4606.3,276z"/>
		<path class="st16" d="M4621.3,288.7c0.1,0.1,0.3,0.1,0.4,0.1c1.5,0.3,3-1.2,3.4-3.2c0.3-1.8-0.4-3.4-1.7-4L4621.3,288.7z"/>
	</g>
	<path class="st13" d="M4552.1,450.2c0,0-19.5-2.9-27.7,7.9l13,3.4c1.8-6.2,19.7-8.4,19.7-8.4L4552.1,450.2z"/>
</g>
<g class="st0">
	<g>
		<rect x="6641.1" y="119.5" class="st94" width="166.4" height="91.8"/>
		<rect x="6630.5" y="426.5" class="st94" width="166.4" height="26"/>
		<polygon class="st94" points="7002.5,119.5 7016.6,119.5 6978.4,776.5 6964.4,776.5 		"/>
		<polygon class="st94" points="6637,119.5 6651.1,119.5 6612.9,776.5 6598.9,776.5 		"/>
		<polygon class="st95" points="6686.2,369.8 6672.2,369.8 6710.3,776.5 6724.4,776.5 		"/>
		<polygon class="st95" points="7051.7,369.8 7037.7,369.8 7075.8,776.5 7089.9,776.5 		"/>
		<polygon class="st95" points="7027.1,119.5 6648.6,119.5 6686.8,526.2 7065.3,526.2 		"/>
		<polygon class="st7" points="7012,126.5 6667.2,126.5 6701.9,497 7046.7,497 		"/>
		<path class="st96" d="M6899.7,177.2c42.3,0,82.5,6.8,118.8,19.1l-6.5-69.7h-344.8l11.9,126.5
			C6733,206.5,6811.8,177.2,6899.7,177.2z"/>
		<polygon class="st34" points="6735.6,434.2 6823.8,290.9 6862,362.6 6914.4,268.7 6932.1,287.4 6976.8,171.4 6938.5,307 
			6915,280.9 6870.1,388.7 6826.5,323 6752.8,471.9 6754.9,434 		"/>
		<polygon class="st34" points="6957.6,192.9 6970.5,190.9 6977.7,206.2 6984.8,154.4 		"/>
		<g>
			<polygon class="st34" points="7014.2,455.9 6782.5,453.4 6782.5,446.9 7014.3,449.4 			"/>
		</g>
		<g>
			<polygon class="st34" points="6738,394.1 6714.3,175.6 6721.2,174.9 6745,393.4 			"/>
		</g>
	</g>
	<g>
		<path class="st97" d="M7311.8,54.5c-8-10.8-7.5-24.2-7.5-24.2c14.7,0.8,32.8,14.5,32.8,14.5c35.9,5.1,31.7,26.7,31.7,26.7
			c10.4,8.9-1.4,35.6-1.4,35.6s2,19.5-21.7,29.5l-38.7-33c1.3-11.8,5.9-24.5,5.9-24.5C7306.9,63.7,7311.8,54.5,7311.8,54.5z"/>
		<path class="st19" d="M7314,773.9h-2.8L7256.6,534l-6.4-2.2l-163.6,242.1h-3.4L7190,404.7c0,0,164.8,19,164.7,21.6
			C7351.1,607.6,7314,773.9,7314,773.9z"/>
		<path class="st98" d="M7339,626.2c7.6-57.9,14.4-127.7,15.9-199.9c0.1-2.7-164.7-21.6-164.7-21.6l-17.6,61
			C7190.7,446.3,7339.2,440.8,7339,626.2z"/>
		<path class="st5" d="M7250.8,316.1c-22.9,54-73.9,53.5-84.1,51.2c-18.3-4.2-14.3-45.6-3.6-68.4c10.7-22.8,71.9-104.4,93.3-110.5
			S7258.4,298.1,7250.8,316.1z"/>
		<path class="st3" d="M7264.6,197.2c-2.1,18.2-16.5,43.2-39.8,65.9c-21.1,20.6-44.5,34.5-63.1,39c-9.6,23.3-12.6,61.3,5,65.2
			c10.2,2.3,61.2,2.8,84.1-51.2C7256.9,301.6,7270.7,223.8,7264.6,197.2z"/>
		
			<ellipse transform="matrix(4.644739e-02 -0.9989 0.9989 4.644739e-02 6520.1157 7476.6353)" class="st34" cx="7176.2" cy="323.2" rx="53.8" ry="32.3"/>
		<path class="st5" d="M7347.9,350.5c2.1,53.3,41.7,70.7,50.1,72.6c15.1,3.3,28.2-28.8,29.4-51.4c1.3-24.4-3-125.1-34.3-165.3
			C7374.8,182.9,7347.1,330.5,7347.9,350.5z"/>
		<path class="st3" d="M7387.7,262.7c-0.8-22-19.2-26.9-29-16.2c-11.6,39.3-17.8,96-17.4,107.9c2.1,53.3,48.3,66.9,56.7,68.7
			c10.7,2.3,20.5-13.3,25.6-30.7C7405.9,390,7389.4,314.9,7387.7,262.7z"/>
		<path class="st5" d="M7355.9,472.5c-80.8-28.2-171.6-52.4-171.6-52.4s36.7-205.8,62.2-226.1s82.9-36.1,93-34.6
			s48.4,31.2,56.3,52.4C7403.7,233,7355.9,472.5,7355.9,472.5z"/>
		<g>
			<path class="st3" d="M7210.1,296.1c-14.5,60.1-25.9,124-25.9,124s15.3,4.1,38.8,10.8C7206.1,401.1,7200.9,351.6,7210.1,296.1z"/>
			<path class="st3" d="M7294.2,452.2c20.1,6.3,41.2,13.2,61.7,20.3c0,0,17.9-89.7,30-164.2C7366.7,378,7360.5,453.5,7294.2,452.2z"
				/>
		</g>
		<path class="st3" d="M7339.4,159.3c-6.7-1-34.6,5.8-60,16.4c7.6,10.7,27,18.4,49.7,18.4c18,0,33.9-4.8,43.5-12.1
			C7359.6,169.8,7345.1,160.1,7339.4,159.3z"/>
		<path class="st13" d="M7169.9,365.4c27.8-0.2,32.9-70,21.8-84.4c-11.2-14.3-60-60.1-72.3-64.1l-8,7.4
			C7111.4,224.4,7138,365.6,7169.9,365.4z"/>
		<path class="st28" d="M7126.9,259.3c-4.6-6.4-8.6-12.8-12.2-19.1c8,36.9,29.9,125.3,55.2,125.2c18.2-0.1,26.6-29.9,27.2-54.6
			C7181.5,315.2,7151.3,293.4,7126.9,259.3z"/>
		<path class="st16" d="M7348.2,163.2c6.1-27,8-63.6,8-63.6l-41.4,15.8l-13,51.9C7301.6,167.4,7321.6,186.7,7348.2,163.2z"/>
		<path class="st13" d="M7360.1,80.9c3.7,16.4-17.6,66.4-21.2,68.9s-42.2,1.5-42.6-3.4c-1.4-20.9,16-63.8,27.3-71.9
			C7335,66.5,7357.2,67.6,7360.1,80.9z"/>
		<polygon class="st99" points="7330.7,265.3 7363.2,272.9 7358.7,294.4 7326.2,286.8 		"/>
		<polygon class="st99" points="7347.3,262.5 7353.1,263.9 7351.1,272.3 7345.2,270.9 		"/>
		<polygon class="st100" points="7332.7,268.1 7343.6,270.6 7340.2,287.3 7329.3,284.7 		"/>
		<path class="st23" d="M7306,778.2h18.2c0,0-9.5-12.2-12.2-11S7306,778.2,7306,778.2z"/>
		<path class="st34" d="M7439.3,387.9c5-27.1-5-51.3-22.2-54s-35.2,17-40.2,44.1s5,51.3,22.2,54
			C7416.4,434.8,7434.4,415,7439.3,387.9z"/>
		<path class="st13" d="M7398.6,419.9c-27.6-8.9-12.2-73.8,3.2-83.4c15.3-9.5,77.4-35.7,90.7-35.5l5.7,9.2
			C7498.2,310.3,7430.2,430.1,7398.6,419.9z"/>
		<path class="st28" d="M7473.6,341.8c-32.1,20-67,25.4-84.2,14.4c-8.3,22.9-10.3,57.3,9.2,63.6c22.2,7.2,62.4-49.9,84.3-84.4
			C7479.9,337.7,7476.8,339.8,7473.6,341.8z"/>
		<polygon class="st34" points="7320.8,186.7 7312.1,172.6 7348.9,161.8 7353.6,166 		"/>
		<polygon class="st34" points="7298.3,180.3 7313,172.4 7302.1,163.9 7297.6,167.4 		"/>
		<polygon class="st97" points="7355.8,71.2 7343.7,120.6 7349.2,122.8 7357.5,114.4 7365.5,81.8 		"/>
		<path class="st13" d="M7348.7,117.8c4.6-4.6,10.5-6.8,13.4-5c2.8,1.8,1.4,6.9-3.2,11.5c-4.6,4.6-10.5,6.8-13.4,5
			C7342.7,127.5,7344.2,122.4,7348.7,117.8z"/>
		<path class="st16" d="M7351,119.8c2.7-2.7,6.3-4.1,8-3s0.8,4.2-1.9,6.9c-2.7,2.7-6.3,4.1-8,3
			C7347.4,125.6,7348.3,122.6,7351,119.8z"/>
		<path class="st13" d="M7350.5,119.7c1.8-1.8,4.1-2.7,5.2-2s0.5,2.7-1.2,4.5s-4.1,2.7-5.2,2
			C7348.2,123.5,7348.7,121.5,7350.5,119.7z"/>
		<polygon class="st98" points="7233.5,516.6 7084.9,775.5 7087.9,776.1 7248.3,534.8 7284.6,531.5 		"/>
		<path class="st23" d="M7088.8,778.2h-29.2c0,0,24.3-12.2,27.7-11C7090.6,768.4,7088.8,778.2,7088.8,778.2z"/>
		<polygon class="st53" points="7263.8,453.6 7245.9,448.3 7243.7,459.7 7261.6,465 		"/>
		<path class="st13" d="M7509.6,294.7c-3.1,1.2-14.2,4.4-19.4,13.8l-11.1-1.9c5.9-7.7,17.5-17.1,27.7-19
			C7513.9,286.4,7512.7,293.5,7509.6,294.7z"/>
		<path class="st13" d="M7478.3,334.2l0.4-28c0,0,4.9-5.1,17.6-6.4c0,0,6.6,6.8,17.8,4.1c5.2-1.2,0.5,20.6-5.7,25
			C7506,330.6,7487.1,334,7478.3,334.2z"/>
		<path class="st13" d="M7525.6,297.7c-2.2,1.4-9.8,7.2-21.3,6.6l4.1,7c4.6,0.6,13.9-2.9,18.6-5.8
			C7531.6,302.5,7527.8,296.3,7525.6,297.7z"/>
		<path class="st13" d="M7530.5,306.1c-2.6,1.3-11.5,6.7-24.5,5.5l4.2,7.2c5.2,0.9,14.3-2.3,19.7-5S7533.1,304.9,7530.5,306.1z"/>
		<path class="st13" d="M7524.5,319.2c-3.3,0.9-14.8,5.1-29.5,2.3l3.2,7.5c5.8,1.5,17-0.4,23.9-2.3
			C7529,324.7,7527.8,318.3,7524.5,319.2z"/>
		<g>
			<path class="st14" d="M7333.1,100.4c0.4-2.5,2-4.3,3.7-4.1c1.6,0.2,2.6,2.4,2.2,4.8c-0.4,2.5-2,4.3-3.7,4.1
				C7333.7,105,7332.7,102.8,7333.1,100.4z"/>
			<path class="st97" d="M7335.6,86l10.4,2.6c0.9,0.2,1.4,1,1.1,1.8l-1,2.9c-0.3,0.8-1.2,1.2-2,1l-10.4-2.6c-0.9-0.2-1.4-1-1.1-1.8
				l1-2.9C7333.8,86.2,7334.7,85.7,7335.6,86z"/>
			<path class="st14" d="M7310.9,97.5c0.5-2.5,2.2-4.3,3.8-4c1.6,0.2,2.5,2.4,2.1,4.9c-0.5,2.5-2.2,4.3-3.8,4
				C7311.4,102.1,7310.4,99.9,7310.9,97.5z"/>
			<path class="st97" d="M7308.6,85.1l10.7-0.7c0.9-0.1,1.7,0.5,1.7,1.4l0.2,3.1c0,0.8-0.6,1.5-1.5,1.6l-10.7,0.7
				c-0.9,0.1-1.7-0.5-1.7-1.4l-0.2-3.1C7307,85.9,7307.7,85.1,7308.6,85.1z"/>
			<path class="st16" d="M7320.1,103.3c-4.7,4-7.4,7.6-5.6,10.4c1.1,1.7,3.2,2.3,4.8,2.5v0.1c0,0-5.9,0.4-8.2-2.3
				C7308.7,111,7313.4,107.3,7320.1,103.3z"/>
			<path class="st59" d="M7306.3,122.8l18.5,1.8c0,0-1.9,7.6-9.1,9.5C7307.8,136.3,7306.3,122.8,7306.3,122.8z"/>
			<path class="st60" d="M7310.6,127.8c-0.8-1.8-0.8-3.9-0.8-3.9l13.2,1.5c0,0-0.6,1.6-2.1,3L7310.6,127.8z"/>
		</g>
		<path class="st13" d="M7092.8,207.3c3.1,1.2,14.2,4.4,19.4,13.8l11.1-1.9c-5.9-7.7-17.5-17.1-27.7-19
			C7088.5,198.9,7089.6,206.1,7092.8,207.3z"/>
		<path class="st13" d="M7124,246.8l-0.4-28c0,0-4.9-5.1-17.6-6.4c0,0-6.6,6.8-17.8,4.1c-5.2-1.2-0.5,20.6,5.7,25
			C7096.3,243.1,7115.2,246.6,7124,246.8z"/>
		<path class="st13" d="M7076.8,210.3c2.2,1.4,9.8,7.2,21.3,6.6l-4.1,7c-4.6,0.6-13.9-2.9-18.6-5.8
			C7070.8,215.1,7074.5,208.9,7076.8,210.3z"/>
		<path class="st13" d="M7071.9,218.7c2.6,1.3,11.5,6.7,24.5,5.5l-4.2,7.2c-5.2,0.9-14.3-2.3-19.7-5
			C7067,223.8,7069.3,217.5,7071.9,218.7z"/>
		<path class="st13" d="M7077.9,231.8c3.3,0.9,14.8,5.1,29.5,2.3l-3.2,7.5c-5.8,1.5-17-0.4-23.9-2.3
			C7073.4,237.3,7074.6,230.9,7077.9,231.8z"/>
	</g>
</g>
</svg>
