<?xml version="1.0" encoding="utf-8"?>
<!-- Generator: Adobe Illustrator 23.0.5, SVG Export Plug-In . SVG Version: 6.00 Build 0)  -->
<svg version="1.1" id="Слой_1" xmlns="http://www.w3.org/2000/svg" xmlns:xlink="http://www.w3.org/1999/xlink" x="0px" y="0px"
	 viewBox="0 0 163.85 332.09" style="enable-background:new 0 0 163.85 332.09;" xml:space="preserve">
<path d="M76.42,0c1.82,0.21,3.65,0.4,5.47,0.65c17.38,2.39,32.03,10.05,43.87,22.96c10.41,11.35,16.53,24.77,18.37,40.06
	c1.64,13.58-0.44,26.63-6.17,39.07c-18.26,39.65-36.52,79.3-54.84,118.93c-1.04,2.26-2.42,4.46-4.05,6.33
	c-4.03,4.61-9.43,4.61-13.46,0c-1.66-1.9-3.03-4.14-4.09-6.43c-17.38-37.57-34.69-75.18-52.03-112.77
	c-2.84-6.15-5.65-12.28-7.33-18.89c-8.45-33.26,8.3-68.6,39.4-83.03c8.21-3.81,16.8-6.09,25.84-6.68C67.71,0.16,68,0.06,68.29,0
	C71,0,73.71,0,76.42,0z M28.97,72.22c-0.07,23.91,19.35,43.41,43.3,43.48c23.92,0.07,43.41-19.34,43.48-43.3
	c0.07-23.92-19.34-43.41-43.3-43.48C48.53,28.86,29.03,48.27,28.97,72.22z"/>
<path d="M11.11,249.55c0.06,8.23,0.83,15.5,1.83,21.63c1.39,8.51,2.68,16.42,7.15,25.85c1.96,4.13,5.23,10.88,11.92,17.78
	c3.07,3.17,10.69,10.85,23.47,14.85c3.54,1.11,12.65,3.56,24.2,1.83c17.39-2.59,28.15-12.82,31.35-15.95
	c8-7.82,11.64-15.94,14.12-21.45c4.29-9.56,5.72-17.79,6.78-24.2c1.35-8.09,1.65-14.98,1.65-19.98L11.11,249.55z"/>
<path d="M110.11,316.42c0.55-0.37,10.08-4.87,10.08-4.87c6.78-3.3,12.34-6.18,16.32-8.29c9.8-5.2,11.91-6.71,13.75-8.25
	c3.39-2.83,7.97-6,11.43-12.77c1.86-3.66,2.87-8.82,1.59-13.81c-1.73-6.76-8.19-10.97-13.2-12.28c-4.99-1.31-10.51-0.26-12.83,0.18
	c-1.3,0.25-3.14,0.67-3.88,0.88l-0.43,5.26l-0.76,5.91c0.77-0.43,1.87-1,3.24-1.54c1.1-0.43,3.56-1.4,6.11-1.59
	c1.63-0.12,6.45-0.47,9.41,2.93c2.66,3.06,2.78,7.69,1.22,10.27c-1.41,2.33-2.52,3.59-5.62,5.99c-2.79,2.16-5.24,3.51-11.98,6.84
	c-2.37,1.17-6.93,3.57-10.54,5.3c-0.39,0.85-1.42,2.91-1.85,3.77c-2.52,5.1-4.04,7.03-7.26,11L110.11,316.42z"/>
<path d="M228.22-429.56c0.07,9.01,0.91,16.97,2.01,23.69c1.52,9.32,2.93,17.98,7.83,28.3c2.14,4.52,5.73,11.92,13.05,19.47
	c3.37,3.47,11.71,11.88,25.69,16.26c3.88,1.21,13.85,3.89,26.5,2.01c19.04-2.84,30.82-14.04,34.33-17.46
	c8.76-8.57,12.75-17.45,15.46-23.49c4.69-10.46,6.26-19.48,7.43-26.5c1.48-8.85,1.81-16.4,1.81-21.88L228.22-429.56z"/>
<path d="M336.63-356.34c0.6-0.4,11.03-5.34,11.03-5.34c7.43-3.61,13.51-6.77,17.87-9.07c10.73-5.69,13.04-7.35,15.06-9.03
	c3.72-3.1,8.73-6.57,12.51-13.98c2.04-4,3.14-9.66,1.74-15.12c-1.89-7.4-8.97-12.01-14.45-13.45c-5.46-1.43-11.51-0.28-14.05,0.2
	c-1.42,0.27-3.43,0.74-4.25,0.97l-0.47,5.76l-0.83,6.47c0.84-0.48,2.05-1.1,3.55-1.69c1.2-0.47,3.9-1.54,6.69-1.74
	c1.78-0.13,7.07-0.51,10.3,3.21c2.91,3.35,3.05,8.42,1.34,11.24c-1.55,2.55-2.76,3.93-6.16,6.56c-3.06,2.36-5.74,3.84-13.11,7.49
	c-2.59,1.28-7.59,3.91-11.54,5.8c-0.43,0.93-1.55,3.19-2.02,4.13c-2.76,5.58-4.42,7.7-7.95,12.04L336.63-356.34z"/>
</svg>
