<?xml version="1.0" encoding="utf-8"?>
<!-- Generator: Adobe Illustrator 22.1.0, SVG Export Plug-In . SVG Version: 6.00 Build 0)  -->
<svg version="1.1" id="Слой_1" xmlns="http://www.w3.org/2000/svg" xmlns:xlink="http://www.w3.org/1999/xlink" x="0px" y="0px"
	 viewBox="0 0 25 31.2" style="enable-background:new 0 0 25 31.2;" xml:space="preserve">
<g>
	<path d="M24.4,0H0.6C0.3,0,0,0.3,0,0.6v4.8h6.1v2.3h0.5V5.4H15l-2.4,14.2H9.2c0.1-0.1,0.2-0.2,0.3-0.3c0.5-0.5,0.8-1.2,0.8-1.9
		c0-0.1,0-3.9,0-4c0-0.6-0.3-1.1-0.6-1.1H3.1c-0.4,0-0.6,0.4-0.6,1.1V14h-1c-0.2,0-0.4,0.2-0.4,0.4V16c0,0.2,0.2,0.4,0.4,0.4h1v0.4
		c0,0.3,0,0.5,0,0.6h0c0,0.8,0.3,1.5,0.8,1.9c0.1,0.1,0.2,0.2,0.3,0.3H0v4.8C0,24.7,0.3,25,0.6,25h23.8c0.3,0,0.6-0.3,0.6-0.6V0.6
		C25,0.3,24.7,0,24.4,0z M2.5,15.9H1.6v-1.5h0.9V15.9z M3.6,19c-0.4-0.4-0.6-1-0.6-1.6v-0.1h0c0-0.5,0-2.7,0-3.9
		c0-0.3,0.1-0.5,0.1-0.6h6.6c0,0,0.1,0.2,0.1,0.6c0,1.2,0,3.9,0,4c0,0.6-0.2,1.2-0.6,1.6c-0.4,0.4-0.9,0.6-1.4,0.6H5
		C4.5,19.6,3.9,19.4,3.6,19z M24.5,24.4c0,0.1-0.1,0.1-0.1,0.1H0.6c-0.1,0-0.1-0.1-0.1-0.1v-4.3H5h2.7h5.4l2.5-15.2H0.5V0.6
		c0-0.1,0.1-0.1,0.1-0.1h23.8c0.1,0,0.1,0.1,0.1,0.1C24.5,0.6,24.5,24.4,24.5,24.4z M21.9,19.9h-4c-0.4,0-0.7,0.2-0.7,0.4v1.6
		c0,0.3,0.3,0.4,0.7,0.4h4c0.4,0,0.7-0.2,0.7-0.4v-1.6C22.5,20,22.3,19.9,21.9,19.9z M22.1,21.8c0,0-0.1,0-0.2,0h-4
		c-0.1,0-0.1,0-0.2,0v-1.4c0,0,0.1,0,0.2,0h4c0.1,0,0.1,0,0.2,0V21.8z M6.6,9.8H6.1v-1h0.5V9.8z M6.1,10.5h0.5v1H6.1V10.5z"/>
</g>
</svg>
