<?xml version="1.0" encoding="utf-8"?>
<!-- Generator: Adobe Illustrator 22.1.0, SVG Export Plug-In . SVG Version: 6.00 Build 0)  -->
<svg version="1.1" id="Слой_1" xmlns="http://www.w3.org/2000/svg" xmlns:xlink="http://www.w3.org/1999/xlink" x="0px" y="0px"
	 viewBox="0 0 100 125" style="enable-background:new 0 0 100 125;" xml:space="preserve">
<path d="M84,27.8h-8.9V5H24.9v22.8H16c-4.6,0-8.4,3.8-8.4,8.4V71c0,4.6,3.8,8.4,8.4,8.4h8.9V95h50.2V79.4H84c4.6,0,8.4-3.8,8.4-8.4
	V36.2C92.4,31.6,88.6,27.8,84,27.8z M27,7h46.1v20.8H27C27,27.8,27,7,27,7z M73.1,93H27V63.6h46.1V93z M89.3,71
	c0,2.9-2.4,5.3-5.3,5.3h-8.9V62.7h4.5c0.6,0,1-0.5,1-1s-0.5-1-1-1h-4.5H24.9h-4.5c-0.6,0-1,0.5-1,1s0.5,1,1,1h4.5v13.6H16
	c-2.9,0-5.3-2.4-5.3-5.3V36.2c0-2.9,2.4-5.3,5.3-5.3h68c2.9,0,5.3,2.4,5.3,5.3L89.3,71L89.3,71z"/>
<path d="M31.6,69.6h36.8c0.6,0,1-0.5,1-1s-0.5-1-1-1H31.6c-0.6,0-1,0.5-1,1S31.1,69.6,31.6,69.6z"/>
<path d="M31.6,76.1h36.8c0.6,0,1-0.5,1-1s-0.5-1-1-1H31.6c-0.6,0-1,0.5-1,1S31.1,76.1,31.6,76.1z"/>
<path d="M31.6,82.5h36.8c0.6,0,1-0.5,1-1s-0.5-1-1-1H31.6c-0.6,0-1,0.5-1,1S31.1,82.5,31.6,82.5z"/>
<path d="M31.6,89h36.8c0.6,0,1-0.5,1-1s-0.5-1-1-1H31.6c-0.6,0-1,0.5-1,1S31.1,89,31.6,89z"/>
<path d="M81.9,40h-4.1c-1.1,0-2-0.9-2-2s0.9-2,2-2h4.1c1.1,0,2,0.9,2,2S83,40,81.9,40z"/>
<path d="M71.2,40h-4.1c-1.1,0-2-0.9-2-2s0.9-2,2-2h4.1c1.1,0,2,0.9,2,2S72.3,40,71.2,40z"/>
<path d="M60.4,40h-4.1c-1.1,0-2-0.9-2-2s0.9-2,2-2h4.1c1.1,0,2,0.9,2,2S61.5,40,60.4,40z"/>
</svg>
