<?xml version="1.0" encoding="utf-8"?>
<!-- Generator: Adobe Illustrator 22.1.0, SVG Export Plug-In . SVG Version: 6.00 Build 0)  -->
<svg version="1.1" id="Слой_1" xmlns="http://www.w3.org/2000/svg" xmlns:xlink="http://www.w3.org/1999/xlink" x="0px" y="0px"
	 viewBox="0 0 20.5 19.8" style="enable-background:new 0 0 20.5 19.8;" xml:space="preserve">
<path d="M19.6,6.9l-5.8-0.6l-2.6-5.6c-0.2-0.3-0.5-0.5-0.9-0.5S9.6,0.4,9.4,0.8L6.8,6.4L1,6.9C0.6,7,0.3,7.2,0.2,7.5
	c-0.1,0.3,0,0.7,0.2,1l4.3,4.4l-1,5.5c-0.1,0.4,0.1,0.7,0.4,0.9c0.3,0.2,0.7,0.3,1,0.1l5.3-2.6l5.3,2.6c0.1,0.1,0.3,0.1,0.4,0.1
	c0.2,0,0.4-0.1,0.6-0.2c0.3-0.2,0.4-0.6,0.4-0.9l-1-5.6l4.3-4.4c0.3-0.3,0.3-0.6,0.2-1C20.3,7.2,20,7,19.6,6.9z M15,12.4
	c-0.1,0.1-0.2,0.3-0.1,0.4l1.1,5.8l-5.5-2.7c-0.1,0-0.1,0-0.2,0s-0.1,0-0.2,0l-5.5,2.7l1.1-5.8c0-0.2,0-0.3-0.1-0.4L1.1,7.9l6.1-0.6
	c0.2,0,0.3-0.1,0.4-0.3l2.7-5.8l0,0l0,0L13,7c0.1,0.2,0.2,0.3,0.4,0.3l6.1,0.6L15,12.4z"/>
</svg>
