<?xml version="1.0" encoding="utf-8"?>
<!-- Generator: Adobe Illustrator 22.1.0, SVG Export Plug-In . SVG Version: 6.00 Build 0)  -->
<svg version="1.1"
	 id="Слой_1" xmlns:cc="http://creativecommons.org/ns#" xmlns:dc="http://purl.org/dc/elements/1.1/" xmlns:inkscape="http://www.inkscape.org/namespaces/inkscape" xmlns:rdf="http://www.w3.org/1999/02/22-rdf-syntax-ns#" xmlns:sodipodi="http://sodipodi.sourceforge.net/DTD/sodipodi-0.dtd" xmlns:svg="http://www.w3.org/2000/svg"
	 xmlns="http://www.w3.org/2000/svg" xmlns:xlink="http://www.w3.org/1999/xlink" x="0px" y="0px" viewBox="0 0 100 125"
	 style="enable-background:new 0 0 100 125;" xml:space="preserve">
<g transform="translate(0,-952.36216)">
	<path d="M50,957.4c-19.7,0-35.6,15.9-35.6,35.6c0,0,0,0,0,0c0,15,9.4,28.3,23.5,33.4l12.1,21l12.1-21c14.1-5.1,23.4-18.4,23.5-33.4
		C85.6,973.3,69.7,957.4,50,957.4C50,957.4,50,957.4,50,957.4z M50,966.6c14.6,0,26.4,11.8,26.4,26.4c0,14.6-11.8,26.4-26.4,26.4
		c-14.6,0-26.4-11.8-26.4-26.4l0,0C23.6,978.4,35.4,966.6,50,966.6C50,966.6,50,966.6,50,966.6z"/>
	<path d="M53,975.5c-5.4,2.8-16.4,8.2-16.4,8.2v5.9l9.9,20.7l1-0.2l15.8-10.4v-1.1L47.5,1009l0-4.4l15.7-9.8L53,975.5L53,975.5z"/>
</g>
</svg>
