<?xml version="1.0" encoding="utf-8"?>
<!-- Generator: Adobe Illustrator 22.1.0, SVG Export Plug-In . SVG Version: 6.00 Build 0)  -->
<svg version="1.1" id="Слой_1" xmlns="http://www.w3.org/2000/svg" xmlns:xlink="http://www.w3.org/1999/xlink" x="0px" y="0px"
	 viewBox="0 0 1702.3 3239.3" style="enable-background:new 0 0 1702.3 3239.3;" xml:space="preserve">
<style type="text/css">
	.st0{font-family:'HelveticaNeue-Bold';}
	.st1{font-size:1.376px;}
</style>
<g>
	<path d="M1319.4,1606.4c0-31.4-25.3-39.4-52-39.4V1891c0,23.7-19.3,42.9-42.7,42.9h-62.2v1018.5h117c21.7,0,39.9-17.9,39.9-39.9
		V1606.4L1319.4,1606.4z M1130.9,2952.5c-7.7-48.4-49.8-85.3-99.3-85.3H633.6c-49.8,0-91.9,36.9-99.3,85.3H1130.9L1130.9,2952.5z
		 M1132,1933.9H533.2v949.7c24.2-28.9,60.5-47.1,100.5-47.1h397.9c39.9,0,76.2,18.2,100.5,47.1V1933.9L1132,1933.9z M315.2,1606.4
		c0-49,38.5-69.9,82.6-69.9h149.2c3.3-15.4,11.6-29.2,23.4-39.6c-32.2-9.9-62.2-25.6-88.6-45.4c-46.8-35.5-82.6-84.8-101.3-141.7
		c-22.8-0.8-41-19.8-41-42.7v-90.3c0-17.3,10.7-33,26.4-39.4v-99.6c-16.2-6.9-26.4-21.5-26.4-39.6v-90c0-17.3,10.5-33,26.4-39.6V769
		c-15.7-6.6-26.4-22-26.4-39.4v-90.3c0-17.6,10.7-33,26.4-39.6v-99.3c-15.7-6.9-26.4-22.3-26.4-39.6v-90.3
		c0-17.9,11.3-33.6,27.2-39.9c6.9-55.3,54.2-98,110.9-98h710c56.4,0,104,42.7,110.6,98c16.2,6.3,27.5,22,27.5,39.9v90.3
		c0,17.3-10.7,32.7-26.4,39.6v99.3c15.7,6.6,26.4,22,26.4,39.6v90.3c0,17.3-10.7,32.7-26.4,39.4v99.6c15.7,6.6,26.4,22.3,26.4,39.6
		v90c0,17.1-11,33-26.4,39.6v99.6c15.7,6.3,26.4,22,26.4,39.4v90.3c0,22.8-18.2,41.8-41,42.7c-18.7,57-54.5,106.2-101.6,141.7
		c-26.4,19.8-56.1,35.5-88.6,45.4c11.8,10.5,20.4,24.2,23.7,39.6h149.2c44.6,0,82.6,21.5,82.6,69.9v1306.1
		c0,38.8-31.6,70.5-70.5,70.5H385.7c-38.8,0-70.5-31.6-70.5-70.5V1606.4L315.2,1606.4z M502.6,1933.9h-62.2
		c-23.7,0-42.7-19.3-42.7-42.9v-323.9c-26.1,0-52,7.4-52,39.4v1306.1c0,22,17.9,39.9,39.9,39.9h117V1933.9L502.6,1933.9z
		 M1236.9,1567.1H428.3V1891c0,6.9,5.5,12.4,12.1,12.4h784.3c6.6,0,12.1-5.5,12.1-12.4V1567.1z M578.9,1536.5h507.5
		c-6.3-16-21.7-26.4-38.8-26.4H617.4C600.3,1510.1,585.2,1520.6,578.9,1536.5L578.9,1536.5z M1008.7,1479.6
		c58.6,0,112.6-19.5,156.3-52.6c39.1-29.7,69.9-70.2,87.2-117H412.6c17.6,46.8,48.2,87.2,87.5,117c43.5,33,97.7,52.6,156.3,52.6
		H1008.7L1008.7,1479.6z M1268.5,1041.2H396.4v93h872.1V1041.2z M1268.5,865.3v-93H396.4v93H1268.5z M396.4,596.4h872.1v-92.7H396.4
		V596.4z M1267.2,327.8c-8-37.2-41-64.7-79.5-64.7h-710c-38.8,0-71.8,27.5-79.5,64.7H1267.2L1267.2,327.8z M382.4,1279.2h900.5
		c6.9,0,12.1-5.2,12.1-12.1v-90.3c0-6.6-5.5-12.1-12.1-12.1H382.4c-6.9,0-12.4,5.5-12.4,12.1v90.3
		C370,1272.9,375.8,1279.2,382.4,1279.2z M382.4,1010.6h900.5c6.9,0,12.1-5.5,12.1-12.4v-90c0-6.9-5.5-12.4-12.1-12.4H382.4
		c-3.6,0-6.6,1.4-8.8,3.6c-2.2,2.2-3.6,5.2-3.6,8.8v90C370,1005.1,375.5,1010.6,382.4,1010.6z M382.4,741.7h900.5
		c6.9,0,12.1-5.2,12.1-12.1v-90.3c0-6.6-5.5-12.4-12.1-12.4H382.4c-6.9,0-12.4,5.8-12.4,12.4v90.3
		C370,735.4,375.8,741.7,382.4,741.7z M382.4,472.9h900.5c6.6,0,12.1-5.2,12.1-12.1v-90.3c0-6.6-5.5-12.1-12.1-12.1H382.4
		c-6.9,0-12.4,5.5-12.4,12.1v90.3C370,466.5,375.8,472.9,382.4,472.9z"/>
	<path d="M990,2134.6c31.4,0,58.1,21.2,65.8,50.6c13.5,0,27,0,40.5,0V2341c0,46.2-38,84.2-84.2,84.2h-42.9
		c-46.2,0-84.2-38-84.2-84.2v-155.8h39.6C932.2,2155.8,958.9,2134.6,990,2134.6z M1056.6,2215.8c-10.7,53.1-79.3,74.9-117.5,31.4
		c-7.7-8.8-13.2-19.5-15.4-31.4h-8V2341c0,29.4,23.9,53.4,53.4,53.4h42.9c29.4,0,53.7-23.9,53.7-53.4v-125.2H1056.6z M1016.4,2176.1
		c-23.4-23.4-63.6-6.9-63.6,26.1c0,33.3,40.2,49.8,63.6,26.4C1031,2214.1,1031,2190.7,1016.4,2176.1L1016.4,2176.1z"/>
	<path d="M674.1,2134.6c31.1,0,57.8,21.2,65.5,50.6c13.5,0,27,0,40.5,0V2341c0,46.2-37.7,84.2-83.9,84.2h-43.2
		c-46.2,0-83.9-38-83.9-84.2v-155.8h39.4C616,2155.8,642.7,2134.6,674.1,2134.6z M740.4,2215.8c-10.5,53.1-79.3,74.9-117.2,31.4
		c-8-8.8-13.2-19.5-15.7-31.4h-8V2341c0,29.4,24.2,53.4,53.4,53.4h43.2c29.2,0,53.4-23.9,53.4-53.4v-125.2H740.4z M700.5,2176.1
		c-23.7-23.4-63.8-6.9-63.8,26.1c0,33.3,40.2,49.8,63.8,26.4C714.8,2214.1,714.8,2190.7,700.5,2176.1L700.5,2176.1z"/>
	<path d="M1019.2,1779.3h151.4c19.5,0,35.2,15.7,35.2,35.2v36.6c0,19.3-15.7,35.2-35.2,35.2h-151.4c-19.5,0-35.2-16-35.2-35.2v-36.6
		C984,1795,999.7,1779.3,1019.2,1779.3z M1170.6,1794.4h-151.4c-11,0-20.1,9.1-20.1,20.1v36.6c0,11,9.1,19.8,20.1,19.8h151.4
		c11,0,20.1-8.8,20.1-19.8v-36.6C1190.6,1804.9,1181,1794.4,1170.6,1794.4z"/>
	<path d="M1137.3,1806c23.7,0,35.8,28.9,18.7,45.7c-16.8,16.8-45.7,5-45.7-19C1110.3,1818.1,1122.4,1806,1137.3,1806L1137.3,1806z
		 M1145.2,1824.7c-10.7-10.7-27,5.5-16.2,16.2C1139.7,1851.7,1156,1835.4,1145.2,1824.7z"/>
	<path d="M1052.5,1806c23.9,0,35.8,28.9,19,45.7c-16.8,16.8-45.7,5-45.7-19C1025.8,1818.1,1037.9,1806,1052.5,1806z M1060.8,1824.7
		c-10.7-10.7-27,5.5-16.2,16.2C1055.2,1851.7,1071.5,1835.4,1060.8,1824.7z"/>
</g>
<text transform="matrix(1 0 0 1 315.2147 2987.1567)" class="st0 st1">Created by ayu</text>
<text transform="matrix(1 0 0 1 315.2147 2988.5337)" class="st0 st1">from the Noun Project</text>
</svg>
