<?xml version="1.0" encoding="utf-8"?>
<!-- Generator: Adobe Illustrator 22.1.0, SVG Export Plug-In . SVG Version: 6.00 Build 0)  -->
<svg version="1.1" id="Слой_1" xmlns="http://www.w3.org/2000/svg" xmlns:xlink="http://www.w3.org/1999/xlink" x="0px" y="0px"
	 viewBox="0 0 24 30" style="enable-background:new 0 0 24 30;" xml:space="preserve">
<path d="M10.4,17.6c0.8-0.8,2-0.8,2.8,0L11.8,19L10.4,17.6z M7.6,14.8c2.3-2.3,6.1-2.3,8.5,0l-1.4,1.4c-1.6-1.6-4.1-1.6-5.7,0
	L7.6,14.8z M4.8,11.9C8.7,8,15,8,18.9,11.9l-1.4,1.4c-3.1-3.1-8.2-3.1-11.3,0L4.8,11.9z M2,9.2C2,9.2,2,9.1,2,9.2
	C7.5,3.7,16.3,3.6,21.8,9l-1.4,1.4C15.7,5.8,8.2,5.9,3.5,10.5c0,0-0.1,0.1-0.1,0.1L2,9.2z"/>
</svg>
