<?xml version="1.0" encoding="utf-8"?>
<!-- Generator: Adobe Illustrator 22.1.0, SVG Export Plug-In . SVG Version: 6.00 Build 0)  -->
<svg version="1.1" id="Слой_1" xmlns="http://www.w3.org/2000/svg" xmlns:xlink="http://www.w3.org/1999/xlink" x="0px" y="0px"
	 viewBox="0 0 64 80" style="enable-background:new 0 0 64 80;" xml:space="preserve">
<g>
	<path d="M63,42v-8h-2.7c-0.1-0.4-0.3-0.8-0.5-1.2l1.9-1.9L57,26.2V18c0-2.8-2.2-5-5-5H39.7l-3.7-8.9C35.2,2.2,33.4,1,31.3,1H12
		C9.2,1,7,3.2,7,6v9l-3.8,3.8l2.5,2.5c-0.5,0.8-0.8,1.7-1.1,2.6H1v8h3.6c0.3,0.9,0.6,1.8,1.1,2.6l-2.5,2.5L7,41v22h50V49.8l4.7-4.7
		l-1.9-1.9c0.2-0.4,0.3-0.8,0.5-1.2H63z M52,15c1.7,0,3,1.3,3,3v1H32.7l0.2-0.2l-5.7-5.7l-2.5,2.5c-0.8-0.5-1.7-0.8-2.6-1.1V11h-8
		v3.6c-0.9,0.3-1.8,0.6-2.6,1.1L9,13.3V9h26.8l2.5,6H52z M12,3h19.3c1.2,0,2.3,0.7,2.8,1.8L35,7H9V6C9,4.3,10.3,3,12,3z M7.8,34.3
		c-0.7-1.1-1.2-2.3-1.5-3.5L6.2,30H3v-4h3.2l0.2-0.8c0.3-1.2,0.8-2.4,1.5-3.5L8.2,21L6,18.8L8.8,16l2.2,2.2l0.7-0.4
		c1.1-0.7,2.3-1.2,3.5-1.5l0.8-0.2V13h4v3.2l0.8,0.2c1.2,0.3,2.4,0.8,3.5,1.5l0.7,0.4l2.2-2.2l2.8,2.8L27.8,21l0.4,0.7
		c0.7,1.1,1.2,2.3,1.5,3.5l0.2,0.8H33v4h-3.2l-0.2,0.8c-0.3,1.2-0.8,2.4-1.5,3.5L27.8,35l2.2,2.2L27.2,40L25,37.8l-0.7,0.4
		c-1.1,0.7-2.3,1.2-3.5,1.5L20,39.8V43h-4v-3.2l-0.8-0.2c-1.2-0.3-2.4-0.8-3.5-1.5L11,37.8L8.8,40L6,37.2L8.2,35L7.8,34.3z M24,53
		c0-2.8,2.2-5,5-5s5,2.2,5,5s-2.2,5-5,5S24,55.8,24,53z M30,59.9c0.6-0.1,1.1-0.2,1.6-0.4l0.9,1.5H30V59.9z M28,59.9V61h-2.5
		l0.9-1.5C26.9,59.7,27.4,59.8,28,59.9z M33.1,61l1.2-0.7l-1-1.8c0.4-0.3,0.8-0.7,1.2-1.2l1.8,1l1-1.7l-1.8-1c0.2-0.5,0.3-1,0.4-1.6
		H38v-2h-2.1c-0.1-0.6-0.2-1.1-0.4-1.6l1.8-1l-1-1.7l-1.8,1c-0.3-0.4-0.7-0.8-1.2-1.2l1-1.8l-1.7-1l-1,1.8c-0.5-0.2-1-0.3-1.6-0.4
		V44h-2v2.1c-0.6,0.1-1.1,0.2-1.6,0.4l-1-1.8l-1.7,1l1,1.8c-0.4,0.3-0.8,0.7-1.2,1.2l-1.8-1l-1,1.7l1.8,1c-0.2,0.5-0.3,1-0.4,1.6H20
		v2h2.1c0.1,0.6,0.2,1.1,0.4,1.6l-1.8,1l1,1.7l1.8-1c0.3,0.4,0.7,0.8,1.2,1.2l-1,1.8l1.2,0.7H9V42.7l2.4-2.4
		c0.8,0.5,1.7,0.8,2.6,1.1V45h8v-3.6c0.9-0.3,1.8-0.6,2.6-1.1l2.5,2.5l5.7-5.7l-2.5-2.5c0.5-0.8,0.8-1.7,1.1-2.6H35v-8h-3.6
		c-0.3-0.9-0.6-1.8-1.1-2.6l0.4-0.4H55v5.3l-0.8,0.8c-0.4-0.2-0.8-0.3-1.2-0.5V24h-8v2.7c-0.4,0.1-0.8,0.3-1.2,0.5l-1.9-1.9
		l-5.7,5.7l1.9,1.9c-0.2,0.4-0.3,0.8-0.5,1.2H35v8h2.7c0.1,0.4,0.3,0.8,0.5,1.2l-1.9,1.9l5.7,5.7l1.9-1.9c0.4,0.2,0.8,0.3,1.2,0.5
		V52h8v-2.7c0.4-0.1,0.8-0.3,1.2-0.5l0.8,0.8V61H33.1z M58.9,45.1l-2.8,2.8l-1.5-1.5l-0.7,0.4c-0.7,0.4-1.4,0.7-2.1,0.9L51,47.8V50
		h-4v-2.2l-0.7-0.2c-0.8-0.2-1.5-0.5-2.1-0.9l-0.7-0.4l-1.5,1.5l-2.8-2.8l1.5-1.5l-0.4-0.7c-0.4-0.7-0.7-1.4-0.9-2.1L39.2,40H37v-4
		h2.2l0.2-0.7c0.2-0.8,0.5-1.5,0.9-2.1l0.4-0.7l-1.5-1.5l2.8-2.8l1.5,1.5l0.7-0.4c0.7-0.4,1.4-0.7,2.1-0.9l0.7-0.2V26h4v2.2l0.7,0.2
		c0.8,0.2,1.5,0.5,2.1,0.9l0.7,0.4l1.5-1.5l2.8,2.8l-1.5,1.5l0.4,0.7c0.4,0.7,0.7,1.4,0.9,2.1l0.2,0.7H61v4h-2.2l-0.2,0.7
		c-0.2,0.8-0.5,1.5-0.9,2.1l-0.4,0.7L58.9,45.1z"/>
	<path d="M49,32c-3.3,0-6,2.7-6,6s2.7,6,6,6s6-2.7,6-6S52.3,32,49,32z M49,42c-2.2,0-4-1.8-4-4s1.8-4,4-4s4,1.8,4,4S51.2,42,49,42z"
		/>
	<path d="M18,35c3.9,0,7-3.1,7-7s-3.1-7-7-7s-7,3.1-7,7S14.1,35,18,35z M18,23c2.8,0,5,2.2,5,5s-2.2,5-5,5s-5-2.2-5-5S15.2,23,18,23
		z"/>
	<path d="M29,56c1.7,0,3-1.3,3-3s-1.3-3-3-3s-3,1.3-3,3S27.3,56,29,56z M29,52c0.6,0,1,0.4,1,1s-0.4,1-1,1s-1-0.4-1-1S28.4,52,29,52
		z"/>
</g>
</svg>
