<?xml version="1.0" encoding="utf-8"?>
<!-- Generator: Adobe Illustrator 22.1.0, SVG Export Plug-In . SVG Version: 6.00 Build 0)  -->
<svg version="1.1" id="Слой_1" xmlns="http://www.w3.org/2000/svg" xmlns:xlink="http://www.w3.org/1999/xlink" x="0px" y="0px"
	 viewBox="0 0 64 80" style="enable-background:new 0 0 64 80;" xml:space="preserve">
<title>tv-television-home-theater-furniture</title>
<g>
	<path d="M59,23h-2V3c0-0.6-0.4-1-1-1H8C7.4,2,7,2.4,7,3v20H5c-1.7,0-3,1.3-3,3v12c0,1.7,1.3,3,3,3h0.6l-1,1C3.1,42.3,2,43.5,2,45
		v16c0,0.6,0.4,1,1,1h4c0.5,0,0.9-0.3,1-0.8L8.8,58h46.4l0.8,3.2c0.1,0.4,0.5,0.8,1,0.8h4c0.6,0,1-0.4,1-1V45c0-1.5-1.1-2.7-2.5-3
		l-1-1H59c1.7,0,3-1.3,3-3V26C62,24.3,60.7,23,59,23z M9,4h46v19h-2c-1.7,0-3,1.3-3,3v2H14v-2c0-1.7-1.3-3-3-3H9V4z M43,38h-6.2
		l-0.7-4H50v4c0,1.7,1.3,3,3,3h0.6l-1,1H46v-1C46,39.3,44.7,38,43,38z M29,32H14v-2h36v2H29z M34.8,38h-5.6l0.7-4h4.3L34.8,38z
		 M27.8,34l-0.7,4H21c-1.7,0-3,1.3-3,3v1h-6.6l-1-1H11c1.7,0,3-1.3,3-3v-4H27.8z M20,41c0-0.6,0.4-1,1-1h22c0.6,0,1,0.4,1,1v1H20V41
		z M5,39c-0.6,0-1-0.4-1-1V26c0-0.6,0.4-1,1-1h6c0.6,0,1,0.4,1,1v12c0,0.6-0.4,1-1,1H5z M8.6,42H7.4L8,41.4L8.6,42z M6.2,60H4v-2
		h2.7L6.2,60z M60,60h-2.2l-0.5-2H60V60z M59,44c0.6,0,1,0.4,1,1v11H4V45c0-0.6,0.4-1,1-1H59z M55.4,42l0.6-0.6l0.6,0.6H55.4z
		 M60,38c0,0.6-0.4,1-1,1h-6c-0.6,0-1-0.4-1-1V26c0-0.6,0.4-1,1-1h6c0.6,0,1,0.4,1,1V38z"/>
	<path d="M56,31c-1.7,0-3,1.3-3,3s1.3,3,3,3s3-1.3,3-3S57.7,31,56,31z M56,35c-0.6,0-1-0.4-1-1s0.4-1,1-1s1,0.4,1,1S56.6,35,56,35z"
		/>
	<rect x="55" y="27" width="2" height="2"/>
	<path d="M8,31c-1.7,0-3,1.3-3,3s1.3,3,3,3s3-1.3,3-3S9.7,31,8,31z M8,35c-0.6,0-1-0.4-1-1s0.4-1,1-1s1,0.4,1,1S8.6,35,8,35z"/>
	<rect x="7" y="27" width="2" height="2"/>
	<path d="M6,49v2c0,1.7,1.3,3,3,3h46c1.7,0,3-1.3,3-3v-2c0-1.7-1.3-3-3-3H9C7.3,46,6,47.3,6,49z M56,49v2c0,0.6-0.4,1-1,1H9
		c-0.6,0-1-0.4-1-1v-2c0-0.6,0.4-1,1-1h46C55.6,48,56,48.4,56,49z"/>
	<path d="M32,24c4.4,0,8-3.6,8-8s-3.6-8-8-8s-8,3.6-8,8C24,20.4,27.6,24,32,24z M32,10c3.3,0,6,2.7,6,6s-2.7,6-6,6s-6-2.7-6-6
		C26,12.7,28.7,10,32,10z"/>
	<path d="M29.5,19.9c0.3,0.2,0.7,0.2,1,0l5-3c0.5-0.3,0.6-0.9,0.3-1.4c-0.1-0.1-0.2-0.3-0.3-0.3l-5-3c-0.5-0.3-1.1-0.1-1.4,0.3
		C29,12.6,29,12.8,29,13v6C29,19.4,29.2,19.7,29.5,19.9z M31,14.8l2.1,1.2L31,17.2V14.8z"/>
</g>
</svg>
