<?xml version="1.0" encoding="utf-8"?>
<!-- Generator: Adobe Illustrator 22.1.0, SVG Export Plug-In . SVG Version: 6.00 Build 0)  -->
<svg version="1.1" id="Слой_1" xmlns="http://www.w3.org/2000/svg" xmlns:xlink="http://www.w3.org/1999/xlink" x="0px" y="0px"
	 viewBox="0 0 77.9 91.4" style="enable-background:new 0 0 77.9 91.4;" xml:space="preserve">
<style type="text/css">
	.st0{fill:#FFFFFF;}
</style>
<path d="M38.9,0.5c21,0,38.1,17,38.1,38.1c0,21.5-21.5,37.1-36.6,51.7c-0.8,0.8-2.1,0.8-2.9,0C22.4,75.7,0.9,60.1,0.9,38.6
	C0.9,17.6,17.9,0.5,38.9,0.5z"/>
<path class="st0" d="M38.9,9c16.2,0,29.3,13.1,29.3,29.3c0,11.9-7.1,22.1-17.2,26.7c-3.7,1.7-7.8,2.6-12.1,2.6
	c-4.4,0-8.6-1-12.3-2.7c-10.1-4.6-17-14.8-17-26.6C9.6,22.2,22.7,9,38.9,9L38.9,9z"/>
<path d="M54.4,45.4c-0.4-0.3-1-0.5-1.4-0.5H25c-0.4,0-1.1,0.2-1.4,0.5l-4.8,3.8c-0.3,0.3-0.6,0.9-0.6,1.3v2.3c0,0.4,0.4,0.8,0.8,0.8
	h40c0.4,0,0.8-0.4,0.8-0.8v-2.3c0-0.4-0.3-1-0.6-1.3L54.4,45.4z M48,52.4H29.8c-0.4,0-0.8-0.3-0.8-0.7s0.4-0.8,0.8-0.8H48
	c0.4,0,0.8,0.3,0.8,0.8C48.8,52.1,48.5,52.4,48,52.4z"/>
<path d="M24.9,43.1h28c0.4,0,0.8-0.4,0.8-0.8V23.9c0-0.4-0.4-0.8-0.8-0.8h-28c-0.4,0-0.8,0.4-0.8,0.8v18.4
	C24.1,42.8,24.5,43.1,24.9,43.1z M26.5,26.2c0-0.4,0.4-0.8,0.8-0.8h23.3c0.4,0,0.8,0.4,0.8,0.8V40c0,0.4-0.4,0.8-0.8,0.8H27.3
	c-0.4,0-0.8-0.4-0.8-0.8V26.2z"/>
</svg>
