<?xml version="1.0" encoding="utf-8"?>
<!-- Generator: Adobe Illustrator 22.1.0, SVG Export Plug-In . SVG Version: 6.00 Build 0)  -->
<svg version="1.1" id="Слой_1" xmlns="http://www.w3.org/2000/svg" xmlns:xlink="http://www.w3.org/1999/xlink" x="0px" y="0px"
	 viewBox="0 0 91.8 73.1" style="enable-background:new 0 0 91.8 73.1;" xml:space="preserve">
<path d="M88.9,56.5l-3.1-25.4c-0.1-9-7.4-16.3-16.4-16.4L50.5,13c-0.2,0-0.5,0-0.7-0.1V8.6h-1.9V3.1h-4.6v5.5h-1.9v4.3
	c-0.2,0-0.5,0-0.7,0.1l-18.9,1.7c-9,0.1-16.4,7.4-16.4,16.4L2.2,56.5c-0.6,2.7-0.3,5.3,0.8,7.7c2,4.3,6.3,7.2,10.9,7.3
	c0.1,0,0.1,0,0.2,0c5.4,0,10.2-3.5,11.7-8.7l2.6-7.9c1.2,0.4,2.6,0.7,3.9,0.7c6,0,11-4.5,11.8-10.3h2.7c0.9,5.8,5.9,10.3,12,10.3
	c1.3,0,2.6-0.2,3.9-0.7l2.6,7.9c1.6,5.2,6.5,8.8,12,8.7c4.6-0.1,8.9-2.9,10.9-7.3C89.3,61.8,89.6,59.2,88.9,56.5z M84,62.3
	c-1.3,2.8-4,4.6-6.8,4.6c-3.4,0.1-6.5-2.2-7.5-5.5l-3-9.2c-0.1-0.4-0.3-0.9-0.5-1.3c-0.3-0.6-0.8-1.1-1.4-1.3s-1.4-0.1-1.9,0.3
	c-1.2,0.8-2.5,1.2-4,1.2c-4,0-7.3-3.3-7.3-7.3c0-0.2,0-0.4,0-0.6c0-0.6-0.2-1.3-0.6-1.7c-0.4-0.5-1-0.7-1.7-0.7h-7.2
	c-0.6,0-1.3,0.3-1.7,0.7c-0.4,0.5-0.7,1.1-0.6,1.7c0,0.2,0,0.4,0,0.6c0,4-3.3,7.3-7.3,7.3c-1.4,0-2.8-0.4-4-1.2
	c-0.6-0.4-1.3-0.5-1.9-0.3s-1.2,0.7-1.4,1.3c-0.2,0.5-0.4,0.9-0.5,1.3l-3,9.3c-1,3.3-4.1,5.5-7.5,5.4c-2.8-0.1-5.5-1.9-6.8-4.6
	c-0.7-1.6-0.9-3.1-0.5-4.8c0-0.1,0-0.2,0-0.3l3-25.6c0-0.1,0-0.2,0-0.3c0-6.6,5.4-11.9,11.9-11.9c0.1,0,0.1,0,0.2,0l19-1.7
	c2.3-0.2,3.4-0.3,4.5-0.3s2.3,0.1,4.5,0.3l19,1.7c0.1,0,0.1,0,0.2,0c6.6,0,11.9,5.4,11.9,11.9c0,0.1,0,0.2,0,0.3l3.1,25.6
	c0,0.1,0,0.2,0,0.3C84.8,59.1,84.7,60.7,84,62.3z M37.1,43.7c0,2.6-2.1,4.7-4.7,4.7c-2.6,0-4.7-2.1-4.7-4.7s2.1-4.7,4.7-4.7
	C35,39,37.1,41.1,37.1,43.7z M63.4,43.7c0,2.6-2.1,4.7-4.7,4.7S54,46.3,54,43.7s2.1-4.7,4.7-4.7S63.4,41.1,63.4,43.7z M30.5,33.9
	h-5.1V39h-4.6v-5.1h-5.1v-4.6h5.1v-5.1h4.6v5.1h5.1V33.9z M41.7,29.3h7.7v4.6h-7.7V29.3z M66.6,26.3c0-1.6,1.3-2.8,2.8-2.8
	c1.6,0,2.8,1.3,2.8,2.8c0,1.6-1.3,2.8-2.8,2.8C67.8,29.1,66.6,27.8,66.6,26.3z M72.2,37c0,1.6-1.3,2.8-2.8,2.8
	c-1.6,0-2.8-1.3-2.8-2.8c0-1.6,1.3-2.8,2.8-2.8C71,34.2,72.2,35.4,72.2,37z M77.6,31.6c0,1.6-1.3,2.8-2.8,2.8
	c-1.6,0-2.8-1.3-2.8-2.8c0-1.6,1.3-2.8,2.8-2.8S77.6,30.1,77.6,31.6z M66.8,31.6c0,1.6-1.3,2.8-2.8,2.8c-1.6,0-2.8-1.3-2.8-2.8
	c0-1.6,1.3-2.8,2.8-2.8C65.6,28.8,66.8,30.1,66.8,31.6z"/>
</svg>
