<?xml version="1.0" encoding="utf-8"?>
<!-- Generator: Adobe Illustrator 22.1.0, SVG Export Plug-In . SVG Version: 6.00 Build 0)  -->
<svg version="1.1" id="Слой_1" xmlns="http://www.w3.org/2000/svg" xmlns:xlink="http://www.w3.org/1999/xlink" x="0px" y="0px"
	 viewBox="0 0 312.6 379.6" style="enable-background:new 0 0 312.6 379.6;" xml:space="preserve">
<style type="text/css">
	.st0{fill:#FFFFFF;}
</style>
<path d="M156.7,5.9c83.7,0,151.5,67.8,151.5,151.5c0,85.7-85.7,147.6-145.6,206c-3.2,3.2-8.4,3.2-11.7,0
	C90.9,305,5.2,243.1,5.2,157.4C5.2,73.7,73,5.9,156.7,5.9z"/>
<path class="st0" d="M156.7,46.1c61.5,0,111.3,49.8,111.3,111.3c0,45.1-26.8,83.8-65.3,101.4c-14,6.4-29.6,9.9-46,9.9
	c-16.7,0-32.5-3.7-46.7-10.2c-38.2-17.6-64.6-56.3-64.6-101.1C45.4,95.9,95.2,46.1,156.7,46.1L156.7,46.1z"/>
<path d="M165.2,96.9c-5.8,6.4-3.5,12.2-1,18.4c2.6,6.5,5.4,13.4,1.2,22.3l-2.6-1.2c3.6-7.7,1.1-14.1-1.3-19.9
	c-2.9-7.1-5.5-13.7,1.5-21.4L165.2,96.9L165.2,96.9z"/>
<path d="M100.6,160.3L100.6,160.3z"/>
<path d="M120.4,189.5v-32.8c-8,0-15-1.3-19.8,3.6c-4.6,4.6-3.6,10.2-3.6,17.1c0,6.7,5.5,12.1,12.1,12.1L120.4,189.5L120.4,189.5z"/>
<path d="M123.1,149.5v39.6c0,10.6,8.7,19.3,19.3,19.3H177c10.6,0,19.3-8.7,19.3-19.3v-40.5c0-2-1.6-3.6-3.6-3.6h-65.2
	c-2,0-3.1,1.3-3.2,1.3C123.6,147.1,123.1,148.3,123.1,149.5L123.1,149.5z"/>
<path d="M157,84.3c-7.5,8.4-4.5,15.9-1.2,24.1c3.4,8.4,7,17.5,1.6,29.1l-3.4-1.6c4.8-10.1,1.4-18.4-1.6-26.1
	c-3.7-9.3-7.2-17.9,1.9-28L157,84.3L157,84.3z"/>
<path class="st0" d="M162.8,21.5c1.2,0,2.1,0.9,2.1,2.1s-0.9,2.1-2.1,2.1c-0.4,0-0.8-0.1-1.1-0.3c-1.5-0.1-3.1-0.1-4.6-0.1
	c-73.7,0-133.7,58.6-135.8,131.8V157c0.1,0.2,0.2,0.5,0.2,0.8c0,1.1-0.9,2-2,2s-2-0.9-2-2c0-0.4,0.1-0.7,0.3-1l0,0
	C18,82,78.7,21.4,153.6,21.4c2.8,0,5.6,0.1,8.4,0.3l0,0C162.2,21.5,162.5,21.5,162.8,21.5L162.8,21.5z"/>
</svg>
