<?xml version="1.0" encoding="utf-8"?>
<!-- Generator: Adobe Illustrator 22.1.0, SVG Export Plug-In . SVG Version: 6.00 Build 0)  -->
<svg version="1.1" id="Слой_1" xmlns="http://www.w3.org/2000/svg" xmlns:xlink="http://www.w3.org/1999/xlink" x="0px" y="0px"
	 viewBox="0 0 100 125" style="enable-background:new 0 0 100 125;" xml:space="preserve">
<title>Kitchenware 2</title>
<path d="M35.9,49.4c-0.2,0.2,0.5,1,3-0.6c12.1-7.9-5.9-11.5,2.6-20.1c0,0-1.5-1.2-5,2.2C30.1,37.9,44.9,40.8,35.9,49.4z"/>
<path d="M27.8,49.5c-0.1,0.1,0.4,0.8,2.2-0.4c9.1-6-4.5-8.6,1.9-15.1c0,0-1.1-0.9-3.7,1.7C23.5,40.9,34.6,43.1,27.8,49.5z"/>
<path d="M45.5,49.5c-0.1,0.1,0.4,0.8,2.2-0.4c9.1-6-4.5-8.6,1.9-15.1c0,0-1.1-0.9-3.7,1.7C41.2,40.9,52.3,43.1,45.5,49.5z"/>
<path d="M56.5,52.7h-35c-0.4,0-0.7,0.3-0.7,0.7c0,4.1,2.5,7.9,6.4,9.5v0.9c0,0.6,0.5,1.1,1.1,1.1h21.5c0.6,0,1.1-0.5,1.1-1.1v0v-0.9
	c3.8-1.6,6.4-5.3,6.4-9.5C57.3,53,56.9,52.7,56.5,52.7z"/>
<path d="M90.6,15.2H9.4c-2.4,0-4.4,2-4.4,4.4l0,0v54.3c0,2.4,2,4.4,4.4,4.4H12v3.5c0,1.7,1.4,3,3,3c0,0,0,0,0,0H24c1.7,0,3-1.4,3-3
	c0,0,0,0,0,0v-3.5h46v3.5c0,1.7,1.4,3,3,3c0,0,0,0,0,0H85c1.7,0,3-1.4,3-3c0,0,0,0,0,0v-3.5h2.6c2.4,0,4.4-2,4.4-4.4c0,0,0,0,0,0
	V19.6C95,17.2,93,15.2,90.6,15.2C90.6,15.2,90.6,15.2,90.6,15.2z M73,38.2c0-0.4,0.3-0.7,0.7-0.7h4c0.4,0,0.7,0.3,0.7,0.7
	c0,0,0,0,0,0v2.5c0,0.4-0.3,0.7-0.7,0.7h-4c-0.4,0-0.7-0.3-0.7-0.7V38.2z M80.5,68.7c-3,0-5.5-2.5-5.5-5.5s2.5-5.5,5.5-5.5
	s5.5,2.5,5.5,5.5S83.5,68.7,80.5,68.7z M66,64.4c0,2.4-2,4.4-4.4,4.4c0,0,0,0,0,0H16.4c-2.4,0-4.4-2-4.4-4.4V29c0-2.4,2-4.4,4.4-4.4
	l0,0h45.3c2.4,0,4.4,2,4.4,4.4c0,0,0,0,0,0V64.4z M88,40.7c0,0.4-0.3,0.7-0.7,0.7h-4c-0.4,0-0.7-0.3-0.7-0.7v-2.5
	c0-0.4,0.3-0.7,0.7-0.7h4c0.4,0,0.7,0.3,0.7,0.7c0,0,0,0,0,0V40.7z M88,32c0,0.9-0.7,1.6-1.6,1.6H74.6c-0.9,0-1.6-0.7-1.6-1.6
	c0,0,0,0,0,0v-5.7c0-0.9,0.7-1.6,1.6-1.6c0,0,0,0,0,0h11.8c0.9,0,1.6,0.7,1.6,1.6V32z"/>
</svg>
