<?xml version="1.0" encoding="utf-8"?>
<!-- Generator: Adobe Illustrator 22.1.0, SVG Export Plug-In . SVG Version: 6.00 Build 0)  -->
<svg version="1.1" id="Слой_1" xmlns="http://www.w3.org/2000/svg" xmlns:xlink="http://www.w3.org/1999/xlink" x="0px" y="0px"
	 viewBox="0 0 847 1058.8" style="enable-background:new 0 0 847 1058.8;" xml:space="preserve">
<g>
	<path d="M799,399h-6v47v50c4,2,7,5,10,8h1c11,12,18,27,18,44c0,16-7,31-17,42l-1,1c-3,3-7,6-11,9v52c1,0,1,1,2,1c8,10,15,20,20,32
		c4,12,7,24,7,37c0,28-12,53-30,71c-19,19-44,30-72,30H127c-28,0-54-11-72-30c-19-18-30-43-30-71c0-13,2-25,7-37c4-11,11-22,19-31
		c1-1,2-1,3-2v-52c-4-3-8-6-11-9c-11-11-18-26-18-43s7-32,18-44l0,0l0,0c3-3,7-6,11-8v-50v-47h-6c-9,0-16-7-17-15c-4-18-5-37-5-55
		c0-72,26-140,72-193c45-53,108-92,182-106c20-4,41-6,62-6h163c21,0,42,2,62,6c73,14,137,53,182,106s72,121,72,193c0,18-2,37-5,56
		C814,393,807,399,799,399L799,399z M482,399v31h134v-31H482z M448,430v-31H87v31H448z M650,399v31h109v-31H650z M759,463H633H465
		H87v23h155v1c6,0,11,2,14,7l20,29l19-28c3-5,8-9,15-9h449V463z M759,609H87v39h440l0,0c5,0,11,3,14,8l38,58l42-58c3-5,9-8,15-8h123
		V609z M72,682c-4,5-7,10-9,16c-3,7-4,15-4,24c0,18,7,35,19,47c13,12,30,20,49,20h593c19,0,36-8,48-20c13-12,20-29,20-47
		c0-9-1-17-4-24c-3-6-6-11-9-16H644l-53,72c-5,7-16,9-23,3c-2-1-4-3-5-5l-45-70H72z M234,520H87c-4,0-7,1-10,2h-1l0,0c-4,2-7,4-9,6
		l0,0c-5,5-8,12-8,20c0,7,3,14,8,19c2,3,6,5,9,6l0,0l1,1l0,0l0,0c3,1,6,1,10,1h673c3,0,7,0,10-1l0,0l0,0v-1l0,0c4-1,7-3,10-6h1
		c4-5,7-12,7-19c0-8-3-15-8-20h-1c-2-2-5-4-8-6l0,0h-1l0,0c-3-1-7-2-10-2H319l-29,43c-5,7-16,9-23,4c-2-1-4-3-5-4L234,520z M62,365
		h723c1-12,2-24,2-36c0-64-24-124-64-171c-40-48-97-82-162-95c-18-3-37-5-56-5H342c-19,0-38,2-56,5c-66,13-122,47-163,95
		c-40,47-64,107-64,171C59,341,60,353,62,365z"/>
</g>
</svg>
