<?xml version="1.0" encoding="utf-8"?>
<!-- Generator: Adobe Illustrator 22.1.0, SVG Export Plug-In . SVG Version: 6.00 Build 0)  -->
<svg version="1.1" id="Слой_1" xmlns="http://www.w3.org/2000/svg" xmlns:xlink="http://www.w3.org/1999/xlink" x="0px" y="0px"
	 viewBox="0 0 100 125" style="enable-background:new 0 0 100 125;" xml:space="preserve">
<path d="M74,32c-0.7,0-1.4,0.1-2,0.4V10c0-1.1-0.9-2-2-2H30c-1.1,0-2,0.9-2,2v22.4c-0.6-0.2-1.3-0.4-2-0.4c-3.3,0-6,2.7-6,6v14v10
	c0,1.1,0.9,2,2,2h26v12H32c-1.1,0-2,0.9-2,2v10h-2c-1.1,0-2,0.9-2,2s0.9,2,2,2h8c1.1,0,2-0.9,2-2s-0.9-2-2-2h-2v-8h14v8h-2
	c-1.1,0-2,0.9-2,2s0.9,2,2,2h8c1.1,0,2-0.9,2-2s-0.9-2-2-2h-2v-8h14v8h-2c-1.1,0-2,0.9-2,2s0.9,2,2,2h8c1.1,0,2-0.9,2-2s-0.9-2-2-2
	h-2V78c0-1.1-0.9-2-2-2H52V64h26c1.1,0,2-0.9,2-2V52V38C80,34.7,77.3,32,74,32z M74,36c1.1,0,2,0.9,2,2v12h-4V38
	C72,36.9,72.9,36,74,36z M32,12h36v26v12H32V38V12z M24,38c0-1.1,0.9-2,2-2s2,0.9,2,2v12h-4V38z M76,60H24v-6h6h40h6V60z"/>
</svg>
