<?xml version="1.0" encoding="utf-8"?>
<!-- Generator: Adobe Illustrator 22.1.0, SVG Export Plug-In . SVG Version: 6.00 Build 0)  -->
<svg version="1.1" xmlns="http://www.w3.org/2000/svg" xmlns:xlink="http://www.w3.org/1999/xlink" x="0px" y="0px"
	 viewBox="0 0 100 125" style="enable-background:new 0 0 100 125;" xml:space="preserve">
<g id="Слой_2">
</g>
<g id="Слой_1">
	<g>
		<path d="M85.5,69.1c-2.5,0.9-6.5,2-10.9,3c-1.6,2.6-4.5,4.7-9,5.6c-1.1,0.2-2.2,0.3-3.5,0.3c-3.1,0.1-6.8-0.2-10.9-0.6
			c-0.3,0-0.6,0-0.8-0.1c-1-0.1-1.9-0.8-1.9-1.8c-0.1-1.3,0.9-2.3,2.2-2.2c0.3,0,0.6,0.1,1,0.1c5.3,0.5,10.2,0.9,13.4,0.3
			c5.8-1.1,7.5-4.6,7.1-7.6c-0.3-2.4-2.1-4.8-5-4.5c-4.1,0.3-8.9,0-13.5-0.4c-5.3-0.4-10.8-0.5-14.7-0.1c-4.3,0.5-13.1,3.7-20.9,9
			c-3.8,2.6-8,5.7-10.6,7.5c-1.3,1-1.6,2.8-0.6,4.1L18,96.4c1,1.3,2.8,1.5,4,0.5l4.2-3.2c1-0.8,2.3-1,3.5-0.6c7.6,2.4,15.7,4,21,4.3
			C62.3,98,84.5,84.3,90.9,79.9C97.2,75.4,92.6,66.5,85.5,69.1z"/>
		<path d="M37.1,34.4h4.1c0.5,1.7,1.1,3.3,2,4.8L40.3,42c-0.7,0.7-0.7,1.8,0,2.5l5.5,5.5c0.7,0.7,1.8,0.7,2.5,0l2.9-2.9
			c1.5,0.8,3.1,1.5,4.8,2v4c0,1,0.8,1.8,1.8,1.8h7.7c1,0,1.8-0.8,1.8-1.8V49c1.7-0.5,3.3-1.1,4.8-2l2.8,2.9c0.7,0.7,1.8,0.7,2.5,0
			l5.5-5.5c0.7-0.7,0.7-1.8,0-2.5L80,39.1c0.8-1.5,1.5-3.1,2-4.8h4c1,0,1.8-0.8,1.8-1.8v-7.7c0-1-0.8-1.8-1.8-1.8h-4.1
			c-0.5-1.7-1.1-3.3-2-4.8l2.9-2.9c0.7-0.7,0.7-1.8,0-2.5l-5.5-5.5c-0.7-0.7-1.8-0.7-2.5,0l-2.8,3c-1.5-0.8-3.1-1.5-4.8-2v-4
			c0-1-0.8-1.8-1.8-1.8h-7.7c-1,0-1.8,0.8-1.8,1.8v4.1c-1.7,0.5-3.3,1.1-4.8,2l-2.9-2.8c-0.7-0.7-1.8-0.7-2.5,0l-5.5,5.5
			c-0.7,0.7-0.7,1.8,0,2.5l2.9,2.9c-0.8,1.5-1.5,3.1-2,4.8h-4c-1,0-1.8,0.8-1.8,1.8v7.7C35.3,33.6,36.1,34.4,37.1,34.4z M61.5,15.6
			c7.2,0,13.1,5.9,13.1,13.1s-5.9,13.1-13.1,13.1s-13.1-5.9-13.1-13.1S54.3,15.6,61.5,15.6z"/>
		<path d="M58.1,34.3c0.4,0.5,1,0.7,1.7,0.7c0.6,0,1.2-0.3,1.7-0.7l7.5-8.1c0.9-0.9,0.8-2.4-0.1-3.2c-0.9-0.9-2.4-0.8-3.2,0.1
			l-5.8,6.3l-2.3-2.5c-0.9-0.9-2.3-1-3.2-0.1s-1,2.3-0.1,3.2L58.1,34.3z"/>
	</g>
</g>
</svg>
