<?xml version="1.0" encoding="utf-8"?>
<!-- Generator: Adobe Illustrator 22.1.0, SVG Export Plug-In . SVG Version: 6.00 Build 0)  -->
<svg version="1.1" id="Слой_1" xmlns="http://www.w3.org/2000/svg" xmlns:xlink="http://www.w3.org/1999/xlink" x="0px" y="0px"
	 viewBox="0 0 100 125" style="enable-background:new 0 0 100 125;" xml:space="preserve">
<g>
	<path d="M89.6,89.1c-0.2-0.3-0.6-0.5-1-0.5H12.7c-0.4,0-0.7,0.2-1,0.4l-7.6,9c-0.3,0.4-0.4,0.9-0.2,1.3c0.2,0.4,0.7,0.7,1.1,0.7
		h89.8c0.5,0,0.9-0.3,1.1-0.7c0.2-0.4,0.2-0.9-0.1-1.3L89.6,89.1z M87.2,90.1l0.7,1.2h-3l-0.6-1.2H87.2z M55.1,90.1h3.1l0.1,1.2H55
		L55.1,90.1z M55,93.4h3.3l0.1,1.2h-3.4L55,93.4z M49.3,90.1h3.1l-0.1,1.2h-3.2L49.3,90.1z M48.8,93.4h3.3L52,94.7h-3.4L48.8,93.4z
		 M43.4,90.1h3l-0.2,1.2h-3.1L43.4,90.1z M42.6,93.4h3.3l-0.2,1.2h-3.4L42.6,93.4z M37.6,90.1h3l-0.3,1.2h-3.1L37.6,90.1z
		 M36.4,93.4h3.3l-0.3,1.2H36L36.4,93.4z M31.8,90.1h3l-0.5,1.2h-3L31.8,90.1z M30.3,93.4h3.2L33,94.7h-3.3L30.3,93.4z M26,90.1h2.9
		l-0.6,1.2h-3L26,90.1z M20.2,90.1H23l-0.7,1.2h-2.9L20.2,90.1z M14.4,90.1h2.7l-0.9,1.2h-2.8L14.4,90.1z M11.7,97.8H8.3l1-1.2h3.3
		L11.7,97.8z M14,94.7h-3.1l1-1.2h3L14,94.7z M18.4,97.8H15l0.8-1.2h3.3L18.4,97.8z M20.3,94.7h-3.2l0.8-1.2h3.1L20.3,94.7z
		 M25.1,97.8h-3.5l0.7-1.2h3.4L25.1,97.8z M26.7,94.7h-3.3l0.7-1.2h3.2L26.7,94.7z M28.2,97.8l0.6-1.2h29.6l0.1,1.2H28.2z
		 M60.9,90.1H64l0.2,1.2H61L60.9,90.1z M61.1,93.4h6.2l-0.6-3.3h3l1.2,4.5h-9.7L61.1,93.4z M61.5,97.8l-0.1-1.2h3.6l0.2,1.2H61.5z
		 M68.1,97.8l-0.2-1.2h3.5l0.3,1.2H68.1z M72.6,90.1h3l0.5,1.2H73L72.6,90.1z M73.5,93.4h3.3l0.5,1.2h-3.4L73.5,93.4z M74.8,97.8
		l-0.4-1.2H78l0.5,1.2H74.8z M78.5,90.1h2.9l0.6,1.2h-3L78.5,90.1z M79.7,93.4H83l0.6,1.2h-3.3L79.7,93.4z M81.5,97.8L81,96.6h3.5
		l0.6,1.2H81.5z M86,93.4h3.1l0.7,1.2h-3.2L86,93.4z M88.2,97.8l-0.6-1.2h3.4l0.7,1.2H88.2z"/>
	<path d="M33.3,84.6c-1.2,1.2,0.7,1.9,0.7,1.9h15.8h0.1h0.1h15.8c0,0,1.9-0.7,0.7-1.9c-1.2-1.2-4.5-2.1-4.9-7.3c0-0.4,0-2,0-4.2
		H38.2c0,2.1,0,3.8,0,4.2C37.8,82.5,34.5,83.4,33.3,84.6z"/>
	<path d="M96,0H4C1.8,0,0,1.8,0,4v63.9c0,2.2,1.8,4,4,4h92c2.2,0,4-1.8,4-4V4C100,1.8,98.2,0,96,0z M50.6,69.3c-1.7,0-3-1.4-3-3
		s1.4-3,3-3s3,1.4,3,3S52.3,69.3,50.6,69.3z M94.7,56.3H5.5V5.5h89.1V56.3z"/>
</g>
</svg>
