<?xml version="1.0" encoding="utf-8"?>
<!-- Generator: Adobe Illustrator 22.1.0, SVG Export Plug-In . SVG Version: 6.00 Build 0)  -->
<svg version="1.1" id="Слой_1" xmlns="http://www.w3.org/2000/svg" xmlns:xlink="http://www.w3.org/1999/xlink" x="0px" y="0px"
	 viewBox="0 0 64 80" style="enable-background:new 0 0 64 80;" xml:space="preserve">
<g>
	<path d="M51.7,11.3c-0.4-0.4-1-0.4-1.4,0l-4,4C46.1,15.5,46,15.7,46,16v3c0,0.6,0.4,1,1,1h8c0.6,0,1-0.4,1-1v-3
		c0-0.3-0.1-0.5-0.3-0.7L51.7,11.3z M54,18h-6v-1.6l3-3l3,3V18z"/>
	<path d="M50.3,6.3l-6,6l1.4,1.4L51,8.4l5.3,5.3l1.4-1.4l-6-6C51.3,5.9,50.7,5.9,50.3,6.3z"/>
	<path d="M57,2H45c-2.8,0-5,2.2-5,5v12c0,2.8,2.2,5,5,5h2.6l2.7,2.7c0.4,0.4,1,0.4,1.4,0l2.7-2.7H57c2.8,0,5-2.2,5-5V7
		C62,4.2,59.8,2,57,2z M60,19c0,1.7-1.3,3-3,3h-3c-0.3,0-0.5,0.1-0.7,0.3L51,24.6l-2.3-2.3C48.5,22.1,48.3,22,48,22h-3
		c-1.7,0-3-1.3-3-3V7c0-1.7,1.3-3,3-3h12c1.7,0,3,1.3,3,3V19z"/>
	<path d="M13.7,34.3c-0.4-0.4-1-0.4-1.4,0l-4,4C8.1,38.5,8,38.7,8,39v3c0,0.6,0.4,1,1,1h8c0.6,0,1-0.4,1-1v-3c0-0.3-0.1-0.5-0.3-0.7
		L13.7,34.3z M16,41h-6v-1.6l3-3l3,3V41z"/>
	<path d="M13,31.4l5.3,5.3l1.4-1.4l-6-6c-0.4-0.4-1-0.4-1.4,0l-6,6l1.4,1.4L13,31.4z"/>
	<path d="M7,47h2.6l2.7,2.7c0.4,0.4,1,0.4,1.4,0l2.7-2.7H19c2.8,0,5-2.2,5-5V30c0-2.8-2.2-5-5-5H7c-2.8,0-5,2.2-5,5v12
		C2,44.8,4.2,47,7,47z M4,30c0-1.7,1.3-3,3-3h12c1.7,0,3,1.3,3,3v12c0,1.7-1.3,3-3,3h-3c-0.3,0-0.5,0.1-0.7,0.3L13,47.6l-2.3-2.3
		C10.5,45.1,10.3,45,10,45H7c-1.7,0-3-1.3-3-3V30z"/>
	<path d="M38,2h-2v17H18.4L3.7,4.3L2.3,5.7L15.6,19H2v2h24v31H2v2h5v8h2v-8h18c0.6,0,1-0.4,1-1v-8h8v17h2v-6h24v-2h-6v-8h6v-2h-6V31
		h6v-2H38V2z M28,21h8v22h-8V21z M54,54H38V31h16V54z"/>
</g>
</svg>
