<?xml version="1.0" encoding="utf-8"?>
<!-- Generator: Adobe Illustrator 22.1.0, SVG Export Plug-In . SVG Version: 6.00 Build 0)  -->
<svg version="1.1" id="Слой_1" xmlns="http://www.w3.org/2000/svg" xmlns:xlink="http://www.w3.org/1999/xlink" x="0px" y="0px"
	 viewBox="0 0 128 160" style="enable-background:new 0 0 128 160;" xml:space="preserve">
<title>Modern Business 4 expandlines</title>
<path d="M59.3,39.9l-1.2,10.5c-0.2,1.3,0.3,2.5,1.4,3.2l2.4,2.5l0.3,0.1c1.2,0.6,2.6,0.6,3.8,0l0.3-0.1l2.4-2.5
	c1.1-0.7,1.6-2,1.3-3.3L68.4,40c-1.3,0.4-2.6,0.6-4,0.6l1.5,10l-1.9,2l-1.9-2l1.2-10C61.9,40.6,60.6,40.3,59.3,39.9z"/>
<path d="M76,24.6c0-6.6-5.4-12-12-12s-12,5.4-12,12c0,6.6,5.4,12,12,12C70.6,36.6,76,31.2,76,24.6C76,24.6,76,24.6,76,24.6z
	 M64,32.6c-4.4,0-8-3.6-8.1-8s3.6-8,8-8.1s8,3.6,8.1,8c0,0,0,0,0,0C72,29,68.4,32.6,64,32.6z"/>
<path d="M33,57.7c0-5-4.1-9-9-9c-5,0-9,4.1-9,9c0,5,4,9,9,9C29,66.8,33,62.7,33,57.7C33,57.7,33,57.7,33,57.7z M24,62.7
	c-2.8,0-5-2.2-5-5c0-2.8,2.2-5,5-5s5,2.2,5,5c0,0,0,0,0,0C29,60.5,26.8,62.7,24,62.7z"/>
<path d="M15,92.9c5,0,9.1-4,9.1-9c0-5-4-9.1-9-9.1c-5,0-9.1,4-9.1,9c0,0,0,0,0,0C6,88.8,10,92.9,15,92.9C15,92.9,15,92.9,15,92.9z
	 M15,78.8c2.8,0,5,2.2,5,5c0,2.8-2.2,5-5,5c-2.8,0-5-2.2-5-5c0,0,0,0,0,0C10,81.1,12.2,78.8,15,78.8z"/>
<path d="M104,66.8c5,0,9.1-4,9.1-9c0-5-4-9.1-9-9.1c-5,0-9.1,4-9.1,9c0,0,0,0,0,0C95,62.7,99,66.8,104,66.8z M104,52.7
	c2.8,0,5,2.2,5,5c0,2.8-2.2,5-5,5s-5-2.2-5-5c0,0,0,0,0,0C99,55,101.2,52.7,104,52.7z"/>
<path d="M114,66c-0.9,1.1-2,2-3.1,2.7c0.9,0.5,1.7,1.2,2.4,2c1.8,0,3.5,0.4,5.1,1.2C117.6,69.6,116,67.5,114,66z"/>
<path d="M104,83.8c0,5,4.1,9,9,9s9-4.1,9-9c0-5-4-9-9-9C108,74.8,104,78.8,104,83.8C104,83.8,104,83.8,104,83.8z M118,83.8
	c0,2.8-2.3,5-5,5s-5-2.3-5-5c0-2.8,2.2-5,5-5C115.8,78.8,118,81.1,118,83.8z"/>
<path d="M106.4,117.3L86.6,73.4c-1.1-2.1-3.2-3.5-5.6-3.7H47c-2.4,0.1-4.5,1.5-5.6,3.7l-19.7,43.9c-0.3,0.9-0.5,1.7-0.6,2.7v4
	c0,2.2,1.8,4,4,4h78c2.2,0,4-1.8,4-4v-4C106.9,119.1,106.7,118.2,106.4,117.3z M45,75.1c0.5-0.7,1.2-1.2,2-1.3h34
	c0.8,0.1,1.5,0.6,2,1.3l18.4,40.9H26.6L45,75.1z M103,124H25v-4h78V124z"/>
<path d="M91.2,60.2H87v-11c-0.1-6.6-4.2-12.5-10.4-14.8c-1,1.2-2.1,2.3-3.4,3.3c5.6,1,9.7,5.8,9.8,11.5v11H45v-11
	c0.1-5.7,4.2-10.5,9.8-11.5c-1.3-0.9-2.4-2-3.4-3.3c-6.2,2.3-10.3,8.2-10.4,14.8v11h-4.2c-0.3,1.4-0.8,2.8-1.5,4h57.5
	C92,63,91.5,61.6,91.2,60.2z"/>
<path d="M12.3,63.3c-2.2-4.6-1.5-10,1.7-13.9V5.1C14.1,4.4,14.7,4,15.4,4h97.3c0.7-0.1,1.3,0.4,1.4,1.1v44.3
	c3.2,3.9,3.9,9.3,1.7,13.9c1.4-0.9,2.2-2.5,2.3-4.1V5.1c-0.1-2.9-2.5-5.2-5.4-5.1H15.4c-2.9-0.1-5.3,2.2-5.4,5.1v54.1
	C10,60.8,10.9,62.4,12.3,63.3z"/>
<path d="M17.1,68.8C15.9,68,14.9,67.1,14,66c-2,1.5-3.5,3.5-4.3,5.9c1.6-0.7,3.3-1.1,5.1-1.2C15.4,70,16.2,69.3,17.1,68.8z"/>
<path d="M21.9,94.9c1.6,0.9,2.9,2.4,3.6,4.2l2-4.5c-0.7-0.9-1.5-1.7-2.5-2.4C24.1,93.2,23.1,94.1,21.9,94.9z"/>
<path d="M4,124v-22.1c0-2.9,1.6-5.6,4.1-7c-1.2-0.7-2.2-1.7-3.1-2.7c-3.1,2.3-5,5.9-5,9.8V124c0,2.2,1.8,4,4,4c0,0,0,0,0,0h14.1
	c-0.7-1.2-1.1-2.6-1.1-4H4z"/>
<path d="M37.7,71.8c0.1-0.2,0.2-0.4,0.3-0.7c-0.9-2-2.2-3.8-4-5.1c-0.9,1.1-2,2-3.1,2.7c2.5,1.4,4.1,4.1,4.1,7v2L37.7,71.8z"/>
<path d="M106.1,94.9c-1.2-0.7-2.2-1.7-3.1-2.7c-0.9,0.7-1.8,1.5-2.5,2.4l2,4.5C103.2,97.3,104.5,95.8,106.1,94.9z"/>
<path d="M123,92.1c-0.9,1.1-2,2-3.1,2.7c2.5,1.4,4.1,4.1,4.1,7V124h-13c0,1.4-0.4,2.8-1.1,4H124c2.2,0,4-1.8,4-4c0,0,0,0,0,0v-22.1
	C128,98,126.1,94.4,123,92.1z"/>
<path d="M93,77.8v-2c0-2.9,1.6-5.6,4.1-7C95.9,68,94.9,67.1,94,66c-1.8,1.3-3.2,3.1-4,5.1c0.1,0.2,0.2,0.4,0.3,0.7L93,77.8z"/>
</svg>
