<?xml version="1.0" encoding="utf-8"?>
<!-- Generator: Adobe Illustrator 22.1.0, SVG Export Plug-In . SVG Version: 6.00 Build 0)  -->
<svg version="1.1" id="Слой_1" xmlns="http://www.w3.org/2000/svg" xmlns:xlink="http://www.w3.org/1999/xlink" x="0px" y="0px"
	 viewBox="0 0 514 373" style="enable-background:new 0 0 514 373;" xml:space="preserve">
<g>
	<path d="M313.2,98.6c21,0,38.1,17.1,38.1,38.1c0,7.8,6.3,14.1,14.1,14.1c7.8,0,14.1-6.3,14.1-14.1c0-36.6-29.8-66.3-66.3-66.3
		c-7.8,0-14.1,6.3-14.1,14.1C299.1,92.2,305.5,98.6,313.2,98.6z"/>
	<path d="M455.6,122.6h-20.4c-7-61.1-59-108.7-121.9-108.7S198.4,61.5,191.4,122.6h-131C29.3,122.6,4,147.9,4,179v109.2
		c0,31.1,25.3,56.4,56.4,56.4h12.4v7.3c0,7.8,6.3,14.1,14.1,14.1s14.1-6.3,14.1-14.1v-7.3h314v7.3c0,7.8,6.3,14.1,14.1,14.1
		c7.8,0,14.1-6.3,14.1-14.1v-7.3h12.4c31.1,0,56.4-25.3,56.4-56.4V179C512,147.9,486.7,122.6,455.6,122.6z M313.2,42.1
		c52.2,0,94.6,42.4,94.6,94.6c0,52.1-42.4,94.6-94.6,94.6c-52.1,0-94.6-42.4-94.6-94.6C218.7,84.5,261.1,42.1,313.2,42.1z
		 M483.8,288.2c0,15.6-12.7,28.2-28.2,28.2H60.4c-15.6,0-28.2-12.7-28.2-28.2V179c0-15.6,12.7-28.2,28.2-28.2h130.9
		c7,61.1,59,108.7,121.9,108.7s114.9-47.6,121.9-108.7h20.4c15.6,0,28.2,12.7,28.2,28.2v109.2H483.8z"/>
	<path d="M158.1,188H74.6c-7.8,0-14.1,6.3-14.1,14.1c0,7.8,6.3,14.1,14.1,14.1h83.5c7.8,0,14.1-6.3,14.1-14.1
		C172.2,194.3,165.9,188,158.1,188z"/>
	<path d="M158.1,251H74.6c-7.8,0-14.1,6.3-14.1,14.1c0,7.8,6.3,14.1,14.1,14.1h83.5c7.8,0,14.1-6.3,14.1-14.1
		C172.2,257.4,165.9,251,158.1,251z"/>
</g>
</svg>
