<?xml version="1.0" encoding="utf-8"?>
<!-- Generator: Adobe Illustrator 22.1.0, SVG Export Plug-In . SVG Version: 6.00 Build 0)  -->
<svg version="1.1" id="Слой_1" xmlns="http://www.w3.org/2000/svg" xmlns:xlink="http://www.w3.org/1999/xlink" x="0px" y="0px"
	 viewBox="0 0 100 125" style="enable-background:new 0 0 100 125;" xml:space="preserve">
<path d="M53.7,51.8c0.3-0.6,0.5-1.2,0.5-1.8c0-1.8-1.1-3.3-2.7-3.8V32.3c0-0.8-0.6-1.4-1.4-1.4s-1.4,0.6-1.4,1.4v13.8
	c-1.6,0.6-2.8,2.1-2.8,3.9c0,2.3,1.8,4.1,4.1,4.1c0.6,0,1.2-0.1,1.7-0.4l12.5,12.5c0.3,0.3,0.6,0.4,1,0.4c0.4,0,0.7-0.1,1-0.4
	c0.5-0.5,0.5-1.4,0-1.9L53.7,51.8z"/>
<path d="M50,28.3c0.8,0,1.4-0.6,1.4-1.4v-3.4c0-0.8-0.6-1.4-1.4-1.4s-1.4,0.6-1.4,1.4v3.4C48.7,27.7,49.3,28.3,50,28.3z"/>
<path d="M50,71.7c-0.8,0-1.4,0.6-1.4,1.4v3.4c0,0.8,0.6,1.4,1.4,1.4s1.4-0.6,1.4-1.4v-3.4C51.4,72.3,50.8,71.7,50,71.7z"/>
<path d="M76.5,48.7h-3.4c-0.8,0-1.4,0.6-1.4,1.4c0,0.8,0.6,1.4,1.4,1.4h3.4c0.8,0,1.4-0.6,1.4-1.4C77.9,49.3,77.3,48.7,76.5,48.7z"
	/>
<path d="M26.9,48.6h-3.4c-0.8,0-1.4,0.6-1.4,1.4c0,0.8,0.6,1.4,1.4,1.4h3.4c0.8,0,1.4-0.6,1.4-1.4C28.3,49.3,27.7,48.6,26.9,48.6z"
	/>
<path d="M50,15.1c-8,0-15.4,2.7-21.3,7.3l4.3,4.1c4.8-3.5,10.6-5.5,17-5.5c16,0,29,13,29,29c0,16-13,29-29,29c-16,0-29-13-29-29
	c0-5.3,1.5-10.3,4-14.6l-4.4-4.2c-3.5,5.4-5.5,11.9-5.5,18.8c0,19.3,15.6,34.9,34.9,34.9c19.3,0,34.9-15.6,34.9-34.9
	C84.9,30.7,69.3,15.1,50,15.1z"/>
<polygon points="26.4,33 24.4,28.2 19.7,30.3 11.3,34.2 13.4,38.9 21.7,35.1 25.1,43.5 29.9,41.6 "/>
</svg>
