<?xml version="1.0" encoding="utf-8"?>
<!-- Generator: Adobe Illustrator 22.1.0, SVG Export Plug-In . SVG Version: 6.00 Build 0)  -->
<svg version="1.1" id="Слой_1" xmlns="http://www.w3.org/2000/svg" xmlns:xlink="http://www.w3.org/1999/xlink" x="0px" y="0px"
	 viewBox="0 0 89.1 90.4" style="enable-background:new 0 0 89.1 90.4;" xml:space="preserve">
<style type="text/css">
	.st0{fill:#454164;}
</style>
<g>
	<path class="st0" d="M38.8,75.4C18.6,75.4,2.1,59,2.1,38.7S18.6,2,38.8,2s36.7,16.5,36.7,36.7C75.5,59,59.1,75.4,38.8,75.4z
		 M38.8,6.5C21.1,6.5,6.6,21,6.6,38.7s14.4,32.2,32.2,32.2C56.6,70.9,71,56.5,71,38.7C71,21,56.6,6.5,38.8,6.5z"/>
</g>
<g>
	<path class="st0" d="M57.8,69.7l16.8,16.8c2.6,2.6,7,2.6,9.6,0l0.8-0.8c2.6-2.6,2.6-7,0-9.6L68.2,59.3L57.8,69.7z"/>
</g>
</svg>
