<?xml version="1.0" encoding="utf-8"?>
<!-- Generator: Adobe Illustrator 22.1.0, SVG Export Plug-In . SVG Version: 6.00 Build 0)  -->
<svg version="1.1" id="Слой_1" xmlns="http://www.w3.org/2000/svg" xmlns:xlink="http://www.w3.org/1999/xlink" x="0px" y="0px"
	 viewBox="0 0 48 60" style="enable-background:new 0 0 48 60;" xml:space="preserve">
<title>secretary</title>
<path d="M13.7,24.2c-1,0-1.9,0.8-1.9,1.8c0,1,0.8,1.9,1.8,1.9c1,0,1.9-0.8,1.9-1.8c0,0,0,0,0,0C15.5,25,14.7,24.2,13.7,24.2z"/>
<path d="M42.5,36.3h-2.1v-5.8c0-1.3-0.6-2.5-1.6-3.3h1.7c0.3,0,0.5-0.2,0.5-0.5c0-0.1,0-0.3-0.1-0.3c-0.8-1.2-1.3-2.5-1.4-3.9
	c0.5-0.3,1-0.6,1.3-1c0.8-0.9,1.1-2,1-3.2c0-0.1,0-0.1,0-0.2c0-0.8-0.3-1.7-0.9-2.3c0-5.4-4.3-9.8-9.7-9.9c0,0-0.1,0-0.1,0
	c-5.4,0-9.4,3.9-9.9,9.7c0,0,0,0,0,0.1c-0.6,0.7-1,1.6-1,2.5c0,0.6,0.2,1.2,0.5,1.7H6.6c-0.9,0-1.6,0.8-1.6,1.7v14.2
	c0,0.9,0.7,1.7,1.6,1.7c0,0,0,0,0,0h3.8c0.3,0,0.5,0.2,0.5,0.5l0,0v4.8c0,0.3,0.2,0.5,0.5,0.5H22c0.3,0,0.5-0.2,0.5-0.5
	c0-1.3-1-2.4-2.3-2.4c0,0,0,0-0.1,0H17c-0.3,0-0.5-0.2-0.5-0.5v-1.9c0-0.3,0.2-0.5,0.5-0.5c0,0,0,0,0,0h25.6c0.3,0,0.5-0.2,0.5-0.5
	S42.8,36.3,42.5,36.3z M40.9,18c0,0.1,0,0.2,0,0.3c0.1,0.9-0.1,1.8-0.7,2.4c-0.2,0.2-0.5,0.4-0.7,0.6c-0.1-1.4-0.1-2.8-0.1-3.5
	c0-0.7,0-1.5-0.2-2.2C40.2,15.9,40.9,16.9,40.9,18z M31.2,6.8c4.6,0,8.4,3.5,8.8,8.1c-0.3-0.2-0.6-0.3-1-0.4c-1-4.2-3.9-6.8-7.8-6.8
	s-6.7,2.7-7.8,6.8c-0.3,0-0.7,0.1-1,0.3C23.1,9.9,26.5,6.8,31.2,6.8z M31.2,24h1.6c0.4,0,0.8-0.2,1-0.6c0,0,0.1,0,0.1,0
	c0.5,0,0.9,0,1.3,0c-1,1.3-2.5,2.1-4.1,2.2c-1.9-0.2-3.6-1.3-4.6-2.9c-0.1-0.2-0.2-0.4-0.2-0.6c0-0.1,0-0.2,0-0.4
	c0-0.4,0.2-0.8,0.6-1c2.7-1.4,5.1-3.4,6.9-5.9c0.1-0.1,0.3-0.2,0.4-0.1c0.1,0,0.1,0.1,0.1,0.2c0.6,2.2,1.2,4.3,2.1,6.4
	c-0.1,0.3-0.3,0.7-0.5,1c-0.6,0.1-1.3,0.1-2,0.1h-0.1c-0.2-0.4-0.6-0.6-1-0.6h-1.6c-0.6,0.1-1,0.6-1,1.2C30.3,23.5,30.7,24,31.2,24
	L31.2,24z M33.2,27.6c-0.6,1-1.4,1.9-2.2,2.7c-0.8-0.8-1.5-1.7-2.2-2.7c-0.1-0.1,0-0.3,0.1-0.4c0,0,0.1,0,0.1,0H33
	c0.1,0,0.3,0.1,0.3,0.2C33.3,27.4,33.3,27.5,33.2,27.6L33.2,27.6z M24.1,20.8h0.5c0.4,0,0.7,0.3,0.7,0.7v14.1c0,0.4-0.3,0.7-0.7,0.7
	h-0.5c0.1-0.2,0.1-0.4,0.1-0.6V21.4C24.3,21.2,24.3,21,24.1,20.8L24.1,20.8z M31.1,9.7c-2.6,0-5,1.3-6.3,3.6c1-2.7,3.5-4.5,6.3-4.5
	c2.8-0.1,5.3,1.6,6.3,4.2C36,10.8,33.6,9.6,31.1,9.7L31.1,9.7z M23.1,15.6C23,16.3,23,19.8,23,19.8h-1c-0.4-0.5-0.7-1.1-0.7-1.7
	C21.2,16.9,22,15.9,23.1,15.6L23.1,15.6z M20.2,41.1c0.6,0,1.1,0.4,1.3,0.9H12v-9.1c0-0.9,0.7-1.6,1.6-1.6c0,0,0,0,0,0h0.3
	c0.9,0,1.6,0.7,1.6,1.6c0,0,0,0,0,0v8.3c0,0.3,0.2,0.5,0.5,0.5c0.3,0,0.5-0.2,0.5-0.5v-0.1H20.2z M16.4,36.3v-3.4
	c0-1.4-1.1-2.6-2.6-2.6h-0.3c-1.4,0-2.5,1.2-2.5,2.6v3.4H6.6c-0.3,0-0.6-0.3-0.6-0.7V21.4c0-0.4,0.3-0.7,0.7-0.7h16
	c0.4,0,0.6,0.3,0.6,0.6v14.2c0,0.4-0.3,0.6-0.6,0.6H16.4z M38.9,36.3H37c-0.3,0-0.5-0.2-0.5-0.5v-4.7c0-0.3-0.2-0.5-0.5-0.5
	s-0.5,0.2-0.5,0.5v4.6c0,0.3-0.2,0.5-0.5,0.5h-8.7c0.1-0.2,0.1-0.4,0.1-0.7v-8.5h0.8c0.2,0,0.5,0.1,0.6,0.4c0.8,1.4,1.8,2.7,3,3.8
	c0.1,0.1,0.2,0.1,0.4,0.1c0.1,0,0.3-0.1,0.4-0.1c1.2-1.1,2.2-2.4,3-3.8c0.1-0.2,0.3-0.4,0.6-0.4h1.1c1.8,0,3.3,1.5,3.3,3.3
	c0,0,0,0,0,0v5.3C39.5,36,39.3,36.3,38.9,36.3C39,36.3,38.9,36.3,38.9,36.3z"/>
</svg>
