<?xml version="1.0" encoding="utf-8"?>
<!-- Generator: Adobe Illustrator 22.1.0, SVG Export Plug-In . SVG Version: 6.00 Build 0)  -->
<svg version="1.1" id="Слой_1" xmlns="http://www.w3.org/2000/svg" xmlns:xlink="http://www.w3.org/1999/xlink" x="0px" y="0px"
	 viewBox="0 0 79.7 91.1" style="enable-background:new 0 0 79.7 91.1;" xml:space="preserve">
<style type="text/css">
	.st0{fill:#FFFFFF;}
</style>
<path d="M40,0c21,0,38.1,17,38.1,38.1c0,21.5-21.5,37.1-36.6,51.7c-0.8,0.8-2.1,0.8-2.9,0C23.5,75.1,2,59.6,2,38.1C2,17,19,0,40,0z"
	/>
<path class="st0" d="M40,8.5c16.1,0,29.1,13,29.1,29.1c0,11.8-7,21.9-17.1,26.6c-3.7,1.7-7.8,2.6-12,2.6c-4.4,0-8.5-1-12.2-2.7
	c-10-4.6-16.9-14.7-16.9-26.5C10.9,21.5,23.9,8.5,40,8.5L40,8.5z"/>
</svg>
